/* XPM */
static const char * arma81[] = {
"39 39 24 1",
" 	c None",
".	c #080808",
"+	c #090808",
"@	c #0A0909",
"#	c #0A0A0A",
"$	c #110D0D",
"%	c #171010",
"&	c #160F0F",
"*	c #150F0F",
"=	c #140E0E",
"-	c #110C0C",
";	c #0B0909",
">	c #0D0A0A",
",	c #120D0D",
"'	c #0E0B0B",
")	c #120E0E",
"!	c #130E0E",
"~	c #0C0A0A",
"{	c #0B0A0A",
"]	c #090909",
"^	c #161010",
"/	c #100C0C",
"(	c #0F0C0C",
"_	c #130D0D",
"                                       ",
"          ...                          ",
"         ....                          ",
"          ....                         ",
"          ....                         ",
"          ....                         ",
"          .....                        ",
"           ..+.                        ",
"           .@#@.                       ",
"            ....$%&%%&%                ",
"            ....+%%%*=%%%              ",
"             ....-%%%%%%%%             ",
"            $;...>%%%%%%%%%            ",
"           *,$....'&%%%%%%%%           ",
"          %%)!..+.+@@~&%%%%%%          ",
"          %%&!..{].{;~~!%%%%%          ",
"         %%%%!{.{@,!!..;*%%%%%         ",
"         %%%%^~..&&%%,../%%%%%         ",
"         %%%%%..&^%%%*(.@%%%%%         ",
"         %%%%%..%^^%&&/..%%%%%         ",
"         %%%%^..&&%%%=(.@%%%%%         ",
"         %%%%%...=&&&_>./%%%%%         ",
"         %%%%%%...-'$;.;*%%%%%         ",
"          %%%%%&@.....~!%%%%%          ",
"          %%%%%%&$..~-&%%%%%%          ",
"           %%%%%%%%%%%%%%%%%           ",
"            %%%%%%%%%%%%%%%            ",
"             %%%%%%%%%%%%%             ",
"              %%%%%%%%%%%              ",
"                 %%%%%                 ",
"                                       ",
"                                       ",
"                                       ",
"                                       ",
"                                       ",
"                                       ",
"                                       ",
"                                       ",
"                                       "};
