/* XPM */
static const char * arma8[] = {
"39 39 31 1",
" 	c None",
".	c #080808",
"+	c #0A0909",
"@	c #0D0B0B",
"#	c #090909",
"$	c #110D0D",
"%	c #171010",
"&	c #160F0F",
"*	c #0E0C0C",
"=	c #150F0F",
"-	c #140E0E",
";	c #0F0D0D",
">	c #0D0C0C",
",	c #090808",
"'	c #0C0A0A",
")	c #140D0D",
"!	c #0B0808",
"~	c #0E0D0D",
"{	c #0C0B0B",
"]	c #0B0A0A",
"^	c #0B0909",
"/	c #130E0E",
"(	c #0A0808",
"_	c #0D0A0A",
":	c #120D0D",
"<	c #100C0C",
"[	c #161010",
"}	c #0F0C0C",
"|	c #130D0D",
"1	c #110C0C",
"2	c #0E0B0B",
"                                       ",
"                                       ",
"                                       ",
"                                       ",
"                                       ",
"       .                               ",
"      ...                              ",
"     .....                             ",
"      ..+@..                           ",
"       .+@+@#   $%&%%&%                ",
"        .#**#.%%&%%%=-%%%              ",
"        ...;*#.%%%%%%%%%%%             ",
"         ....**.%=%%%%%%%%%            ",
"          ....>#.%%&%%%%%%%%           ",
"          %#,..;*#.++'&%%%%%%          ",
"          %)#..!~{.]^''/%%%%%          ",
"         %%%;.#.(*$//..^=%%%%%         ",
"         %%%%%_..&&%%:..<%%%%%         ",
"         %%%%%..&[%%%=}.+%%%%%         ",
"         %%%%%..%[[%&&<..%%%%%         ",
"         %%%%[..&&%%%-}.+%%%%%         ",
"         %%%%%...-&&&|_.<%%%%%         ",
"         %%%%%%...12$^.^=%%%%%         ",
"          %%%%%&+.....'/%%%%%          ",
"          %%%%%%&$..'1&%%%%%%          ",
"           %%%%%%%%%%%%%%%%%           ",
"            %%%%%%%%%%%%%%%            ",
"             %%%%%%%%%%%%%             ",
"              %%%%%%%%%%%              ",
"                 %%%%%                 ",
"                                       ",
"                                       ",
"                                       ",
"                                       ",
"                                       ",
"                                       ",
"                                       ",
"                                       ",
"                                       "};
