/* XPM */
static const char * arma5[] = {
"39 39 25 1",
" 	c None",
".	c #171010",
"+	c #160F0F",
"@	c #110D0D",
"#	c #140E0E",
"$	c #150F0F",
"%	c #0C0A0A",
"&	c #0A0909",
"*	c #080808",
"=	c #161010",
"-	c #130E0E",
";	c #0B0909",
">	c #0B0A0A",
",	c #120D0D",
"'	c #100C0C",
")	c #0D0A0A",
"!	c #0F0C0C",
"~	c #130D0D",
"{	c #0E0B0B",
"]	c #110C0C",
"^	c #090909",
"/	c #0F0B0B",
"(	c #130F0F",
"_	c #0C0909",
":	c #0D0C0C",
"                                       ",
"                                       ",
"                                       ",
"                                       ",
"                                       ",
"                                       ",
"                                       ",
"                                       ",
"                                       ",
"                .+..+.@                ",
"              ...#$...+..              ",
"             .............             ",
"            .........$.....            ",
"           ........+........           ",
"          ......+%&&**==.....          ",
"          .....-%%;>**+$$....          ",
"         .....$;**--,***==....         ",
"         .....'**,..++**).....         ",
"         .....&*!$...=+**.....         ",
"         .....**'++.==.**.....         ",
"         .....&*!#...++**=....         ",
"         .....'*)~+++#***.....         ",
"         .....$;*;@{]***......         ",
"          .....-%%;!**&+.....          ",
"          ......+%;'**+......          ",
"           ......]&!^*......           ",
"            .....]&!*%.....            ",
"             ....]&!*%....             ",
"              ...!{)^%...              ",
"                 @{)^*                 ",
"                 ,{)**                 ",
"                 !{)**                 ",
"                 !{){,                 ",
"                  /%(                  ",
"                  _:{                  ",
"                  &*)                  ",
"                  &*)                  ",
"                  )*&                  ",
"                  /,!                  "};
