/* XPM */
static const char * arma4[] = {
"39 39 31 1",
" 	c None",
".	c #171010",
"+	c #160F0F",
"@	c #110C0C",
"#	c #0C0A0A",
"$	c #080808",
"%	c #110D0D",
"&	c #130E0E",
"*	c #0A0909",
"=	c #150F0F",
"-	c #0B0909",
";	c #0E0B0B",
">	c #100C0C",
",	c #0D0A0A",
"'	c #130D0D",
")	c #140E0E",
"!	c #0F0C0C",
"~	c #161010",
"{	c #120D0D",
"]	c #0E0C0C",
"^	c #0A0808",
"/	c #090909",
"(	c #0F0D0D",
"_	c #0B0A0A",
":	c #0C0B0B",
"<	c #0E0D0D",
"[	c #0B0808",
"}	c #140D0D",
"|	c #090808",
"1	c #0D0C0C",
"2	c #0D0B0B",
"                                       ",
"                                       ",
"                                       ",
"                                       ",
"                                       ",
"                                       ",
"                                       ",
"                                       ",
"                                       ",
"                 .....                 ",
"              ...........              ",
"             .............             ",
"            ...............            ",
"           .................           ",
"          ......+@#$$%+......          ",
"          .....&#$$$$$*+.....          ",
"         .....=-$-%;@$$$......         ",
"         .....>$,'+++)$$$.....         ",
"         .....*$!)...++$$~....         ",
"         .....$$>++.~~.$$.....         ",
"         .....*$!=...~+$$.....         ",
"         .....>$${..++$$,.....         ",
"         .....=-$$&&%]^$/$(...         ",
"          .....&##-_$:<[$$/}.          ",
"          ......+#**$/]($$|/.          ",
"           ........+..$/1$$$$          ",
"            .........=.$]]$$$$         ",
"             ...........$/]($$$        ",
"              ...)=...+..$/]]/$        ",
"                .+..+.%   /2*2*$       ",
"                           $$2*$$      ",
"                             $$$$$     ",
"                              $$$      ",
"                               $       ",
"                                       ",
"                                       ",
"                                       ",
"                                       ",
"                                       "};
