/* XPM */
static const char * arma34[] = {
"39 39 24 1",
" 	c None",
".	c #171010",
"+	c #160F0F",
"@	c #110C0C",
"#	c #0C0A0A",
"$	c #080808",
"%	c #110D0D",
"&	c #130E0E",
"*	c #0A0909",
"=	c #150F0F",
"-	c #0B0909",
";	c #0E0B0B",
">	c #100C0C",
",	c #0D0A0A",
"'	c #130D0D",
")	c #140E0E",
"!	c #0F0C0C",
"~	c #161010",
"{	c #120D0D",
"]	c #090808",
"^	c #0B0A0A",
"/	c #090909",
"(	c #0D0B0B",
"_	c #100B0B",
"                                       ",
"                                       ",
"                                       ",
"                                       ",
"                                       ",
"                                       ",
"                                       ",
"                                       ",
"                                       ",
"                 .....                 ",
"              ...........              ",
"             .............             ",
"            ...............            ",
"           .................           ",
"          ......+@#$$%+......          ",
"          .....&#$$$$$*+.....          ",
"         .....=-$-%;@$$$......         ",
"         .....>$,'+++)$$$.....         ",
"         .....*$!)...++$$~....         ",
"         .....$$>++.~~.$$.....         ",
"         .....*$!=...~+$$~....         ",
"         .....>$${..++$$$$%)+.         ",
"         .....=-$$&&{$]]$$$*@&         ",
"          .....&##-^$/]$$$$$$$$        ",
"          ......+#**$](/$$$$$$$$       ",
"           ........+.+)%(]$$$$$]$]     ",
"            .........=.+=_;$$$$$$$$    ",
"             .............  $]$$$$$$   ",
"              ...)=...+..     $$$$$$$  ",
"                .+..+.%          $$$$  ",
"                                   $   ",
"                                       ",
"                                       ",
"                                       ",
"                                       ",
"                                       ",
"                                       ",
"                                       ",
"                                       "};
