/* XPM */
static const char *bullet_xpm[] = {
"15 15 4 1",
" 	c None",
".	c #080808",
"+	c #000000",
"@	c #171717",
"               ",
"               ",
"      ...      ",
"    ..+++..    ",
"   ..++.++..   ",
"   .++.++.+.   ",
"  .+.+.+++@+.  ",
"  .++.++++@+.  ",
"  .++.++++++.  ",
"   .++.++++.   ",
"   ..+++++..   ",
"    ..+++..    ",
"      ...      ",
"               ",
"               "};
