/* XPM */
static const char *carBar[] = {
"138 42 109 2",
"  	c None",
". 	c #292929",
"+ 	c #282828",
"@ 	c #2A2A2A",
"# 	c #272727",
"$ 	c #252525",
"% 	c #333333",
"& 	c #313131",
"* 	c #303030",
"= 	c #323232",
"- 	c #2E2E2E",
"; 	c #2D2D2D",
"> 	c #383838",
", 	c #373737",
"' 	c #343434",
") 	c #262626",
"! 	c #2B2B2B",
"~ 	c #363636",
"{ 	c #353535",
"] 	c #242424",
"^ 	c #2F2F2F",
"/ 	c #666666",
"( 	c #F2F2F2",
"_ 	c #2C2C2C",
": 	c #676767",
"< 	c #767676",
"[ 	c #515151",
"} 	c #535353",
"| 	c #8A8A8A",
"1 	c #858585",
"2 	c #878787",
"3 	c #636363",
"4 	c #555555",
"5 	c #404040",
"6 	c #4E4E4E",
"7 	c #818181",
"8 	c #7B7B7B",
"9 	c #838383",
"0 	c #A2A2A2",
"a 	c #888888",
"b 	c #8D8D8D",
"c 	c #434343",
"d 	c #5D5D5D",
"e 	c #7F7F7F",
"f 	c #898989",
"g 	c #959595",
"h 	c #7D7D7D",
"i 	c #575757",
"j 	c #424242",
"k 	c #4A4A4A",
"l 	c #7C7C7C",
"m 	c #9F9F9F",
"n 	c #7A7A7A",
"o 	c #717171",
"p 	c #4D4D4D",
"q 	c #5A5A5A",
"r 	c #747474",
"s 	c #8F8F8F",
"t 	c #9B9B9B",
"u 	c #939393",
"v 	c #6F6F6F",
"w 	c #545454",
"x 	c #848484",
"y 	c #9C9C9C",
"z 	c #474747",
"A 	c #A1A1A1",
"B 	c #444444",
"C 	c #3A3A3A",
"D 	c #8B8B8B",
"E 	c #828282",
"F 	c #777777",
"G 	c #868686",
"H 	c #808080",
"I 	c #969696",
"J 	c #3C3C3C",
"K 	c #5E5E5E",
"L 	c #919191",
"M 	c #7E7E7E",
"N 	c #585858",
"O 	c #999999",
"P 	c #646464",
"Q 	c #737373",
"R 	c #686868",
"S 	c #797979",
"T 	c #616161",
"U 	c #595959",
"V 	c #989898",
"W 	c #4F4F4F",
"X 	c #929292",
"Y 	c #3B3B3B",
"Z 	c #505050",
"` 	c #757575",
" .	c #4B4B4B",
"..	c #3D3D3D",
"+.	c #6B6B6B",
"@.	c #3F3F3F",
"#.	c #707070",
"$.	c #6C6C6C",
"%.	c #5F5F5F",
"&.	c #565656",
"*.	c #464646",
"=.	c #656565",
"-.	c #8E8E8E",
";.	c #414141",
">.	c #CDCDCD",
",.	c #606060",
"'.	c #8C8C8C",
").	c #232323",
"!.	c #222222",
"                              . + @ @ @ @ @ @ @ + +                                                                                                                                                                                                                                 ",
"                        # $ . @ % % & & & & * = % * - . +                                                                                                                                                                                                                           ",
"                    @ + ; - = > , > > > > > > , ' * * * - . +                                                                                                                                                                                                                       ",
"                ) ! @ - > > > > > > > > > > > , ~ % * * * * { ) ]                                                                                                                                                                                                                   ",
"              . ; - { > > > > > > > > > > > > > > ~ ' = * * ^ * ; +                                                                                                                                                                                                                 ",
"            + ; > > > > > > > > > > > > > > > > > > > ~ { ' * * - * / ( ( ( ( (         ( ( ( ( ( ( ( ( ( (         ( ( ( ( ( ( ( ( ( ( ( (     ( ( ( ( ( ( ( ( ( ( ( (         ( ( ( ( ( ( ( ( ( ( (       ( ( ( ( ( ( ( ( ( ( (       ( ( ( ( ( ( ( ( ( ( (       ( ( ( ( ( ( ( ( ",
"          @ # > > > > > > > > > > > , ~ ~ ' { , > > > > > ~ % * ^ - _ : ( ( ( (         ( ( ( ( ( ( ( ( ( (         ( ( ( ( ( ( ( ( ( ( (         ( ( ( ( ( ( ( ( ( ( (         ( ( ( ( ( ( ( ( ( ( (       ( ( ( ( ( ( ( ( ( ( (       ( ( ( ( ( ( ( ( ( ( (       ( ( ( ( ( ( ( ( ",
"        . ) > > > > > > > > { * ) ! _ * * _ ; @ @ . , > > > , { * ^ _ ) < ( ( (         ( ( ( ( ( ( ( ( ( (         ( ( ( ( ( ( ( ( ( ( (         ( ( ( ( ( ( ( ( ( ( (         ( ( ( ( ( ( ( ( ( ( (       ( ( ( ( ( ( ( ( ( ( (       ( ( ( ( ( ( ( ( ( ( (       ( ( ( ( ( ( ( ( ",
"      + . { > > > > > > * ; ^ & ' [ } | 1 2 3 4 5 @ @ { > > > ~ ' ^ ^ . ) #                                                                                                                                                                                                   ( ( ( ",
"      # @ > > > > > > - ~ * 6 7 8 9 0 0 0 0 0 a 9 b c % ^ % > > { * * - ] *                                                                                                                                                                                                   ( ( ( ",
"    + . > > > > > > @ * 5 d 8 8 e f ! ! ! ! ! 0 g 9 h i j = ' > ~ % * * ! + !                                                                                                                                                                                                 ( ( ( ",
"    @ > > > > > > & ; k d l 0 0 m f ! ! ! ! ! 0 0 0 m n o p ; * > { & & - _ _                                                                                                                                                                                                 ( ( ( ",
"  . @ > > > > > > * c q 0 0 ! r 0 s @ ! ! ! ! 0 0 t ! u 0 v c * { , % * * ; @ @                                                                                                                                                                                               ( ( ( ",
"  . . > > > > > ^ > w x 0 ! ! ! e y ! ! ! ! ! 0 t ! ! ! s 7 d ! ~ = ' * * ; _ ;                                                                                                                             ( ( (         ( ( (     ( ( ( ( ( ( ( (                           ( ( ( ",
"  @ > > > > > - _ z 1 0 ! ! ! ! @ A y ! ! ! s 0 @ ! ! ! ! 0 h B ^ ^ { & * - @ =                                                                                                                             ( ( (         ( ( (     ( ( ( ( ( ( ( (                           ( ( ( ",
"+ ^ > > > > ~ @ C D E 0 0 ! ! ! ! e 0 ! ! ! s F ! ! ! @ e 0 n 2 ! * { & * * _ - @                                                                                                                           ( ( (         ( ( (     ( ( ( ( ( ( ( ( ( (                       ( ( ( ",
"# . > > > > = * } G H 0 0 0 ! ! ! ! 0 ! ! ! o ! ! ! ! s 0 I h h J ] , ' * * ; @ ^                                                                                                                           ( ( (         ( ( (     ( ( (         ( ( (                       ( ( ( ",
"_ ^ > > > > & { K L 9 9 s t 0 0 ! ! @ 0 ! 9 ! ! ! 0 0 u l s 0 M N . ~ { & & - @ %                                                                                                                           ( ( ( ( ( ( ( ( ( (     ( ( (         ( ( (                             ",
"- ^ > > > , - > v 0 ! ! ! @ e t 0 ! ! s 8 0 ! ! O O 9 ! ! ! ! 0 K . , { = * ; . &                                                                                                                           ( ( ( ( ( ( ( ( ( (     ( ( (         ( ( (                             ",
"_ - > > > > ! > x 0 ! ! ! ! ! @ ! 0 0 P < 8 0 0 ! ! ! ! ! ! ! 0 Q ^ , ~ = & - @ .                                                                                                                           ( ( ( ( ( ( ( ( ( (     ( ( ( ( ( ( ( ( ( (                             ",
"@ = > > > , @ > E 0 ! ! ! ! ! ! ! ! 8 8 8 8 8 ! ! ! ! ! ! ! ! 0 M @ , ~ % * - ! #                                                                                                                           ( ( (         ( ( (     ( ( ( ( ( ( ( ( ( (                             ",
"@ ' > > > , * > G 0 ! ! ! ! ! ! ! 0 0 8 8 8 0 0 ! ! ! ! ! ! ! 0 7 - , ~ = ^ - ; )                                                                                                                           ( ( (         ( ( (     ( ( ( ( ( ( ( ( (                         ( ( ( ",
"; ^ > > > > - { R 0 ! @ ! ! 0 s S ! ! 0 8 0 ! ! O a 9 @ ! ! ! 0 T * { { = ^ - ; +                                                                                                                           ( ( (         ( ( (     ( ( (                                     ( ( ( ",
". . > > > > = * U l 0 V m s s s ! ! ! 0 ! 0 ! ! ! 0 0 0 | M t 0 W * { { & ^ ; ; )                                                                                                                           ( ( (         ( ( (     ( ( (                                     ( ( ( ",
"! @ > > > > = * W l I O 0 9 ! ! ! ! u ! ! @ s ! ! ! ! 0 0 O 0 X z % , { & ^ ; ! +                                                                                                                           ( ( (         ( ( (     ( ( (                                     ( ( ( ",
"@ . { > > > > ) Y G 7 0 S ! ! ! ! 0 b ! ! ! s 0 ! ! ! ! 0 0 l X ~ & , ' * - _ # @                                                                                                                           ( ( (         ( ( (     ( ( (                                     ( ( ( ",
"  . @ > > > > ^ ) Z x 0 ! ! ! ! ! 0 s ! ! ! ` A ! ! ! ! ! 0 x  ._ % ~ = ^ ; ! # .                                                                                                                                                                                             ( ( ( ",
"  * @ ' > > > > % _ U M 0 ! ! ! 0 m ! ! ! ! ! y 0 ! ! ! 0 e w , # > ' & ^ _ @ _                                                                                                                                                                                               ( ( ( ",
"  @ + _ > > > > > - ..o 0 0 ! 0 0 u @ ! ! ! ! t 0 0 ! 0 0 +.@.] ; , ' * ; @ + @                                                                                                                                                                                               ( ( ( ",
"    ^ . { > > > > > ) Y #.x 0 0 0 s ! ! ! ! ! t b 0 0 M $.Y @ > > { = ; _ @ +                                                                                                                                                                                                 ( ( ( ",
"    ! + ^ > > > > > , ; & %.a 1 H 9 ! ! ! ! ! s 9 1 7 &.j . * > > ' ^ ! @ + $.(         ( ( ( ( ( ( ( ( (           ( ( ( ( ( ( ( ( ( ( (         ( ( ( ( ( ( ( ( ( ( (         ( ( ( ( ( ( ( ( ( ( (       ( ( ( ( ( ( ( ( ( ( (       ( ( ( ( ( ( ( ( ( ( (       ( ( ( ( ( ( ( ( ",
"      _ _ > > > > > > * % = *.n M =.0 0 0 0 0 a -.I ;.C @ ; > > ~ % _ _ . ~ >.(         ( ( ( ( ( ( ( ( (           ( ( ( ( ( ( ( ( ( ( (         ( ( ( ( ( ( ( ( ( ( (         ( ( ( ( ( ( ( ( ( ( (       ( ( ( ( ( ( ( ( ( ( (       ( ( ( ( ( ( ( ( ( ( (       ( ( ( ( ( ( ( ( ",
"      + . _ > > > > > > > * * ^ @ C ,.f '.| K p j ~ @ ) > > > > % - _ ! # E ( (         ( ( ( ( ( ( ( ( (           ( ( ( ( ( ( ( ( ( ( (         ( ( ( ( ( ( ( ( ( ( (         ( ( ( ( ( ( ( ( ( ( (       ( ( ( ( ( ( ( ( ( ( (       ( ( ( ( ( ( ( ( ( ( (       ( ( ( ( ( ( ( ( ",
"        + @ * > > > > > > > > = * . _ * * * ' = ^ ; { > > > { = _ ! ! # !                                                                                                                                                                                                           ",
"          . # - ~ ~ { > > > > > > > > ~ ' ' ' { > > > > { * ^ ; ! @ # .                                                                                                                                                                                                             ",
"            # # & & & { { > > > > > > > > > > > > > { % - ; _ ! ! @ .                                                                                                                                                                                                               ",
"              . @ @ % { { & ' ' ' ' , , , > { { & ^ - _ _ ! @ @ + )                                                                                                                                                                                                                 ",
"                @ ; # - - % - - - - ; - - ^ * ; ; _ _ @ @ @ ] + ).                                                                                                                                                                                                                  ",
"                    ! ; ; . @ ^ * ^ ^ - ^ ; _ _ @ @ _ @ . @ +                                                                                                                                                                                                                       ",
"                        @ * . $ . ] !.@ + @ ^ ; # ; @ ; $                                                                                                                                                                                                                           ",
"                              + + # # + @ @ + @ ! + +                                                                                                                                                                                                                               ",
"                                                                                                                                                                                                                                                                                    "};
