/* XPM */
static const char * crosshair[] = {
"20 20 5 1",
" 	c None",
".	c #FF0000",
"+	c #000000",
"@	c #121212",
"#	c #404040",
"         ..         ",
"         ..         ",
"         ..         ",
"        +..+        ",
"      ++@..@++      ",
"     +@@ .. @@+     ",
"    +@   ..   @+    ",
"    +@   ..   @+    ",
"   +@    ##    @+   ",
"........#++#........",
"........#++#........",
"   +@    ##    @+   ",
"    +@   ..   @+    ",
"    +@   ..   @+    ",
"     +@@ .. @@+     ",
"      ++@..@++      ",
"        +..+        ",
"         ..         ",
"         ..         ",
"         ..         "};
