/* XPM */
static const char *digit7[] = {
"21 46 2 1",
" 	c None",
".	c #FFFFFF",
"                     ",
" ................... ",
" ................... ",
" ................... ",
" ................... ",
" ................... ",
" .....         ..... ",
" .....         ..... ",
" .....        .....  ",
" .....        .....  ",
" .....        .....  ",
" .....        .....  ",
"             ......  ",
"             .....   ",
"             .....   ",
"             .....   ",
"            ......   ",
"            .....    ",
"            .....    ",
"            .....    ",
"           ......    ",
"           .....     ",
"           .....     ",
"           .....     ",
"          ......     ",
"          .....      ",
"          .....      ",
"          .....      ",
"         ......      ",
"         .....       ",
"         .....       ",
"         .....       ",
"        ......       ",
"        .....        ",
"        .....        ",
"        .....        ",
"       ......        ",
"       .....         ",
"       .....         ",
"       .....         ",
"      ......         ",
"      .....          ",
"      .....          ",
"      .....          ",
"     ......          ",
"                     "};
