/* XPM */
static const char *digit9[] = {
"21 46 2 1",
" 	c None",
".	c #FFFFFF",
"                     ",
"      ..........     ",
"     ............    ",
"    ..............   ",
"   ................  ",
"  ........  ........ ",
"  ......      ...... ",
"  .....        ..... ",
" ......        ......",
" .....          .....",
" .....          .....",
" .....          .....",
" .....          .....",
" .....          .....",
" .....          .....",
" .....          .....",
" .....          .....",
" .....          .....",
" .....          .....",
" ......        ......",
" ......        ..... ",
"  ......      ...... ",
"  .................. ",
"   ................. ",
"    ...............  ",
"     ..............  ",
"       ...........   ",
"             .....   ",
"            ......   ",
"            .....    ",
"           ......    ",
"           .....     ",
"          ......     ",
"          .....      ",
"          .....      ",
"         ......      ",
"         .....       ",
"        ......       ",
"        .....        ",
"       ......        ",
"       ......        ",
"       .....         ",
"      ......         ",
"      .....          ",
"     ......          ",
"                     "};
