/* XPM */
static const char *digit0[] = {
"21 46 2 1",
" 	c None",
".	c #FFFFFF",
"                     ",
"      ..........     ",
"    .............    ",
"   ...............   ",
"   ................  ",
"  .......   ........ ",
"  ......      ...... ",
" ......        ..... ",
" .....         ......",
" .....          .....",
" .....          .....",
" .....          .....",
" .....          .....",
" .....          .....",
" .....          .....",
" .....          .....",
" .....          .....",
" .....          .....",
" .....          .....",
" .....          .....",
" .....          .....",
" .....          .....",
" .....          .....",
" .....          .....",
" .....          .....",
" .....          .....",
" .....          .....",
" .....          .....",
" .....          .....",
" .....          .....",
" .....          .....",
" .....          .....",
" .....          .....",
" .....          .....",
" .....          .....",
" .....          .....",
" .....          .....",
" .....         ......",
" ......        ..... ",
"  ......      ...... ",
"  .......   ........ ",
"   ................  ",
"   ...............   ",
"    .............    ",
"      ..........     ",
"                     "};
