/* XPM */
static const char *digit1[] = {
"21 46 2 1",
" 	c None",
".	c #FFFFFF",
"                     ",
"        .......      ",
"      .........      ",
"     ..........      ",
"   ............      ",
"  .............      ",
"  ......  .....      ",
"  .....   .....      ",
"  ...     .....      ",
"  ..      .....      ",
"          .....      ",
"          .....      ",
"          .....      ",
"          .....      ",
"          .....      ",
"          .....      ",
"          .....      ",
"          .....      ",
"          .....      ",
"          .....      ",
"          .....      ",
"          .....      ",
"          .....      ",
"          .....      ",
"          .....      ",
"          .....      ",
"          .....      ",
"          .....      ",
"          .....      ",
"          .....      ",
"          .....      ",
"          .....      ",
"          .....      ",
"          .....      ",
"          .....      ",
"          .....      ",
"          .....      ",
"          .....      ",
"          .....      ",
"          .....      ",
"          .....      ",
"          .....      ",
"          .....      ",
"          .....      ",
"          .....      ",
"                     "};
