/* XPM */
static const char *digit6[] = {
"21 46 2 1",
" 	c None",
".	c #FFFFFF",
"                     ",
"           ......    ",
"           .....     ",
"          ......     ",
"          .....      ",
"         ......      ",
"         .....       ",
"         .....       ",
"        ......       ",
"        .....        ",
"       ......        ",
"       .....         ",
"       .....         ",
"      .....          ",
"      .....          ",
"     ......          ",
"     .....           ",
"    ......           ",
"    .....            ",
"    ............     ",
"   ...............   ",
"   ................  ",
"  .................  ",
"  .................. ",
"  ......      ...... ",
" ......        ......",
" ......        ......",
" .....          .....",
" .....          .....",
" .....          .....",
" .....          .....",
" .....          .....",
" .....          .....",
" .....          .....",
" .....          .....",
" .....          .....",
" .....          .....",
" ......        ......",
"  .....        ..... ",
"  ......      ...... ",
"  ........  ........ ",
"   ................  ",
"    ..............   ",
"     ............    ",
"      ..........     ",
"                     "};
