/* XPM */
static const char *digit2[] = {
"21 46 2 1",
" 	c None",
".	c #FFFFFF",
"                     ",
"      .........      ",
"    .............    ",
"   ...............   ",
"  .................  ",
"  ........  .......  ",
" .......      ...... ",
" ......       ...... ",
" .....         ..... ",
" .....         ..... ",
" .....         ..... ",
"......         ..... ",
"......         ..... ",
"               ..... ",
"               ..... ",
"              ...... ",
"              ...... ",
"              .....  ",
"             ......  ",
"             ......  ",
"            ......   ",
"            ......   ",
"           ......    ",
"           ......    ",
"          ......     ",
"         .......     ",
"         ......      ",
"        ......       ",
"        ......       ",
"       ......        ",
"       ......        ",
"      ......         ",
"     ......          ",
"     ......          ",
"    ......           ",
"    ......           ",
"   ......            ",
"   ......            ",
"  ......             ",
" ......              ",
" ................... ",
" ................... ",
" ................... ",
" ................... ",
" ................... ",
"                     "};
