/* XPM */
static const char *digit5[] = {
"21 46 2 1",
" 	c None",
".	c #FFFFFF",
"                     ",
"  .................. ",
"  .................. ",
"  .................. ",
"  .................. ",
"  .................. ",
"  .....              ",
"  .....              ",
"  .....              ",
"  .....              ",
"  .....              ",
"  .....              ",
"  .....              ",
"  .....              ",
"  .....              ",
"  .....  .......     ",
"  ..... .........    ",
"  ................   ",
"  .................  ",
"  .................  ",
"  ......      ...... ",
"  .....       ...... ",
"  .....        ..... ",
"  .....        ..... ",
"               ..... ",
"               ..... ",
"               ..... ",
"               ..... ",
"               ..... ",
"               ..... ",
"               ..... ",
"               ..... ",
"               ..... ",
"               ..... ",
" .....         ..... ",
" .....         ..... ",
" .....         ..... ",
" .....         ..... ",
" ......        ..... ",
"  .....       ...... ",
"  .......   .......  ",
"  .................  ",
"   ...............   ",
"    .............    ",
"      .........      ",
"                     "};
