/* XPM */
static const char *digit3[] = {
"21 46 2 1",
" 	c None",
".	c #FFFFFF",
"                     ",
"      ..........     ",
"     ............    ",
"    ..............   ",
"   ................  ",
"  ........  .......  ",
"  ......      ...... ",
"  .....        ..... ",
"  .....        ..... ",
"  .....        ..... ",
"  .....        ..... ",
"  .....        ..... ",
"  .....        ..... ",
"               ..... ",
"               ..... ",
"               ..... ",
"               ..... ",
"               ..... ",
"              .....  ",
"             ......  ",
"        ..........   ",
"        .........    ",
"        .........    ",
"        ...........  ",
"            .......  ",
"              ...... ",
"               ..... ",
"                .....",
"                .....",
"                .....",
"                .....",
"                .....",
"                .....",
" .....          .....",
" .....          .....",
" .....          .....",
" .....          .....",
" .....          .....",
" ......        ......",
" ......       ...... ",
"  ........  ........ ",
"  .................  ",
"   ................  ",
"    ..............   ",
"      ..........     ",
"                     "};
