/* XPM */
static const char *digit4[] = {
"21 46 2 1",
" 	c None",
".	c #FFFFFF",
"                     ",
"         .....       ",
"         .....       ",
"        ......       ",
"        .....        ",
"        .....        ",
"       ......        ",
"       .....         ",
"       .....         ",
"       .....         ",
"      ......         ",
"      .....          ",
"      .....          ",
"     ......          ",
"     .....           ",
"     .....           ",
"    ......           ",
"    ......           ",
"    .....            ",
"    .....     .....  ",
"   ......     .....  ",
"   .....      .....  ",
"   .....      .....  ",
"  ......      .....  ",
"  ......      .....  ",
"  .....       .....  ",
"  .....       .....  ",
" ......       .....  ",
" .....        .....  ",
" .....        .....  ",
"......        .....  ",
"......        .....  ",
".....         .....  ",
".....         .....  ",
".....................",
".....................",
".....................",
".....................",
"              .....  ",
"              .....  ",
"              .....  ",
"              .....  ",
"              .....  ",
"              .....  ",
"              .....  ",
"                     "};
