/* XPM */
static const char *dots[] = {
"21 46 2 1",
" 	c None",
".	c #FFFFFF",
"                     ",
"                     ",
"                     ",
"                     ",
"                     ",
"                     ",
"                     ",
"                     ",
"                     ",
"       .....         ",
"       .....         ",
"       .....         ",
"       .....         ",
"        ....         ",
"                     ",
"                     ",
"                     ",
"                     ",
"                     ",
"                     ",
"                     ",
"                     ",
"                     ",
"                     ",
"                     ",
"                     ",
"                     ",
"                     ",
"                     ",
"                     ",
"                     ",
"                     ",
"                     ",
"                     ",
"       .....         ",
"       .....         ",
"       .....         ",
"       .....         ",
"       .....         ",
"                     ",
"                     ",
"                     ",
"                     ",
"                     ",
"                     ",
"                     "};
