/* XPM */
static const char * enemy56[] = {
"60 60 395 2",
"  	c None",
". 	c #245B1B",
"+ 	c #22551A",
"@ 	c #1E4B18",
"# 	c #1F4F18",
"$ 	c #1E4917",
"% 	c #1C4517",
"& 	c #1B4216",
"* 	c #1B4316",
"= 	c #1C4416",
"- 	c #1D4717",
"; 	c #1C4516",
"> 	c #215119",
", 	c #215319",
"' 	c #3B4517",
") 	c #474016",
"! 	c #214A18",
"~ 	c #1C4316",
"{ 	c #1C4317",
"] 	c #1C4417",
"^ 	c #1D4517",
"/ 	c #1E4A17",
"( 	c #762711",
"_ 	c #6E2C12",
": 	c #802010",
"< 	c #7C2210",
"[ 	c #742711",
"} 	c #653212",
"| 	c #3B3F15",
"1 	c #1D4818",
"2 	c #193D13",
"3 	c #153511",
"4 	c #163412",
"5 	c #1A3F15",
"6 	c #1A4015",
"7 	c #1E4918",
"8 	c #204F19",
"9 	c #7B2410",
"0 	c #821E0F",
"a 	c #831C0F",
"b 	c #831D0F",
"c 	c #7C2B11",
"d 	c #613D15",
"e 	c #122B0E",
"f 	c #10240D",
"g 	c #0E1F0D",
"h 	c #0E1D0C",
"i 	c #0B170B",
"j 	c #10250E",
"k 	c #122C10",
"l 	c #183C14",
"m 	c #1D4817",
"n 	c #7D2310",
"o 	c #851A0F",
"p 	c #802210",
"q 	c #841A0F",
"r 	c #88160E",
"s 	c #86190F",
"t 	c #841D0F",
"u 	c #613412",
"v 	c #173912",
"w 	c #10240E",
"x 	c #0D1C0C",
"y 	c #0F210E",
"z 	c #11280F",
"A 	c #0F200D",
"B 	c #10230E",
"C 	c #11270F",
"D 	c #0F220D",
"E 	c #173813",
"F 	c #1A4016",
"G 	c #1C4617",
"H 	c #7E2210",
"I 	c #7E2410",
"J 	c #832010",
"K 	c #822210",
"L 	c #832210",
"M 	c #87190E",
"N 	c #822410",
"O 	c #29290F",
"P 	c #0E200D",
"Q 	c #132A10",
"R 	c #143211",
"S 	c #132E10",
"T 	c #163512",
"U 	c #173812",
"V 	c #1A3E15",
"W 	c #183913",
"X 	c #173412",
"Y 	c #132B0F",
"Z 	c #0D1D0C",
"` 	c #153711",
" .	c #1B4215",
"..	c #1C4716",
"+.	c #205219",
"@.	c #22551B",
"#.	c #7B2510",
"$.	c #812110",
"%.	c #6D3512",
"&.	c #693F14",
"*.	c #783312",
"=.	c #7C2D11",
"-.	c #7E2A11",
";.	c #691E0E",
">.	c #0F1F0D",
",.	c #193B14",
"'.	c #1C4A15",
").	c #1D5015",
"!.	c #1C4815",
"~.	c #1C4915",
"{.	c #1D4815",
"].	c #1C4615",
"^.	c #1C4715",
"/.	c #1B4914",
"(.	c #163A11",
"_.	c #1A4115",
":.	c #1B4315",
"<.	c #22501C",
"[.	c #23511D",
"}.	c #404616",
"|.	c #663F14",
"1.	c #365419",
"2.	c #295A1B",
"3.	c #544D18",
"4.	c #544917",
"5.	c #31290F",
"6.	c #142D11",
"7.	c #193C14",
"8.	c #1D4D15",
"9.	c #1D4715",
"0.	c #1C4415",
"a.	c #1D4F15",
"b.	c #184112",
"c.	c #0E200C",
"d.	c #14370F",
"e.	c #194413",
"f.	c #1A4314",
"g.	c #21531A",
"h.	c #23571A",
"i.	c #225619",
"j.	c #24591B",
"k.	c #225519",
"l.	c #1E4C17",
"m.	c #1F5018",
"n.	c #1B4515",
"o.	c #193C15",
"p.	c #1C4B15",
"q.	c #1C4515",
"r.	c #1B4415",
"s.	c #1D4C15",
"t.	c #13340E",
"u.	c #153B10",
"v.	c #215619",
"w.	c #22571A",
"x.	c #1B4614",
"y.	c #194014",
"z.	c #1A4215",
"A.	c #1F4B1A",
"B.	c #23581A",
"C.	c #23591A",
"D.	c #215218",
"E.	c #1A4214",
"F.	c #122D10",
"G.	c #153011",
"H.	c #1D4E15",
"I.	c #1C4F15",
"J.	c #194513",
"K.	c #205217",
"L.	c #245A1B",
"M.	c #1F4F17",
"N.	c #173F11",
"O.	c #163C11",
"P.	c #173D12",
"Q.	c #194314",
"R.	c #22561A",
"S.	c #153411",
"T.	c #173613",
"U.	c #1C4C15",
"V.	c #1B4016",
"W.	c #153A0F",
"X.	c #394314",
"Y.	c #495118",
"Z.	c #3C561A",
"`.	c #1D4C16",
" +	c #184012",
".+	c #183D13",
"++	c #0F240E",
"@+	c #132B10",
"#+	c #1C4D14",
"$+	c #16360F",
"%+	c #54280F",
"&+	c #782F12",
"*+	c #684115",
"=+	c #584114",
"-+	c #2A4213",
";+	c #173F12",
">+	c #173E12",
",+	c #0D1D0B",
"'+	c #0D1C0B",
")+	c #6B2B10",
"!+	c #841E0F",
"~+	c #841F0F",
"{+	c #802310",
"]+	c #5C2F0F",
"^+	c #1E3C11",
"/+	c #205218",
"(+	c #194214",
"_+	c #090F09",
":+	c #0D1F0C",
"<+	c #173A12",
"[+	c #1D4915",
"}+	c #0E250B",
"|+	c #79210F",
"1+	c #831F10",
"2+	c #851B0F",
"3+	c #77240F",
"4+	c #612E10",
"5+	c #1F5118",
"6+	c #10280D",
"7+	c #090D08",
"8+	c #0D1F0B",
"9+	c #0E210D",
"0+	c #132F10",
"a+	c #1A4813",
"b+	c #13290C",
"c+	c #77210F",
"d+	c #87160E",
"e+	c #861B0F",
"f+	c #861A0F",
"g+	c #722910",
"h+	c #23561A",
"i+	c #275217",
"j+	c #214B15",
"k+	c #080808",
"l+	c #080B08",
"m+	c #184212",
"n+	c #45330F",
"o+	c #772610",
"p+	c #851E10",
"q+	c #841C0F",
"r+	c #792510",
"s+	c #234B16",
"t+	c #2A340D",
"u+	c #1E1D09",
"v+	c #0A1209",
"w+	c #14330F",
"x+	c #163610",
"y+	c #193F13",
"z+	c #1C4C14",
"A+	c #14360F",
"B+	c #1D4D16",
"C+	c #494916",
"D+	c #713513",
"E+	c #851D0F",
"F+	c #7F1E0F",
"G+	c #583511",
"H+	c #262209",
"I+	c #171008",
"J+	c #090808",
"K+	c #090B08",
"L+	c #183B14",
"M+	c #193D10",
"N+	c #1C4E15",
"O+	c #194213",
"P+	c #205318",
"Q+	c #285218",
"R+	c #534B17",
"S+	c #6A3C14",
"T+	c #83190E",
"U+	c #1E1708",
"V+	c #161008",
"W+	c #0A1009",
"X+	c #1C4218",
"Y+	c #204D1A",
"Z+	c #193F11",
"`+	c #1A4512",
" @	c #13330F",
".@	c #215519",
"+@	c #205117",
"@@	c #275218",
"#@	c #454C17",
"$@	c #712F11",
"%@	c #732B11",
"&@	c #090908",
"*@	c #2D2C1A",
"=@	c #4E5830",
"-@	c #21501A",
";@	c #1B4312",
">@	c #1B4A14",
",@	c #1B4B14",
"'@	c #1B4C14",
")@	c #1A4914",
"!@	c #194412",
"~@	c #1A4413",
"{@	c #215318",
"]@	c #334E17",
"^@	c #080908",
"/@	c #464428",
"(@	c #AFAD6B",
"_@	c #5C6737",
":@	c #283F10",
"<@	c #2F380D",
"[@	c #1C3D10",
"}@	c #174112",
"|@	c #163B10",
"1@	c #1E5017",
"2@	c #215419",
"3@	c #1D4A15",
"4@	c #0E0E0A",
"5@	c #605E39",
"6@	c #BAB771",
"7@	c #26390F",
"8@	c #3B2B06",
"9@	c #3C2A06",
"0@	c #293C10",
"a@	c #1E4C16",
"b@	c #1C4C16",
"c@	c #1B4714",
"d@	c #1D4B16",
"e@	c #1A4714",
"f@	c #1B4915",
"g@	c #1E4E16",
"h@	c #225719",
"i@	c #3E3D24",
"j@	c #0A1509",
"k@	c #12320E",
"l@	c #2C390E",
"m@	c #3C2B06",
"n@	c #3D2B06",
"o@	c #3C2E07",
"p@	c #285519",
"q@	c #1F5017",
"r@	c #E8E28D",
"s@	c #D9D383",
"t@	c #858250",
"u@	c #1E2112",
"v@	c #153910",
"w@	c #2C4814",
"x@	c #3C2D07",
"y@	c #2C4914",
"z@	c #E3DD8A",
"A@	c #E2DC8A",
"B@	c #CAC47B",
"C@	c #605D39",
"D@	c #51522F",
"E@	c #99975C",
"F@	c #A7AA65",
"G@	c #2F4B14",
"H@	c #423408",
"I@	c #483C0A",
"J@	c #3D2C06",
"K@	c #2E4311",
"L@	c #215418",
"M@	c #23551C",
"N@	c #23561C",
"O@	c #23521D",
"P@	c #E4DE8A",
"Q@	c #CCC67C",
"R@	c #B8B56F",
"S@	c #D1CD7F",
"T@	c #7B874A",
"U@	c #3A330A",
"V@	c #665E13",
"W@	c #665F13",
"X@	c #363F10",
"Y@	c #27561A",
"Z@	c #E1DB89",
"`@	c #D8D283",
" #	c #6C6940",
".#	c #1A1F10",
"+#	c #898852",
"@#	c #DED887",
"##	c #D9D483",
"$#	c #274914",
"%#	c #3B3109",
"&#	c #3C3008",
"*#	c #40420F",
"=#	c #2A5418",
"-#	c #B3AE6C",
";#	c #9C975D",
">#	c #15150D",
",#	c #98945B",
"'#	c #AAA566",
")#	c #D6D182",
"!#	c #DAD584",
"~#	c #B3B26C",
"{#	c #214613",
"]#	c #504D2F",
"^#	c #232214",
"/#	c #35341F",
"(#	c #BCB772",
"_#	c #D6D082",
":#	c #E4DE8B",
"<#	c #434128",
"[#	c #8C8954",
"                                                                                                                        ",
"                                                                                                                        ",
"                                                                                                                        ",
"                                                                                                                        ",
"                                                                                                                        ",
"                                                                                                                        ",
"                                                                                                                        ",
"                                                                                                                        ",
"                                                                                                                        ",
"                                                                                                                        ",
"                                                                                                                        ",
"                                                                                                                        ",
"                                                                                                                        ",
"                                                                                                                        ",
"                                                                                                                        ",
"                                                                                                                        ",
"                                                                                                                        ",
"                                                                                                                        ",
"                                                                                                                        ",
"                                      .   + @                                                                           ",
"                                  + # $ % & * = - ; > ,                                                                 ",
"                                ' ) ! - - ~ { ~ ~ ] * ^ / %                                                             ",
"                            ( _ : < [ } | { @ 1 * 2 3 4 5 5 6 7 8                                                       ",
"                            9 0 a b b b c d , e f g g h i j k l & m +                                                   ",
"                            n o p q r s t u v w x y w z A B C D E F * G 8 >                                             ",
"                          9 H I J K L M N O P Q R S T U V W E X Y Z `  .* ..+.@.                                        ",
"                          #.$.%.&.*.=.-.;.>.z ,.'.).!.~.{.].^.].!./.` (.* _.:.- <.[.                                    ",
"                          }.|.1.. 2.3.4.5.6.7.~.8.~.!.9.].0.^.~.a.a.b.c.d.e.f.* = g.                                    ",
"                        h.i., j.k.l.m.n.j o.8.p.^. .].n.^.q.r.].s.).a.t.u.v.w.x.y.z.n.A.                                ",
"                        B.k.. C.B.D.E.F.G. .!.].].].^.).'.s.s.^.].H.).I.J.K.L.M.N.O.P.Q.                                ",
"                        R.i.w.C.B.^.S.P T. .q.].^.^.^.p.s.p.a.U.V.a.).).W.X.Y.Z.C.`.f. +                                ",
"                        k.k.h.B.C..+++@+,. .].].^.!.'.H.a.a.).).a.).).#+$+%+&+*+*+=+-+;+>+                              ",
"                        i.k.k.+ . ,+'+j 7.0.^.!.p.H.).).).).).).).).).#+u.)+!+~+K {+]+^+                                ",
"                        i.i.D./+(+_+:+P <+].[+8.a.).).).).).).).).).).).}+|+1+J J 2+3+4+                                ",
"                        k.i.h.5+6+7+8+9+0+x.8.).).).).).).).).).).).).a+b+c+!+d+e+f+b g+                                ",
"                          h+i+j+k+k+l+e f m+H.).).).).).).).).).).).).m+n+o+t f+p+2+q+r+                                ",
"                          s+t+u+k+k+v+w+x+y+).).).).).).).).).).).).z+A+B+C+D+~+E+2+F+G+                                ",
"                            H+I+J+k+K+L+M+b.N+).).).).).).).).).).).N.O+P+P+Q+R+S+T+b                                   ",
"                            U+V+k+k+W+X+Y+Z+`+).).).).).).).).).).). @.@L.i.+@@@#@$@%@                                  ",
"                            K+&@k+k+*@=@-@;@M+Z+>@).,@'@).#+)@J.!@u.~@. . L.C.{@{@]@                                    ",
"                            ^@k+k+k+/@(@_@:@<@[@m+N.N.u.N.}@|@u.e.1@2@L.. . C./+3@                                      ",
"                          k+k+k+k+4@5@6@7@8@9@0@a@b@'.c@d@e@f@g@h@k.2@i.. . . .@                                        ",
"                          i@k+k+k+k+j@k@l@m@n@o@p@h@L.. 2@/+q@i.. C.B.. . .                                             ",
"                      r@s@t@k+k+k+k+u@v@w@x@n@x@y@{@i.i.{@+@{@w.. . .                                                   ",
"                      z@A@B@C@k+k+D@E@F@G@H@I@J@K@/+L@k.i.h+M@N@O@  .                                                   ",
"                      P@z@Q@k+k+k+R@S@T@U@V@W@X@Y@B.. L.L.                                                              ",
"                    r@Z@`@ #k+.#+#@###$#%#&#*#=#                                                                        ",
"                      -#;#>#,#'#)#!#~#{#                                                                                ",
"                    k+]#^#/#(#_#:#                                                                                      ",
"                    k+k+k+<#[#                                                                                          ",
"                    k+k+k+k+k+                                                                                          ",
"                    k+k+k+k+                                                                                            ",
"                  k+k+k+k+                                                                                              ",
"                  k+k+k+k+                                                                                              ",
"                      k+                                                                                                ",
"                                                                                                                        ",
"                                                                                                                        ",
"                                                                                                                        ",
"                                                                                                                        ",
"                                                                                                                        "};
