/* XPM */
static const char * enemy4[] = {
"60 60 398 2",
"  	c None",
". 	c #1B4715",
"+ 	c #1D4717",
"@ 	c #184113",
"# 	c #173E12",
"$ 	c #214F1A",
"% 	c #204F19",
"& 	c #1E4C16",
"* 	c #1A4414",
"= 	c #1E4B16",
"- 	c #1A4213",
"; 	c #203F12",
"> 	c #1E3C11",
", 	c #215219",
"' 	c #1F4D18",
") 	c #1E4B17",
"! 	c #173D11",
"~ 	c #1B4815",
"{ 	c #2B4A15",
"] 	c #603411",
"^ 	c #642C0F",
"/ 	c #6F290F",
"( 	c #7A240F",
"_ 	c #194213",
": 	c #205018",
"< 	c #1E4D17",
"[ 	c #1B4514",
"} 	c #1B4614",
"| 	c #194313",
"1 	c #1D4B16",
"2 	c #2C591A",
"3 	c #674115",
"4 	c #802510",
"5 	c #841C0F",
"6 	c #821D0F",
"7 	c #7E210F",
"8 	c #831C0F",
"9 	c #1F4E18",
"0 	c #183E12",
"a 	c #173E11",
"b 	c #205319",
"c 	c #22571A",
"d 	c #295A1B",
"e 	c #544D18",
"f 	c #723913",
"g 	c #83200F",
"h 	c #87190F",
"i 	c #851B0F",
"j 	c #821E0F",
"k 	c #204E18",
"l 	c #1E4C17",
"m 	c #1B4615",
"n 	c #1A4614",
"o 	c #184212",
"p 	c #215619",
"q 	c #235719",
"r 	c #3C5519",
"s 	c #6F3B14",
"t 	c #831F0F",
"u 	c #832010",
"v 	c #861B0F",
"w 	c #7B2710",
"x 	c #693512",
"y 	c #364C16",
"z 	c #1F4D17",
"A 	c #194114",
"B 	c #173B11",
"C 	c #122F0F",
"D 	c #12310E",
"E 	c #174012",
"F 	c #153810",
"G 	c #273C11",
"H 	c #502A0F",
"I 	c #841D0F",
"J 	c #851F0F",
"K 	c #6B3D14",
"L 	c #3C5018",
"M 	c #365218",
"N 	c #1F4F17",
"O 	c #183B14",
"P 	c #102A0E",
"Q 	c #163811",
"R 	c #153710",
"S 	c #163E10",
"T 	c #1B4B14",
"U 	c #1B4C14",
"V 	c #153A0F",
"W 	c #173910",
"X 	c #48240D",
"Y 	c #70230F",
"Z 	c #7E1F0F",
"` 	c #7F2610",
" .	c #673C14",
"..	c #395218",
"+.	c #245218",
"@.	c #205218",
"#.	c #1D4B15",
"$.	c #1E4B18",
"%.	c #1D4816",
"&.	c #143111",
"*.	c #0E1F0D",
"=.	c #1C4B15",
"-.	c #1D5015",
";.	c #1C4D14",
">.	c #1A4913",
",.	c #14380F",
"'.	c #0F250B",
").	c #332D0D",
"!.	c #504214",
"~.	c #205017",
"{.	c #225519",
"].	c #23581A",
"^.	c #23591A",
"/.	c #1E4916",
"(.	c #11280F",
"_.	c #0F200D",
":.	c #163112",
"<.	c #1B4414",
"[.	c #1D4F15",
"}.	c #1D4E15",
"|.	c #1F3B11",
"1.	c #1D4E16",
"2.	c #205418",
"3.	c #245A1B",
"4.	c #245B1B",
"5.	c #1F4E17",
"6.	c #1D4716",
"7.	c #132C10",
"8.	c #0F210D",
"9.	c #142F11",
"0.	c #1A3E14",
"a.	c #1C4915",
"b.	c #1C4815",
"c.	c #1C4515",
"d.	c #1C4616",
"e.	c #184412",
"f.	c #153A10",
"g.	c #1F4C17",
"h.	c #183A13",
"i.	c #0D1D0C",
"j.	c #0F220D",
"k.	c #163612",
"l.	c #1C4715",
"m.	c #163D10",
"n.	c #173D12",
"o.	c #0C160A",
"p.	c #10230D",
"q.	c #142D11",
"r.	c #1B4216",
"s.	c #1C4415",
"t.	c #1B4415",
"u.	c #1D4C15",
"v.	c #184112",
"w.	c #1A4413",
"x.	c #225619",
"y.	c #1D4417",
"z.	c #1F4B17",
"A.	c #1E4817",
"B.	c #183D12",
"C.	c #0E1E0C",
"D.	c #10250E",
"E.	c #122B0F",
"F.	c #1D4815",
"G.	c #1C4A15",
"H.	c #1D4D15",
"I.	c #194512",
"J.	c #215418",
"K.	c #1F4D19",
"L.	c #153311",
"M.	c #0E1D0D",
"N.	c #11250F",
"O.	c #173712",
"P.	c #1A4713",
"Q.	c #184012",
"R.	c #215419",
"S.	c #1D4616",
"T.	c #1F4F19",
"U.	c #0C190B",
"V.	c #0F240E",
"W.	c #184013",
"X.	c #1C4C15",
"Y.	c #1C4615",
"Z.	c #173F11",
"`.	c #1E4917",
" +	c #1C4417",
".+	c #1F4C18",
"++	c #122A0E",
"@+	c #132F10",
"#+	c #1B4315",
"$+	c #184011",
"%+	c #205318",
"&+	c #24571C",
"*+	c #265219",
"=+	c #10220E",
"-+	c #1B4314",
";+	c #1C4E14",
">+	c #1F5017",
",+	c #215318",
"'+	c #24591B",
")+	c #1E4A17",
"!+	c #284116",
"~+	c #693814",
"{+	c #5C3712",
"]+	c #132B10",
"^+	c #194613",
"/+	c #173F12",
"(+	c #205118",
"_+	c #24581C",
":+	c #24591C",
"<+	c #215119",
"[+	c #294016",
"}+	c #6C3112",
"|+	c #822110",
"1+	c #55240F",
"2+	c #163313",
"3+	c #1B4A14",
"4+	c #153B10",
"5+	c #194513",
"6+	c #215519",
"7+	c #225719",
"8+	c #235A1B",
"9+	c #22531A",
"0+	c #244617",
"a+	c #652F12",
"b+	c #811F0F",
"c+	c #87180E",
"d+	c #832110",
"e+	c #4E240E",
"f+	c #11270F",
"g+	c #1A3D15",
"h+	c #1B4515",
"i+	c #1A4813",
"j+	c #235A1A",
"k+	c #26591B",
"l+	c #593914",
"m+	c #7C2310",
"n+	c #821F0F",
"o+	c #851A0F",
"p+	c #851D0F",
"q+	c #802710",
"r+	c #5A4817",
"s+	c #233711",
"t+	c #122B10",
"u+	c #193914",
"v+	c #1A3F15",
"w+	c #1D4A15",
"x+	c #184111",
"y+	c #1A4714",
"z+	c #603313",
"A+	c #831D0F",
"B+	c #7F2911",
"C+	c #783212",
"D+	c #455118",
"E+	c #1C4816",
"F+	c #122D10",
"G+	c #183914",
"H+	c #1A3E15",
"I+	c #1B4814",
"J+	c #1C4C14",
"K+	c #1A4514",
"L+	c #1F4D16",
"M+	c #772711",
"N+	c #811E0F",
"O+	c #7B2E11",
"P+	c #495219",
"Q+	c #1D4A16",
"R+	c #183D13",
"S+	c #122D0F",
"T+	c #11290E",
"U+	c #173912",
"V+	c #163E11",
"W+	c #283A0E",
"X+	c #30360D",
"Y+	c #2C390F",
"Z+	c #275117",
"`+	c #244F17",
" @	c #782511",
".@	c #7F2110",
"+@	c #831E0F",
"@@	c #604215",
"#@	c #1F4F18",
"$@	c #215319",
"%@	c #1D4916",
"&@	c #132E0F",
"*@	c #0B150A",
"=@	c #080B08",
"-@	c #0A1409",
";@	c #0E200C",
">@	c #132F0F",
",@	c #153711",
"'@	c #194014",
")@	c #1C4714",
"!@	c #293E10",
"~@	c #392906",
"{@	c #3A2C07",
"]@	c #3B3009",
"^@	c #38360C",
"/@	c #353F0F",
"(@	c #752911",
"_@	c #7A2510",
":@	c #614115",
"<@	c #0D1F0B",
"[@	c #090E09",
"}@	c #080908",
"|@	c #0B140A",
"1@	c #224F1C",
"2@	c #214E1B",
"3@	c #A1A461",
"4@	c #24360D",
"5@	c #352C08",
"6@	c #3A2E08",
"7@	c #3C2E08",
"8@	c #45390A",
"9@	c #5C5511",
"0@	c #3A330A",
"a@	c #772811",
"b@	c #543C14",
"c@	c #594115",
"d@	c #2C5218",
"e@	c #0C1B0A",
"f@	c #080808",
"g@	c #0C1A0B",
"h@	c #3B3F23",
"i@	c #CAC67B",
"j@	c #A9A765",
"k@	c #27390F",
"l@	c #344010",
"m@	c #3A310A",
"n@	c #4A410C",
"o@	c #827C1B",
"p@	c #3C4415",
"q@	c #274B17",
"r@	c #22561A",
"s@	c #0B1A0A",
"t@	c #32301D",
"u@	c #8F8B55",
"v@	c #AEAB6A",
"w@	c #12300E",
"x@	c #1C4012",
"y@	c #325B1F",
"z@	c #354110",
"A@	c #3C3108",
"B@	c #244A15",
"C@	c #121409",
"D@	c #090808",
"E@	c #242315",
"F@	c #090C08",
"G@	c #0A1309",
"H@	c #B0AD6A",
"I@	c #BABA71",
"J@	c #385C24",
"K@	c #2F4111",
"L@	c #1E4A16",
"M@	c #225218",
"N@	c #2F4813",
"O@	c #34340C",
"P@	c #1F1708",
"Q@	c #0C0A08",
"R@	c #9F9B5F",
"S@	c #DDD786",
"T@	c #C3C176",
"U@	c #345321",
"V@	c #244C17",
"W@	c #314010",
"X@	c #352D09",
"Y@	c #0E0D08",
"Z@	c #34351E",
"`@	c #D7D282",
" #	c #E0DB89",
".#	c #A8A865",
"+#	c #7E7C4B",
"@#	c #D9D484",
"##	c #E2DD8A",
"$#	c #242215",
"%#	c #14200E",
"&#	c #B5B06D",
"*#	c #E3DD8A",
"=#	c #66633D",
"-#	c #AEAA69",
";#	c #ADA869",
">#	c #BFBA73",
",#	c #DFD987",
"'#	c #DED987",
")#	c #E4DE8A",
"!#	c #D9D383",
"~#	c #090908",
"{#	c #B7B26E",
"]#	c #D7D182",
"^#	c #6F6C42",
"/#	c #E5DF8B",
"(#	c #E2DC89",
"_#	c #9B975D",
":#	c #0E0E0A",
"<#	c #68663E",
"[#	c #D4CE80",
"}#	c #7C784A",
"|#	c #1D1D12",
"1#	c #63603A",
"                                                                                                                        ",
"                                                                                                                        ",
"                                                                                                                        ",
"                                                                                                                        ",
"                                                                                                                        ",
"                                                                                                                        ",
"                                                                                                                        ",
"                                                                                                                        ",
"                                                                                                                        ",
"                                                                                                                        ",
"                                                                                                                        ",
"                                                                                                                        ",
"                                                                                                                        ",
"                                                                                                                        ",
"                                                                                                                        ",
"                                                                                                                        ",
"                                                                                                                        ",
"                                                                                                                        ",
"                                                                                                                        ",
"                                                                    . + @ @ #                                           ",
"                                                                $ % & * = - ; >                                         ",
"                                                              , ' ) * ! ~ { ] ^ / ( _                                   ",
"                                                            : < [ } | 1 2 3 4 5 5 6 7 8                                 ",
"                                                          9 = 0 a b c d e f g 5 h 5 i 6 j                               ",
"                                                        k l m n o p q r s t u v v u u w x y                             ",
"                                                      , z A B C D E F G H I I i i J K L M N                             ",
"                                                    ' ) O P Q R S T U V W X Y Z `  ...+.@.#.                            ",
"                                                  $.%.&.*.o =.-.-.-.-.;.>.,.'.).!.@.~.{.].^.].                          ",
"                                                l /.(._.:.<.-.[.}.-.-.-.-.-.o |.1.2.c 3.4.4.4.                          ",
"                                              5.6.7.8.9.0.=.a.b.c.d.-.-.-.-.-.e.f.c 4.4.4.4.4.                          ",
"                                            : g.h.i.j.k.c.l.c.l.a.=.-.-.-.-.-.-.m.n.4.4.3.4.4.                          ",
"                                            z d.o.p.q.r.l.s.t.u.[.-.-.-.-.-.-.-.-.v.w.^.x.4.4.                          ",
"                                        y.z.A.B.C.D.E.l.F.s.u.G.H.-.-.-.-.-.-.-.-.I.| c J.4.4.                          ",
"                                        K.' + L.M.N.O.l.F.t.=.=.}.-.-.-.-.-.-.-.-.P.Q.R.].4.4.                          ",
"                                      $.g.S.T.L.U.V.W.X.l.Y.=.=.-.-.-.-.-.-.-.-.;.E Z.x.3.4.4.                          ",
"                                      9 `. +.+++*.@+a.=.c.#+Y.b.H.-.-.-.-.-.-.-.[.$+| %+R.3.&+                          ",
"                                      z S. +*+Y.=+q.-+[.l.l.l.b.}.-.-.-.-.-.-.-.;+E n >+,+'+'+                          ",
"                                    {.)+r.!+~+{+]+i.h.a.l.Y.l.b.[.-.-.-.-.-.-.-.^+/+p (+,+_+:+                          ",
"                                    <++ [+}+|+u 1+_.2+b.a.c.Y.l.H.-.-.-.-.-.-.3+4+5+6+].7+8+                            ",
"                                    9+0+a+b+i c+d+e+f+g+h+s.l.l.u.-.-.-.-.-.-.i+4+>+j+3.3.'+                            ",
"                                    k+l+m+n+o+p+q+r+s+t+u+v+#+Y.w+}.-.-.-.-.;.x+y+p 4.^.^.4.                            ",
"                                      z+6 A+5 B+C+D+E+F+(.G+H+<.[ I+J+-.-.;.x+K+L+j+^.x.^.                              ",
"                                      M+N+A+I O+P+R.Q+R+(._.j.S+S+T+U+| 5+V+W+X+Y+Z+`+%+3.                              ",
"                                       @.@j +@@@4.#@$@%@&@*@=@-@;@>@,@'@E+)@!@~@{@]@^@/@4.                              ",
"                                        (@_@+@:@^.4.^.R.#@<@[@}@}@|@>@1@2@3@4@5@6@7@8@9@0@                              ",
"                                          a@b@c@d@3.4.4.^.N e@}@f@f@f@g@h@i@j@k@l@m@n@o@7@                              ",
"                                            p@q@g.$@r@]., < . s@f@f@f@f@t@u@v@w@x@y@z@A@                                ",
"                                                  l z z %@#@R.B@C@D@f@f@f@E@F@G@H@I@J@K@                                ",
"                                                    L@g.l 9 M@N@O@P@Q@f@f@f@f@}@R@S@T@U@                                ",
"                                                        g.) k V@W@X@Y@f@f@f@f@f@Z@`@ #.#                                ",
"                                                                      }@f@f@f@f@f@+#@###                                ",
"                                                                        f@$#f@f@f@%#&#*#                                ",
"                                                                          =#-#;#f@f@>#,#                                ",
"                                                                          ,#'#)#!#~#{#]#^#                              ",
"                                                                              /#(#_#:#<#f@f@                            ",
"                                                                              /#[#}#|#f@f@f@                            ",
"                                                                                  1#f@f@f@f@f@                          ",
"                                                                                    f@f@f@f@f@f@                        ",
"                                                                                        f@f@f@f@                        ",
"                                                                                          f@f@                          "};
