/* XPM */
static const char * enemy8[] = {
"60 60 398 2",
"  	c None",
". 	c #080808",
"+ 	c #63603A",
"@ 	c #1D1D12",
"# 	c #7C784A",
"$ 	c #D4CE80",
"% 	c #E5DF8B",
"& 	c #68663E",
"* 	c #0E0E0A",
"= 	c #9B975D",
"- 	c #E2DC89",
"; 	c #6F6C42",
"> 	c #D7D182",
", 	c #B7B26E",
"' 	c #090908",
") 	c #D9D383",
"! 	c #E4DE8A",
"~ 	c #DED987",
"{ 	c #DFD987",
"] 	c #BFBA73",
"^ 	c #ADA869",
"/ 	c #AEAA69",
"( 	c #66633D",
"_ 	c #E3DD8A",
": 	c #B5B06D",
"< 	c #14200E",
"[ 	c #242215",
"} 	c #E2DD8A",
"| 	c #D9D484",
"1 	c #7E7C4B",
"2 	c #080908",
"3 	c #A8A865",
"4 	c #E0DB89",
"5 	c #D7D282",
"6 	c #34351E",
"7 	c #0E0D08",
"8 	c #352D09",
"9 	c #314010",
"0 	c #244C17",
"a 	c #204E18",
"b 	c #1E4B17",
"c 	c #1F4C17",
"d 	c #345321",
"e 	c #C3C176",
"f 	c #DDD786",
"g 	c #9F9B5F",
"h 	c #0C0A08",
"i 	c #1F1708",
"j 	c #34340C",
"k 	c #2F4813",
"l 	c #225218",
"m 	c #1F4E18",
"n 	c #1E4C17",
"o 	c #1E4A16",
"p 	c #2F4111",
"q 	c #385C24",
"r 	c #BABA71",
"s 	c #B0AD6A",
"t 	c #0A1309",
"u 	c #090C08",
"v 	c #242315",
"w 	c #090808",
"x 	c #121409",
"y 	c #244A15",
"z 	c #215419",
"A 	c #1F4F18",
"B 	c #1D4916",
"C 	c #1F4D17",
"D 	c #3C3108",
"E 	c #354110",
"F 	c #325B1F",
"G 	c #1C4012",
"H 	c #12300E",
"I 	c #AEAB6A",
"J 	c #8F8B55",
"K 	c #32301D",
"L 	c #0B1A0A",
"M 	c #1B4715",
"N 	c #1E4D17",
"O 	c #215219",
"P 	c #23581A",
"Q 	c #22561A",
"R 	c #215319",
"S 	c #274B17",
"T 	c #3C4415",
"U 	c #3C2E08",
"V 	c #827C1B",
"W 	c #4A410C",
"X 	c #3A310A",
"Y 	c #344010",
"Z 	c #27390F",
"` 	c #A9A765",
" .	c #CAC67B",
"..	c #3B3F23",
"+.	c #0C1A0B",
"@.	c #0C1B0A",
"#.	c #1F4F17",
"$.	c #23591A",
"%.	c #245B1B",
"&.	c #245A1B",
"*.	c #2C5218",
"=.	c #594115",
"-.	c #543C14",
";.	c #772811",
">.	c #3A330A",
",.	c #5C5511",
"'.	c #45390A",
").	c #3A2E08",
"!.	c #352C08",
"~.	c #24360D",
"{.	c #A1A461",
"].	c #214E1B",
"^.	c #224F1C",
"/.	c #132F0F",
"(.	c #0B140A",
"_.	c #090E09",
":.	c #0D1F0B",
"<.	c #614115",
"[.	c #831E0F",
"}.	c #7A2510",
"|.	c #752911",
"1.	c #353F0F",
"2.	c #38360C",
"3.	c #3B3009",
"4.	c #3A2C07",
"5.	c #392906",
"6.	c #293E10",
"7.	c #1C4714",
"8.	c #1C4816",
"9.	c #194014",
"0.	c #153711",
"a.	c #0E200C",
"b.	c #0A1409",
"c.	c #080B08",
"d.	c #0B150A",
"e.	c #132E0F",
"f.	c #604215",
"g.	c #821E0F",
"h.	c #7F2110",
"i.	c #782511",
"j.	c #205318",
"k.	c #244F17",
"l.	c #275117",
"m.	c #2C390F",
"n.	c #30360D",
"o.	c #283A0E",
"p.	c #163E11",
"q.	c #194513",
"r.	c #194313",
"s.	c #173912",
"t.	c #11290E",
"u.	c #122D0F",
"v.	c #0F220D",
"w.	c #0F200D",
"x.	c #11280F",
"y.	c #183D13",
"z.	c #1D4A16",
"A.	c #495219",
"B.	c #7B2E11",
"C.	c #841D0F",
"D.	c #831D0F",
"E.	c #811E0F",
"F.	c #772711",
"G.	c #225619",
"H.	c #235A1A",
"I.	c #1F4D16",
"J.	c #1A4514",
"K.	c #184111",
"L.	c #1C4D14",
"M.	c #1D5015",
"N.	c #1C4C14",
"O.	c #1B4814",
"P.	c #1B4514",
"Q.	c #1B4414",
"R.	c #1A3E15",
"S.	c #183914",
"T.	c #122D10",
"U.	c #455118",
"V.	c #783212",
"W.	c #7F2911",
"X.	c #841C0F",
"Y.	c #821D0F",
"Z.	c #603313",
"`.	c #215619",
" +	c #1A4714",
".+	c #1D4E15",
"++	c #1D4A15",
"@+	c #1C4615",
"#+	c #1B4315",
"$+	c #1A3F15",
"%+	c #193914",
"&+	c #122B10",
"*+	c #233711",
"=+	c #5A4817",
"-+	c #802710",
";+	c #851D0F",
">+	c #851A0F",
",+	c #821F0F",
"'+	c #7C2310",
")+	c #593914",
"!+	c #26591B",
"~+	c #24591B",
"{+	c #1F5017",
"]+	c #153B10",
"^+	c #1A4813",
"/+	c #1D4C15",
"(+	c #1C4715",
"_+	c #1C4415",
":+	c #1B4515",
"<+	c #1A3D15",
"[+	c #11270F",
"}+	c #4E240E",
"|+	c #832110",
"1+	c #87180E",
"2+	c #851B0F",
"3+	c #811F0F",
"4+	c #652F12",
"5+	c #244617",
"6+	c #22531A",
"7+	c #235A1B",
"8+	c #225719",
"9+	c #215519",
"0+	c #1B4A14",
"a+	c #1D4D15",
"b+	c #1C4515",
"c+	c #1C4915",
"d+	c #1C4815",
"e+	c #163313",
"f+	c #55240F",
"g+	c #832010",
"h+	c #822110",
"i+	c #6C3112",
"j+	c #294016",
"k+	c #1D4717",
"l+	c #215119",
"m+	c #24591C",
"n+	c #24581C",
"o+	c #215318",
"p+	c #205118",
"q+	c #173F12",
"r+	c #194613",
"s+	c #1D4F15",
"t+	c #183A13",
"u+	c #0D1D0C",
"v+	c #132B10",
"w+	c #5C3712",
"x+	c #693814",
"y+	c #284116",
"z+	c #1B4216",
"A+	c #1E4A17",
"B+	c #225519",
"C+	c #1A4614",
"D+	c #174012",
"E+	c #1C4E14",
"F+	c #1B4314",
"G+	c #142D11",
"H+	c #10220E",
"I+	c #265219",
"J+	c #1C4417",
"K+	c #1D4616",
"L+	c #24571C",
"M+	c #184011",
"N+	c #1C4B15",
"O+	c #132F10",
"P+	c #0E1F0D",
"Q+	c #122A0E",
"R+	c #1F4C18",
"S+	c #1E4917",
"T+	c #173F11",
"U+	c #1C4C15",
"V+	c #184013",
"W+	c #0F240E",
"X+	c #0C190B",
"Y+	c #153311",
"Z+	c #1F4F19",
"`+	c #1E4B18",
" @	c #184012",
".@	c #1A4713",
"+@	c #1B4415",
"@@	c #1D4815",
"#@	c #173712",
"$@	c #11250F",
"%@	c #0E1D0D",
"&@	c #1F4D18",
"*@	c #1F4D19",
"=@	c #215418",
"-@	c #22571A",
";@	c #194512",
">@	c #1C4A15",
",@	c #122B0F",
"'@	c #10250E",
")@	c #0E1E0C",
"!@	c #183D12",
"~@	c #1E4817",
"{@	c #1F4B17",
"]@	c #1D4417",
"^@	c #1A4413",
"/@	c #184112",
"(@	c #10230D",
"_@	c #0C160A",
":@	c #1C4616",
"<@	c #173D12",
"[@	c #163D10",
"}@	c #163612",
"|@	c #205018",
"1@	c #153A10",
"2@	c #184412",
"3@	c #1A3E14",
"4@	c #142F11",
"5@	c #0F210D",
"6@	c #132C10",
"7@	c #1D4716",
"8@	c #1F4E17",
"9@	c #205418",
"0@	c #1D4E16",
"a@	c #1F3B11",
"b@	c #184212",
"c@	c #163112",
"d@	c #1E4916",
"e@	c #205017",
"f@	c #205218",
"g@	c #504214",
"h@	c #332D0D",
"i@	c #0F250B",
"j@	c #14380F",
"k@	c #1A4913",
"l@	c #143111",
"m@	c #1D4816",
"n@	c #1D4B15",
"o@	c #245218",
"p@	c #395218",
"q@	c #673C14",
"r@	c #7F2610",
"s@	c #7E1F0F",
"t@	c #70230F",
"u@	c #48240D",
"v@	c #173910",
"w@	c #153A0F",
"x@	c #1B4C14",
"y@	c #1B4B14",
"z@	c #163E10",
"A@	c #153710",
"B@	c #163811",
"C@	c #102A0E",
"D@	c #183B14",
"E@	c #365218",
"F@	c #3C5018",
"G@	c #6B3D14",
"H@	c #851F0F",
"I@	c #502A0F",
"J@	c #273C11",
"K@	c #153810",
"L@	c #12310E",
"M@	c #122F0F",
"N@	c #173B11",
"O@	c #194114",
"P@	c #364C16",
"Q@	c #693512",
"R@	c #7B2710",
"S@	c #861B0F",
"T@	c #831F0F",
"U@	c #6F3B14",
"V@	c #3C5519",
"W@	c #235719",
"X@	c #1B4615",
"Y@	c #87190F",
"Z@	c #83200F",
"`@	c #723913",
" #	c #544D18",
".#	c #295A1B",
"+#	c #205319",
"@#	c #173E11",
"##	c #183E12",
"$#	c #1E4B16",
"%#	c #831C0F",
"&#	c #7E210F",
"*#	c #802510",
"=#	c #674115",
"-#	c #2C591A",
";#	c #1D4B16",
">#	c #1B4614",
",#	c #194213",
"'#	c #7A240F",
")#	c #6F290F",
"!#	c #642C0F",
"~#	c #603411",
"{#	c #2B4A15",
"]#	c #1B4815",
"^#	c #173D11",
"/#	c #1A4414",
"(#	c #1E3C11",
"_#	c #203F12",
":#	c #1A4213",
"<#	c #1E4C16",
"[#	c #204F19",
"}#	c #214F1A",
"|#	c #173E12",
"1#	c #184113",
"                                                                                                                        ",
"                                                                                                                        ",
"                            . .                                                                                         ",
"                          . . . .                                                                                       ",
"                          . . . . . .                                                                                   ",
"                            . . . . . +                                                                                 ",
"                              . . . @ # $ %                                                                             ",
"                              . . & * = - %                                                                             ",
"                                ; > , ' ) ! ~ {                                                                         ",
"                                  { ] . . ^ / (                                                                         ",
"                                  _ : < . . . [ .                                                                       ",
"                                  } | 1 . . . . . 2                                                                     ",
"                                  3 4 5 6 . . . . . 7 8 9 0 a b c                                                       ",
"                                  d e f g 2 . . . . h i j k l m n c o                                                   ",
"                                  p q r s t u v . . . w x y z A B C C n                                                 ",
"                                  D E F G H I J K . . . . L M N O P Q R c S T                                           ",
"                                U V W X Y Z `  ...+.. . . 2 @.#.$.%.%.&.*.=.-.;.                                        ",
"                                >.,.'.U ).!.~.{.].^./.(.2 2 _.:.A z $.%.$.<.[.}.|.                                      ",
"                                %.1.2.3.4.5.6.7.8.9.0./.a.b.c.d.e.B R A %.f.[.g.h.i.                                    ",
"                                &.j.k.l.m.n.o.p.q.r.s.t.u.u.v.w.x.y.z.z A.B.C.D.E.F.                                    ",
"                                $.G.$.H.I.J.K.L.M.M.N.O.P.Q.R.S.x.T.8.U.V.W.X.D.Y.Z.                                    ",
"                              %.$.$.%.`. +K.L.M.M.M.M..+++@+#+$+%+&+*+=+-+;+>+,+'+)+!+                                  ",
"                              ~+&.&.H.{+]+^+M.M.M.M.M.M./+(+(+_+:+<+[+}+|+1+2+3+4+5+6+                                  ",
"                              7+8+P 9+q.]+0+M.M.M.M.M.M.a+(+@+b+c+d+e+w.f+g+h+i+j+k+l+                                  ",
"                            m+n+o+p+`.q+r+M.M.M.M.M.M.M.s+d+(+@+(+c+t+u+v+w+x+y+z+A+B+                                  ",
"                            ~+~+o+{+C+D+E+M.M.M.M.M.M.M..+d+(+(+(+s+F+G+H+@+I+J+K+C                                     ",
"                            L+&.z j.r.M+s+M.M.M.M.M.M.M.a+d+@+#+b+N+c+O+P+Q+R+J+S+m                                     ",
"                            %.%.&.G.T+D+L.M.M.M.M.M.M.M.M.N+N+@+(+U+V+W+X+Y+Z+K+c `+                                    ",
"                            %.%.P z  @.@M.M.M.M.M.M.M.M..+N+N++@@@(+#@$@%@Y+k+&@*@                                      ",
"                            %.%.=@-@r.;@M.M.M.M.M.M.M.M.a+>@/+_+@@(+,@'@)@!@~@{@]@                                      ",
"                            %.%.G.$.^@/@M.M.M.M.M.M.M.M.s+/++@_+(+z+G+(@_@:@C                                           ",
"                            %.%.&.%.%.<@[@M.M.M.M.M.M.N+c+(+b+(+b+}@v.u+t+c |@                                          ",
"                            %.%.%.%.%.-@1@2@M.M.M.M.M.:@b+d+c+N+3@4@5@6@7@8@                                            ",
"                            %.%.%.&.-@9@0@a@b@M.M.M.M.M..+s+M.Q.c@w.x.d@n                                               ",
"                            P $.P B+e@f@g@h@i@j@k@L.M.M.M.M.N+b@P+l@m@`+                                                ",
"                              n@f@o@p@q@r@s@t@u@v@w@x@y@z@A@B@C@D@b &@                                                  ",
"                              #.E@F@G@H@2+2+C.C.I@J@K@D+L@M@N@O@C O                                                     ",
"                              P@Q@R@g+g+S@S@g+T@U@V@W@`.b@C+X@n a                                                       ",
"                                g.Y.2+X.Y@X.Z@`@ #.#-@+#@###$#m                                                         ",
"                                  %#&#Y.X.X.*#=#-#;#r.>#P.N |@                                                          ",
"                                    ,#'#)#!#~#{#]#^#/#b &@O                                                             ",
"                                          (#_#:#$#/#<#[#}#                                                              ",
"                                            |#1#1#k+M                                                                   ",
"                                                                                                                        ",
"                                                                                                                        ",
"                                                                                                                        ",
"                                                                                                                        ",
"                                                                                                                        ",
"                                                                                                                        ",
"                                                                                                                        ",
"                                                                                                                        ",
"                                                                                                                        ",
"                                                                                                                        ",
"                                                                                                                        ",
"                                                                                                                        ",
"                                                                                                                        ",
"                                                                                                                        ",
"                                                                                                                        ",
"                                                                                                                        ",
"                                                                                                                        "};
