/* XPM */
static const char * enemy67[] = {
"60 60 386 2",
"  	c None",
". 	c #762811",
"+ 	c #7D2210",
"@ 	c #782611",
"# 	c #772711",
"$ 	c #3B4517",
"% 	c #22561A",
"& 	c #245A1B",
"* 	c #693312",
"= 	c #7C2210",
"- 	c #821D0F",
"; 	c #811D0F",
"> 	c #6C2D12",
", 	c #403C15",
"' 	c #1E4A17",
") 	c #204F18",
"! 	c #1F4C18",
"~ 	c #5B3D14",
"{ 	c #7B2811",
"] 	c #802210",
"^ 	c #812210",
"/ 	c #7F2210",
"( 	c #821E0F",
"_ 	c #7F2110",
": 	c #5E3213",
"< 	c #1D4716",
"[ 	c #1E4916",
"} 	c #1E4B18",
"| 	c #1E4A16",
"1 	c #4D4816",
"2 	c #5A4616",
"3 	c #7B2A11",
"4 	c #831F0F",
"5 	c #841E0F",
"6 	c #851A0F",
"7 	c #821F10",
"8 	c #752911",
"9 	c #2F4016",
"0 	c #1C4516",
"a 	c #1D4816",
"b 	c #1D4916",
"c 	c #1E4B16",
"d 	c #204F17",
"e 	c #23581A",
"f 	c #265A1B",
"g 	c #245B1B",
"h 	c #753513",
"i 	c #832010",
"j 	c #87190F",
"k 	c #851B0F",
"l 	c #543C15",
"m 	c #1C4317",
"n 	c #1D4717",
"o 	c #204E19",
"p 	c #1F4D17",
"q 	c #23591A",
"r 	c #215419",
"s 	c #215519",
"t 	c #5C4917",
"u 	c #7F2911",
"v 	c #841C0F",
"w 	c #851D0F",
"x 	c #822210",
"y 	c #723312",
"z 	c #215219",
"A 	c #1F4D19",
"B 	c #1E4717",
"C 	c #1E4C16",
"D 	c #23571A",
"E 	c #205218",
"F 	c #1F4F17",
"G 	c #365519",
"H 	c #674015",
"I 	c #7B1E0F",
"J 	c #682710",
"K 	c #722B11",
"L 	c #1B4314",
"M 	c #1C4716",
"N 	c #1E4B17",
"O 	c #1C4715",
"P 	c #193F14",
"Q 	c #1B4515",
"R 	c #333812",
"S 	c #221B0C",
"T 	c #0F1F0D",
"U 	c #0F210D",
"V 	c #10230D",
"W 	c #0F220C",
"X 	c #143010",
"Y 	c #1F4B16",
"Z 	c #204B16",
"` 	c #205118",
" .	c #1F4F18",
"..	c #183D12",
"+.	c #11290E",
"@.	c #132E10",
"#.	c #112A0F",
"$.	c #0F230E",
"%.	c #142F11",
"&.	c #163313",
"*.	c #163312",
"=.	c #153011",
"-.	c #153012",
";.	c #0F230D",
">.	c #0E1D0D",
",.	c #0D1D0C",
"'.	c #112A0E",
").	c #1C4515",
"!.	c #244815",
"~.	c #363B0E",
"{.	c #2C4D15",
"].	c #1A4414",
"^.	c #10280D",
"/.	c #080A08",
"(.	c #0B170A",
"_.	c #11270F",
":.	c #193914",
"<.	c #1B4216",
"[.	c #1C4915",
"}.	c #1C4615",
"|.	c #1C4815",
"1.	c #173A12",
"2.	c #11280F",
"3.	c #10240E",
"4.	c #0F220D",
"5.	c #1E4A18",
"6.	c #3B2C07",
"7.	c #372A07",
"8.	c #0F1309",
"9.	c #080808",
"0.	c #0A1409",
"a.	c #0D1F0C",
"b.	c #0E200D",
"c.	c #183813",
"d.	c #1A3D14",
"e.	c #1B4215",
"f.	c #1C4A15",
"g.	c #1D4C15",
"h.	c #1C4C15",
"i.	c #193B13",
"j.	c #0D1E0C",
"k.	c #12280F",
"l.	c #0C1A0B",
"m.	c #173913",
"n.	c #1D4616",
"o.	c #0E0E08",
"p.	c #211807",
"q.	c #0E0B08",
"r.	c #080908",
"s.	c #0C1D0B",
"t.	c #0E210D",
"u.	c #132F10",
"v.	c #1B4315",
"w.	c #1C4415",
"x.	c #163212",
"y.	c #193D14",
"z.	c #E8E28D",
"A.	c #0C190A",
"B.	c #122D0E",
"C.	c #1D4815",
"D.	c #1A4015",
"E.	c #173A13",
"F.	c #DFD988",
"G.	c #DED888",
"H.	c #BEB973",
"I.	c #3C3A23",
"J.	c #090E09",
"K.	c #122D0F",
"L.	c #13310F",
"M.	c #122C0F",
"N.	c #1A4413",
"O.	c #1D4B15",
"P.	c #193C14",
"Q.	c #132B0F",
"R.	c #143110",
"S.	c #205019",
"T.	c #D7D183",
"U.	c #DDD787",
"V.	c #DCD687",
"W.	c #C2BD76",
"X.	c #211F13",
"Y.	c #212013",
"Z.	c #1B3E16",
"`.	c #163912",
" +	c #194013",
".+	c #1C4C14",
"++	c #1D5015",
"@+	c #1D4F15",
"#+	c #1B4415",
"$+	c #1B4615",
"%+	c #173412",
"&+	c #215118",
"*+	c #4C4A2D",
"=+	c #B8B370",
"-+	c #D7D283",
";+	c #A19D61",
">+	c #312F1C",
",+	c #2A2918",
"'+	c #949259",
")+	c #ABA968",
"!+	c #214E1B",
"~+	c #184012",
"{+	c #1D4D15",
"]+	c #1D4E15",
"^+	c #122F0F",
"/+	c #183C13",
"(+	c #4E4C2E",
"_+	c #514F2F",
":+	c #13130D",
"<+	c #090C08",
"[+	c #34371E",
"}+	c #C9C57A",
"|+	c #BCBA72",
"1+	c #2E521E",
"2+	c #1A4713",
"3+	c #173B12",
"4+	c #163911",
"5+	c #1F4C17",
"6+	c #15140D",
"7+	c #3C3A22",
"8+	c #282717",
"9+	c #83814F",
"0+	c #545632",
"a+	c #32311D",
"b+	c #62623A",
"c+	c #34351E",
"d+	c #33371D",
"e+	c #12300E",
"f+	c #33461C",
"g+	c #29360D",
"h+	c #2D3A0E",
"i+	c #204011",
"j+	c #184412",
"k+	c #1C4E15",
"l+	c #183F12",
"m+	c #908C56",
"n+	c #C1BE76",
"o+	c #BDBA73",
"p+	c #C9C67B",
"q+	c #C5C278",
"r+	c #C0BC74",
"s+	c #A1A261",
"t+	c #234413",
"u+	c #393009",
"v+	c #3A2907",
"w+	c #3B2A06",
"x+	c #392D08",
"y+	c #193F11",
"z+	c #1C4E14",
"A+	c #0F260C",
"B+	c #163B11",
"C+	c #194213",
"D+	c #84814F",
"E+	c #D2CE80",
"F+	c #D2CD80",
"G+	c #CAC67B",
"H+	c #C7C479",
"I+	c #C3C177",
"J+	c #899253",
"K+	c #255A1B",
"L+	c #304713",
"M+	c #3C2C07",
"N+	c #3C2A06",
"O+	c #3A2B07",
"P+	c #2A3D10",
"Q+	c #194413",
"R+	c #1A4913",
"S+	c #153910",
"T+	c #1A4613",
"U+	c #1A4113",
"V+	c #173D12",
"W+	c #5C6937",
"X+	c #214A15",
"Y+	c #314010",
"Z+	c #3B2E07",
"`+	c #423308",
" @	c #3C2B07",
".@	c #2D4813",
"+@	c #235419",
"@@	c #1B4815",
"#@	c #163D11",
"$@	c #194613",
"%@	c #215418",
"&@	c #183E12",
"*@	c #193F13",
"=@	c #23521C",
"-@	c #39320A",
";@	c #493D0A",
">@	c #7F791A",
",@	c #3B2E08",
"'@	c #38340B",
")@	c #225318",
"!@	c #205418",
"~@	c #1A4514",
"{@	c #163C10",
"]@	c #15390F",
"^@	c #1F360F",
"/@	c #295218",
"(@	c #1F5118",
"_@	c #1E4919",
":@	c #3A3109",
"<@	c #3C2B06",
"[@	c #39350B",
"}@	c #255217",
"|@	c #215318",
"1@	c #22571A",
"2@	c #235A1A",
"3@	c #163E11",
"4@	c #1B4A14",
"5@	c #1C4D14",
"6@	c #153B10",
"7@	c #1B3710",
"8@	c #563010",
"9@	c #495119",
"0@	c #1A4313",
"a@	c #173C12",
"b@	c #173E12",
"c@	c #39360B",
"d@	c #304B14",
"e@	c #25581A",
"f@	c #235A1B",
"g@	c #225619",
"h@	c #194313",
"i@	c #174011",
"j@	c #184312",
"k@	c #1B4B14",
"l@	c #0E250B",
"m@	c #50190B",
"n@	c #801F0F",
"o@	c #841D0F",
"p@	c #7A2F12",
"q@	c #415419",
"r@	c #1D4C16",
"s@	c #163C11",
"t@	c #225519",
"u@	c #1E4D16",
"v@	c #1B4614",
"w@	c #173E11",
"x@	c #194512",
"y@	c #13350E",
"z@	c #2A3A10",
"A@	c #252A0C",
"B@	c #79200E",
"C@	c #822110",
"D@	c #634516",
"E@	c #205318",
"F@	c #1E4A19",
"G@	c #1F5017",
"H@	c #184112",
"I@	c #143710",
"J@	c #184013",
"K@	c #1F5117",
"L@	c #3A4715",
"M@	c #6F3111",
"N@	c #831F10",
"O@	c #802410",
"P@	c #3D4213",
"Q@	c #24591B",
"R@	c #772F12",
"S@	c #841B0F",
"T@	c #811E0F",
"U@	c #4D3611",
"V@	c #173C11",
"W@	c #173F12",
"X@	c #24581C",
"Y@	c #215619",
"Z@	c #285118",
"`@	c #663F14",
" #	c #831D0F",
".#	c #79230F",
"+#	c #183C11",
"@#	c #225719",
"##	c #275117",
"$#	c #3F5118",
"%#	c #832110",
"&#	c #801C0E",
"*#	c #7F210F",
"=#	c #3D3911",
"-#	c #4D4A16",
";#	c #7C2510",
">#	c #83190E",
",#	c #7F200F",
"'#	c #603311",
")#	c #484916",
"!#	c #722C11",
"~#	c #782510",
"                                                                                                                        ",
"                                                                                                                        ",
"                                                                                                                        ",
"                                                                                                                        ",
"                                                                                                                        ",
"                                                                                                                        ",
"                                                                                                                        ",
"                                                                                                                        ",
"                                                                                                                        ",
"                                                                                                                        ",
"                                                                                                                        ",
"                                                                                                                        ",
"                                                                                                                        ",
"                                                                                                                        ",
"                                            . + @ # $ % &                                                               ",
"                                        * . @ = - ; > , ' )                                                             ",
"                                      ! ~ { ] ^ / ( _ : < [ } %                                                         ",
"                                    | | 1 2 3 4 5 6 7 8 9 < 0 }                                                         ",
"                                a b c d e f g h i j k ^ l m a n o                                                       ",
"                              | | | p q & r s t u v w x y z [ a A B                                                     ",
"                            a | | C D g e E F G H x I J K L M | [ [                                                     ",
"                            c c p N e e O b P Q R S T U U V W X < [ p                                                   ",
"                          Y Z e `  .` ..+.@.#.$.%.&.*.=.-.;.>.,.'.).c z                                                 ",
"                          !.~.{.].^./.(.,._.%.:.<.[.}.|.[.1.2.3.U 4.[ 5.                                                ",
"                          6.7.8.9.9.0.a.b.c.d.e.O |.f.g.h.h.i.j.k.l.m.n.                                                ",
"                        o.p.q.9.9.r.s.t.u.e.v.}.).}.}.w.}.[.|.e.x.U $.y.'                                               ",
"              z.    9.r.r.9.9.9.r.A.B.b.1.}.O }.}.O O ).).O C.|.D.@.3.E.'                                               ",
"          z.F.G.H.I.9.9.9.9.9.9.J.K.L.M.N.O.O.f.|.|.|.O g.e.w.O }.P.Q.R.a S.                                            ",
"        T.U.G.V.W.9.9.9.9.9.X.Y.Z.n `. +.+++++@+++h.[.[.h.O.O #+|.$+%+$.< &+                                            ",
"    9.*+=+-+U.;+>+9.9.9.9.,+'+)+!+} ~+++++++++++++++@+++{+[.g.).}.]+h.^+/+|                                             ",
"  9.9.9.(+_+:+9.9.9.9.9.<+[+}+|+1+N.2+++++++++++++++++++@+]+{+}.[.@+h.3+4+b 5+                                          ",
"9.9.9.9.6+7+8+9+0+a+b+c+d+e+f+g+h+i+j+++++++++++++++++++++++{+).[.++k+4.l+|.5+                                          ",
"9.9.9.9.9.m+n+o+n+p+q+r+s+t+u+v+w+x+y+z+++++++++++++++++++++++M ]+++2+A+B+C+b r                                         ",
"9.9.9.9.9.D+E+F+G+H+I+J+K+L+M+N+O+P+Q+2+@+++++++++++++++++++++++++++R+S+T+U+V+`                                         ",
"9.9.              W+X+Y+Z+`+N+ @.@+@@@#@$@@+++++++++++++++++++++++++j+h.%@ +&@*@=@                                      ",
"                      -@;@>@,@'@)@e !@~@{@2+++++++++++++++++++++R+]@^@/@(@U+&@V+_@                                      ",
"                        :@<@[@}@|@1@2@s ~@3@4@++++++++++++++++5@6@7@8@9@g 0@..a@b@                                      ",
"                          c@d@e@f@e g@1@s h@i@j@4@++++++++k@j@l@m@n@o@p@q@r@s@V+V+                                      ",
"                              g g & t@|@E u@v@6@w@x@++j+y@B+z@A@B@5 5 C@D@E@&@B+F@                                      ",
"                                  & & e E G@g@E @@H@I@J@u@K@L@M@5 k N@o@O@P@&@C+                                        ",
"                                      Q@& 1@q e g@E@1@g & s E R@S@k k v T@U@V@W@                                        ",
"                                      X@& Q@g & |@Y@& g g r Z@`@5 o@k  #.#+#s@                                          ",
"                                            g g g & & g g @###$#%#v &#*#=#                                              ",
"                                              g g g g g & g@g@-#;#>#,#'#                                                ",
"                                                      g 2@1@|@)#!#~#                                                    ",
"                                                              G@                                                        ",
"                                                                                                                        ",
"                                                                                                                        ",
"                                                                                                                        ",
"                                                                                                                        ",
"                                                                                                                        ",
"                                                                                                                        ",
"                                                                                                                        ",
"                                                                                                                        ",
"                                                                                                                        ",
"                                                                                                                        ",
"                                                                                                                        ",
"                                                                                                                        ",
"                                                                                                                        ",
"                                                                                                                        "};
