/* XPM */
static const char * enemy5[] = {
"60 60 295 2",
"  	c None",
". 	c #1D4417",
"+ 	c #215219",
"@ 	c #215319",
"# 	c #1C4417",
"$ 	c #1E4A18",
"% 	c #204F19",
"& 	c #245B1B",
"* 	c #22561A",
"= 	c #22571A",
"- 	c #22541B",
"; 	c #23511D",
"> 	c #1E4918",
", 	c #1D4617",
"' 	c #1C4316",
") 	c #193D14",
"! 	c #11270F",
"~ 	c #11290F",
"{ 	c #142F11",
"] 	c #183B14",
"^ 	c #1B4216",
"/ 	c #1A4515",
"( 	c #1B4615",
"_ 	c #173D11",
": 	c #1B4414",
"< 	c #1C4615",
"[ 	c #1F4D18",
"} 	c #1B4714",
"| 	c #1F4B1A",
"1 	c #1F4D19",
"2 	c #1B4116",
"3 	c #194013",
"4 	c #0B120A",
"5 	c #090E09",
"6 	c #0C1A0B",
"7 	c #0E1F0D",
"8 	c #10240E",
"9 	c #0E1E0C",
"0 	c #0D1C0C",
"a 	c #112D0E",
"b 	c #163911",
"c 	c #1C4B15",
"d 	c #173F12",
"e 	c #173E11",
"f 	c #1C4915",
"g 	c #163B10",
"h 	c #173D12",
"i 	c #163B11",
"j 	c #1A4514",
"k 	c #245A1B",
"l 	c #1C4317",
"m 	c #21541A",
"n 	c #142F10",
"o 	c #132C10",
"p 	c #0F200D",
"q 	c #11260E",
"r 	c #153312",
"s 	c #193914",
"t 	c #1D5015",
"u 	c #1A4414",
"v 	c #0F210D",
"w 	c #0B160A",
"x 	c #163E10",
"y 	c #23591B",
"z 	c #163C11",
"A 	c #183F12",
"B 	c #1B4016",
"C 	c #1C4216",
"D 	c #122A0E",
"E 	c #0B140A",
"F 	c #0E1E0D",
"G 	c #11260F",
"H 	c #0D1D0C",
"I 	c #1B3E16",
"J 	c #1B4316",
"K 	c #1C4515",
"L 	c #1D4D15",
"M 	c #13340E",
"N 	c #153A10",
"O 	c #205518",
"P 	c #235A1A",
"Q 	c #194113",
"R 	c #3F3E16",
"S 	c #712911",
"T 	c #712811",
"U 	c #752911",
"V 	c #723613",
"W 	c #763413",
"X 	c #1E4C16",
"Y 	c #12280F",
"Z 	c #0F240E",
"` 	c #1C4415",
" .	c #1C4A15",
"..	c #1D4915",
"+.	c #1C4715",
"@.	c #0E250B",
"#.	c #375519",
"$.	c #564C18",
"%.	c #604716",
"&.	c #723914",
"*.	c #7B2C11",
"=.	c #5B2F0F",
"-.	c #173C11",
";.	c #1C4217",
">.	c #7A2110",
",.	c #7E2010",
"'.	c #792B11",
").	c #87180F",
"!.	c #88140E",
"~.	c #7E2A11",
"{.	c #163412",
"].	c #0D1B0C",
"^.	c #153012",
"/.	c #1D4815",
"(.	c #1B4215",
"_.	c #1C4815",
":.	c #2C2B0E",
"<.	c #851D0F",
"[.	c #7B2F12",
"}.	c #832110",
"|.	c #83170E",
"1.	c #652F12",
"2.	c #811D0F",
"3.	c #7C2210",
"4.	c #86160F",
"5.	c #89130E",
"6.	c #822410",
"7.	c #841E0F",
"8.	c #7E2911",
"9.	c #861A0F",
"0.	c #87190F",
"a.	c #782610",
"b.	c #184112",
"c.	c #5B3614",
"d.	c #85180F",
"e.	c #802711",
"f.	c #0B150A",
"g.	c #1B4015",
"h.	c #080B08",
"i.	c #802410",
"j.	c #861B0F",
"k.	c #7B1E0E",
"l.	c #194213",
"m.	c #3E3C15",
"n.	c #712F12",
"o.	c #851C0F",
"p.	c #7C2D11",
"q.	c #793112",
"r.	c #564A17",
"s.	c #183814",
"t.	c #1D4E15",
"u.	c #802710",
"v.	c #842010",
"w.	c #88120E",
"x.	c #7D1C0E",
"y.	c #3F3F16",
"z.	c #5D3F14",
"A.	c #1E4E17",
"B.	c #0E200D",
"C.	c #3C300E",
"D.	c #723512",
"E.	c #822110",
"F.	c #851F0F",
"G.	c #84180E",
"H.	c #772710",
"I.	c #3F4315",
"J.	c #783212",
"K.	c #23581A",
"L.	c #1D4916",
"M.	c #183B13",
"N.	c #1D4D16",
"O.	c #205218",
"P.	c #415218",
"Q.	c #225619",
"R.	c #703112",
"S.	c #702E11",
"T.	c #1F4C18",
"U.	c #1E4B16",
"V.	c #23571A",
"W.	c #173912",
"X.	c #173613",
"Y.	c #1B4115",
"Z.	c #0F290C",
"`.	c #205318",
" +	c #215519",
".+	c #1F5017",
"++	c #205017",
"@+	c #215318",
"#+	c #1D4716",
"$+	c #132E10",
"%+	c #193B14",
"&+	c #23591A",
"*+	c #1C4814",
"=+	c #090F09",
"-+	c #1A4214",
";+	c #1D4B15",
">+	c #13330F",
",+	c #1D4816",
"'+	c #1E4A16",
")+	c #080808",
"!+	c #0E210C",
"~+	c #10260E",
"{+	c #153B10",
"]+	c #1F5118",
"^+	c #0A1409",
"/+	c #0F260D",
"(+	c #1A4713",
"_+	c #194613",
":+	c #22581A",
"<+	c #1F4E18",
"[+	c #080A08",
"}+	c #153410",
"|+	c #122F0F",
"1+	c #173813",
"2+	c #225519",
"3+	c #1F4C17",
"4+	c #225719",
"5+	c #184212",
"6+	c #194413",
"7+	c #274F17",
"8+	c #383A0D",
"9+	c #21501B",
"0+	c #153C10",
"a+	c #173F11",
"b+	c #163D11",
"c+	c #205118",
"d+	c #215419",
"e+	c #234A16",
"f+	c #39390C",
"g+	c #190E07",
"h+	c #090D09",
"i+	c #23531D",
"j+	c #234413",
"k+	c #352F09",
"l+	c #1B4915",
"m+	c #1B4815",
"n+	c #1E5017",
"o+	c #393109",
"p+	c #1B1408",
"q+	c #4C492C",
"r+	c #B4B36E",
"s+	c #1B390F",
"t+	c #352E08",
"u+	c #3B2605",
"v+	c #2C350D",
"w+	c #215418",
"x+	c #24571C",
"y+	c #090B08",
"z+	c #49472A",
"A+	c #DBD686",
"B+	c #253B10",
"C+	c #362A07",
"D+	c #3D2505",
"E+	c #39340A",
"F+	c #080908",
"G+	c #0C1E0A",
"H+	c #373C0E",
"I+	c #3B3209",
"J+	c #3E2605",
"K+	c #2F4111",
"L+	c #0A1309",
"M+	c #285117",
"N+	c #3A330A",
"O+	c #3C2C07",
"P+	c #36380D",
"Q+	c #D1CD7F",
"R+	c #3A340A",
"S+	c #999221",
"T+	c #67643D",
"U+	c #868850",
"V+	c #DAD584",
"W+	c #3B2F08",
"X+	c #364010",
"Y+	c #E8E28D",
"Z+	c #DAD585",
"`+	c #BDB873",
" @	c #DFDA88",
".@	c #1E4D16",
"+@	c #304111",
"@@	c #E2DC8A",
"#@	c #DFD988",
"$@	c #102B0D",
"%@	c #DCD786",
"&@	c #C0BD74",
"*@	c #1A4413",
"=@	c #E5DF8B",
"-@	c #524F30",
";@	c #CDC77C",
">@	c #C5C078",
",@	c #68653D",
"'@	c #CAC47A",
")@	c #9E9A5F",
"!@	c #64613B",
"~@	c #C1BC75",
"{@	c #B1AD6B",
"                                                                                                                        ",
"                                                                                                                        ",
"                                                                                                                        ",
"                                                                                                                        ",
"                                                                                                                        ",
"                                                                                                                        ",
"                                                                                                                        ",
"                                                                                                                        ",
"                                                                                                                        ",
"                                                                                                                        ",
"                                                                                                                        ",
"                                                                                                                        ",
"                                                                                                                        ",
"                                                                                                                        ",
"                                                                                                                        ",
"                                                                                                                        ",
"                                                                                                                        ",
"                                                                                                                        ",
"                                                                                                                        ",
"                                                                                                                        ",
"                                                                                                                        ",
"                                                                                                                        ",
"                                          .   + @ + # # $ % % & % % % * = - ; ;                                         ",
"                                    * > % % , , , ' ) ! ~ { ] ^ / ( ( _ : < [ * } |                                     ",
"                                & 1 2 2 2 # , 3 4 5 6 7 8 9 0 0 a b c d e f g g h i j                                   ",
"                              k l 2 ' # , m n 0 7 o p q r s s t u v w x & y } e z : A d                                 ",
"                            & 2 B C 2 l & D E F G H I J K f L t t t M N O & & & P } Q z                                 ",
"                            R S T U V W X Y 0 Z { `  ...+.+.< L t t t t @.#.$.%.&.*.=.-.                                ",
"                          ;.>.,.'.).!.~.{.].^.< t  ./.< B (.< (._.t t t M :.<.~.[.}.|.g                                 ",
"                          1.2.3.4.5.!.6.p H s t  .< +.(.L L L  .B t t t N N 7.8.}.9.0.a.b.                              ",
"                          c.d.6.7.e.<.}.f.^.(.t < g.< t _._.t t t t t t t h.i.).5.j.).k.l.                              ",
"                          m.n.o.p.q.q.r.0 s.L +.< _.< _.t t.t t t t t t t @.@.u.!.v.6.w.x.                              ",
"                          y.<.z.& & & A.B.I  .K < +._._.t t t t t t t t t N C.D.E.F.}.G.H.                              ",
"                          I.J.K.& L.X M.B.s ` K < +.f t t t t t t t t t t N N.O.O.P.Q.R.S.                              ",
"                          T.U.V.& Q.@ W.B.X.Y.+.< _.t t t t t t t t t t t Z.`. +.+++@+Q..+                              ",
"                            #+& & & +.$+F %+B < +.t.t t t t t t t t t t t Z.& & k &+O.*+                                ",
"                            L.@ & & V.=+H v -+< ;+t t t t t t t t t t t t >+& & & & Q.O.                                ",
"                            ,+'+V.V.& )+!+0 ~+-+L t t t t t t t t t t t {+N & & & & &                                   ",
"                            ,+,+L.,+]+)+^+/+0 v (+t t t t t t t t t _+N d :+ +Q.& &                                     ",
"                              L.<+O.A.)+)+[+}+|+1+t t t t t t t t _+g {+Q.2+@+& &                                       ",
"                              ,+3+K.4+)+)+)+6 h i 5+t t t t _+N N N 6+O.& & & &                                         ",
"                                <+7+8+)+)+)+)+; 9+l.0+a+a+a+N b+ .:+c+.+d+& & &                                         ",
"                                  e+f+g+)+)+)+h+i+N.j+k+l+m+n+& & O..+@+& ;                                             ",
"                                    o+p+)+)+)+q+r+s+t+u+v+& &+&+Q.2+w+x+;                                               ",
"                                      y+)+)+)+z+A+B+C+D+E+Q.c+.+O.Q.k                                                   ",
"                                      F+)+)+)+)+G+z H+I+J+K+.+w+& &                                                     ",
"                                      )+)+)+)+)+L+N M+N+O+P+& &                                                         ",
"                                      )+)+)+)+)+)+Q+& R+S+E+&                                                           ",
"                                      T+)+)+)+)+U+V+d+E+W+X+                                                            ",
"                                    Y+Z+`+)+)+)+ @ @.@+@                                                                ",
"                                      @@#@)+)+$@%@&@*@                                                                  ",
"                                    Y+=@@@)+)+-@Y+                                                                      ",
"                                    Y+;@>@)+,@'@Y+                                                                      ",
"                                      )@!@)+~@{@                                                                        ",
"                                      )+)+)+)+)+                                                                        ",
"                                      )+)+)+)+)+                                                                        ",
"                                      )+)+)+)+                                                                          ",
"                                        )+)+)+                                                                          ",
"                                        )+)+)+                                                                          ",
"                                        )+)+)+                                                                          "};
