/* XPM */
static const char * enemy45[] = {
"60 60 390 2",
"  	c None",
". 	c #23521C",
"+ 	c #204B1B",
"@ 	c #1F4A19",
"# 	c #1D4817",
"$ 	c #1E4A19",
"% 	c #1E4A18",
"& 	c #1D4517",
"* 	c #1E4B18",
"= 	c #1B4216",
"- 	c #163B11",
"; 	c #194313",
"> 	c #173F12",
", 	c #1F4C18",
"' 	c #1D4718",
") 	c #1D4717",
"! 	c #1C4516",
"~ 	c #1B4414",
"{ 	c #1C4715",
"] 	c #194113",
"^ 	c #163C10",
"/ 	c #163D11",
"( 	c #194013",
"_ 	c #1A4213",
": 	c #1D4A15",
"< 	c #194413",
"[ 	c #1F4D19",
"} 	c #1D4617",
"| 	c #1C4716",
"1 	c #1B4615",
"2 	c #194213",
"3 	c #1D4B16",
"4 	c #1E4D16",
"5 	c #1A4513",
"6 	c #1D4C16",
"7 	c #205318",
"8 	c #3D4213",
"9 	c #3B4715",
"0 	c #215318",
"a 	c #1E4818",
"b 	c #1B4416",
"c 	c #183C13",
"d 	c #153610",
"e 	c #173C11",
"f 	c #194513",
"g 	c #235A1A",
"h 	c #235A1B",
"i 	c #245B1B",
"j 	c #415419",
"k 	c #634516",
"l 	c #7A2E12",
"m 	c #7E200F",
"n 	c #7D2710",
"o 	c #752C11",
"p 	c #215219",
"q 	c #1B4116",
"r 	c #1A3E15",
"s 	c #183B14",
"t 	c #122A0F",
"u 	c #0F230E",
"v 	c #112A0E",
"w 	c #122D0F",
"x 	c #0F220D",
"y 	c #0F260C",
"z 	c #153910",
"A 	c #1C4C15",
"B 	c #295218",
"C 	c #495119",
"D 	c #684115",
"E 	c #773413",
"F 	c #7F2811",
"G 	c #861A0F",
"H 	c #831D0F",
"I 	c #633211",
"J 	c #215119",
"K 	c #1C4317",
"L 	c #193B14",
"M 	c #10240E",
"N 	c #132B0F",
"O 	c #11260E",
"P 	c #183F12",
"Q 	c #1C4E15",
"R 	c #1A4713",
"S 	c #1A4913",
"T 	c #184412",
"U 	c #1F360F",
"V 	c #4A3310",
"W 	c #841F0F",
"X 	c #7E2911",
"Y 	c #832110",
"Z 	c #87190F",
"` 	c #851A0F",
" .	c #7D210F",
"..	c #1E4717",
"+.	c #1C4417",
"@.	c #1B4016",
"#.	c #0C1A0B",
"$.	c #10250E",
"%.	c #132D10",
"&.	c #1D4E15",
"*.	c #1D4F15",
"=.	c #1D5015",
"-.	c #15390F",
";.	c #1B3710",
">.	c #75260F",
",.	c #88170F",
"'.	c #841F10",
").	c #83190E",
"!.	c #782510",
"~.	c #204E19",
"{.	c #1C4316",
"].	c #0F210D",
"^.	c #11250E",
"/.	c #11270E",
"(.	c #1A4015",
"_.	c #1C4615",
":.	c #1C4815",
"<.	c #1C4915",
"[.	c #153B10",
"}.	c #50190B",
"|.	c #6E230E",
"1.	c #83220F",
"2.	c #86190F",
"3.	c #84200F",
"4.	c #7C2510",
"5.	c #722C11",
"6.	c #22561A",
"7.	c #143010",
"8.	c #0D1D0C",
"9.	c #0F230D",
"0.	c #0D1E0C",
"a.	c #1B4215",
"b.	c #1B4415",
"c.	c #1C4515",
"d.	c #1C4D14",
"e.	c #0E250B",
"f.	c #252A0C",
"g.	c #6F3111",
"h.	c #772F12",
"i.	c #663F14",
"j.	c #3F5118",
"k.	c #4D4A16",
"l.	c #484916",
"m.	c #1F5017",
"n.	c #0F220C",
"o.	c #0E200D",
"p.	c #193B13",
"q.	c #1D4815",
"r.	c #1C4415",
"s.	c #1D4C15",
"t.	c #1D4D15",
"u.	c #184312",
"v.	c #2A3A10",
"w.	c #3A4715",
"x.	c #205218",
"y.	c #285118",
"z.	c #275117",
"A.	c #1F4E16",
"B.	c #23571A",
"C.	c #1F4E19",
"D.	c #1C4216",
"E.	c #1B4314",
"F.	c #10230D",
"G.	c #132D0F",
"H.	c #1D4B15",
"I.	c #1B4B14",
"J.	c #1F5117",
"K.	c #215519",
"L.	c #215419",
"M.	c #225719",
"N.	c #23581A",
"O.	c #245A1B",
"P.	c #22541A",
"Q.	c #2F4016",
"R.	c #543C15",
"S.	c #633D14",
"T.	c #132B10",
"U.	c #183D12",
"V.	c #13350E",
"W.	c #24591B",
"X.	c #23591B",
"Y.	c #3D4216",
"Z.	c #5E3213",
"`.	c #752911",
" +	c #7C2B11",
".+	c #7E2A11",
"++	c #422F11",
"@+	c #11280F",
"#+	c #1A4414",
"$+	c #184013",
"%+	c #3B4517",
"&+	c #6C2D12",
"*+	c #772811",
"=+	c #812110",
"-+	c #88150E",
";+	c #851D0F",
">+	c #68220F",
",+	c #0F1F0D",
"'+	c #163312",
")+	c #1C4A15",
"!+	c #143710",
"~+	c #22571A",
"{+	c #543714",
"]+	c #7C2010",
"^+	c #7E2110",
"/+	c #85180F",
"(+	c #861B0F",
"_+	c #822210",
":+	c #221B0C",
"<+	c #163313",
"[+	c #194512",
"}+	c #184112",
"|+	c #583514",
"1+	c #811D0F",
"2+	c #7F2210",
"3+	c #841E0F",
"4+	c #802711",
"5+	c #7E2B11",
"6+	c #674015",
"7+	c #333812",
"8+	c #142F11",
"9+	c #1B4A14",
"0+	c #173E11",
"a+	c #1B4815",
"b+	c #225619",
"c+	c #5F3313",
"d+	c #772611",
"e+	c #812210",
"f+	c #812410",
"g+	c #753513",
"h+	c #5C4917",
"i+	c #365519",
"j+	c #1B4515",
"k+	c #193914",
"l+	c #513814",
"m+	c #782B11",
"n+	c #6B3813",
"o+	c #1F4F17",
"p+	c #193F14",
"q+	c #112A0F",
"r+	c #1A3D14",
"s+	c #1B4315",
"t+	c #174011",
"u+	c #1B4614",
"v+	c #23591A",
"w+	c #3F3E16",
"x+	c #5A4616",
"y+	c #265A1B",
"z+	c #1D4916",
"A+	c #132E10",
"B+	c #11270F",
"C+	c #183813",
"D+	c #163E11",
"E+	c #23561C",
"F+	c #563F14",
"G+	c #4D4816",
"H+	c #11290E",
"I+	c #132F10",
"J+	c #173A12",
"K+	c #1A4413",
"L+	c #1C4C14",
"M+	c #194613",
"N+	c #1A4514",
"O+	c #23581B",
"P+	c #23571C",
"Q+	c #204F18",
"R+	c #0B170A",
"S+	c #0D1F0C",
"T+	c #0E210D",
"U+	c #122C0F",
"V+	c #1C4E14",
"W+	c #205118",
"X+	c #080A08",
"Y+	c #0A1409",
"Z+	c #0C1D0B",
"`+	c #122D0E",
" @	c #163C11",
".@	c #173D11",
"+@	c #1B4715",
"@@	c #1F5218",
"#@	c #225519",
"$@	c #1E4B17",
"%@	c #1F4F18",
"&@	c #112B0E",
"*@	c #080908",
"=@	c #0C190A",
"-@	c #13300F",
";@	c #1C4616",
">@	c #1D4917",
",@	c #243E10",
"'@	c #353009",
")@	c #244112",
"!@	c #235419",
"~@	c #23561A",
"{@	c #080808",
"]@	c #090E09",
"^@	c #1B3E16",
"/@	c #214E1B",
"(@	c #2E521E",
"_@	c #37340B",
":@	c #3A2F08",
"<@	c #372F09",
"[@	c #2D4813",
"}@	c #235619",
"|@	c #215619",
"1@	c #2C4D15",
"2@	c #131809",
"3@	c #212013",
"4@	c #787948",
"5@	c #929358",
"6@	c #29360D",
"7@	c #3A2F09",
"8@	c #3B2F08",
"9@	c #3B3009",
"0@	c #2F4211",
"a@	c #22551A",
"b@	c #245519",
"c@	c #2F4613",
"d@	c #2B2A0A",
"e@	c #140C07",
"f@	c #211F13",
"g@	c #64613B",
"h@	c #D7D283",
"i@	c #33461C",
"j@	c #37360C",
"k@	c #3B3109",
"l@	c #3B2F09",
"m@	c #38350B",
"n@	c #26581A",
"o@	c #265118",
"p@	c #37320A",
"q@	c #1A1408",
"r@	c #2A2918",
"s@	c #34371E",
"t@	c #12300E",
"u@	c #234413",
"v@	c #353F10",
"w@	c #43390B",
"x@	c #716B16",
"y@	c #363E0F",
"z@	c #0E0E08",
"A@	c #090C08",
"B@	c #33371D",
"C@	c #A1A261",
"D@	c #255A1B",
"E@	c #3B3209",
"F@	c #42380B",
"G@	c #3A330A",
"H@	c #34351E",
"I@	c #C0BC74",
"J@	c #899253",
"K@	c #304211",
"L@	c #3A320A",
"M@	c #62623A",
"N@	c #C5C278",
"O@	c #C2C076",
"P@	c #214A15",
"Q@	c #3C3A23",
"R@	c #32311D",
"S@	c #DAD585",
"T@	c #CAC67A",
"U@	c #5C6937",
"V@	c #A4A063",
"W@	c #AEA969",
"X@	c #2B2A19",
"Y@	c #0D220B",
"Z@	c #B2AF6C",
"`@	c #DDD886",
" #	c #E8E28D",
".#	c #E0DB89",
"+#	c #DBD586",
"@#	c #737044",
"##	c #19180F",
"$#	c #9B965D",
"%#	c #E4DE8A",
"&#	c #B1AC6B",
"*#	c #13130D",
"=#	c #282717",
"-#	c #BBB671",
";#	c #D6D182",
">#	c #DCD686",
",#	c #C9C47A",
"'#	c #36351F",
")#	c #A5A164",
"!#	c #84814F",
"~#	c #D1CB7F",
"{#	c #9A965D",
"]#	c #2E2C1B",
"^#	c #15140D",
"/#	c #4C4A2D",
"                                                                                                                        ",
"                                                                                                                        ",
"                                                                                                                        ",
"                                                                                                                        ",
"                                                                                                                        ",
"                                                                                                                        ",
"                                                                                                                        ",
"                                                                                                                        ",
"                                                                                                                        ",
"                                                                                                                        ",
"                                                                                                                        ",
"                                                                                                                        ",
"                                                                                                                        ",
"                                                                                                                        ",
"                                                                                                                        ",
"                                                                                                                        ",
"                                                                                                                        ",
"                                                                                                                        ",
"                                                                                                                        ",
"                                                                    . + @ # $                                           ",
"                                                                % % & * * = - ; >                                       ",
"                                                          , ' ) ! ~ { ] ^ / ( _ : <                                     ",
"                                                      % [ } | 1 2 > 3 4 5 6 7 8 9 0                                     ",
"                                                  a } b = c d e - f g h i j k l m n o                                   ",
"                                            p % q r s t u v w x y z A B C D E F G G H I                                 ",
"                                          J , K L u M N O P A Q R S T U V W X Y Z Z `  .                                ",
"                                      ..+.+.@.x #.x $.%.1 &.*.=.=.=.=.-.;.>.Y ,.Z '.G ).!.                              ",
"                                    ~.} +.{.v ].^./.(._.:._.<.<.&.=.=.S [.}.|.1.2.3.Y 4.5.                              ",
"                                6.* K K # 7.8.9.0.a.:.{ b.c._.c.| =.=.=.d.e.f.g.h.i.j.k.l.m.                            ",
"                                J p ' +.| n.o.M p.:.q.r.{ s.t.t.=.=.=.=.=.u.v.w.x.y.z.0 A.                              ",
"                              B.C.D.K p E.F.x G.A <.{ a.H.<.&.=.=.=.=.=.=.I.- J.K.L.M.L.N.                              ",
"                            O.P.q Q.R.S.E.].T.U.A _.c.s.A t.*.=.=.=.=.=.=.=.V.4 O.i i O.W.                              ",
"                            X.Y.Z.`. +.+++].@+#+s.r.c.{ <.=.=.=.=.=.=.=.=.=.T $+i i i O.i                               ",
"                            %+&+*+=+-+;+>+,+'+_.)+_.{ :.<.*.=.=.=.=.=.=.=.=.=.!+~+O.O.O.                                ",
"                            {+]+^+/+Z (+_+:+<+<.:._.{ :.A =.=.=.=.=.=.=.=.=.[+}+7 ~+O.O.                                ",
"                            |+1+2+3+4+5+6+7+8+= { c._.:.=.=.=.=.=.=.=.=.=.9+0+a+b+N.O.                                  ",
"                            c+d+e+f+g+h+i+j+u k+a._._.)+*.=.=.=.=.=.=.=.=.u.[.x.N.O.O.i                                 ",
"                              l+m+n+i K.o+p+q+8+r+s+{ H.=.=.=.=.=.=.=.=.9+t+u+b+v+O.i                                   ",
"                              w+m+x+y+L.x.z+A+B+C+a._.H.=.=.=.=.=.=.*.R D+; 4 m.N.E+                                    ",
"                                F+G+N.O.N.{ H+8.o.I+J+K+L+=.=.=.=.*.M+^ N+K.x.x.O+P+                                    ",
"                                , Q+N.i i N.U.R+S+T+o.U+( =.=.=.V+u./ ; K.~+0 L.W.                                      ",
"                                  N.6.~+W.N.W+X+Y+Z+`+z  @0+}+t+.@> +@@@g b+#@v+O.                                      ",
"                                  X.6.#@b+$@%@&@*@*@=@-@;@>@; ,@'@)@!@N.L.x.v+O.                                        ",
"                                    ~@b+#@b+x.#+{@{@*@]@^@/@(@_@:@<@[@}@N.|@O.                                          ",
"                                      X.B.6.N.1@2@{@{@{@3@4@5@6@7@8@9@0@N.O.O.                                          ",
"                                        a@B.b@c@d@e@{@{@f@g@h@i@j@k@l@m@n@O.                                            ",
"                                          N.B.o@p@q@{@{@{@r@s@t@u@v@w@x@y@                                              ",
"                                                  z@*@{@{@{@A@B@C@D@E@F@G@                                              ",
"                                                    *@{@{@{@{@H@I@J@K@L@                                                ",
"                                                    {@{@{@{@{@M@N@O@P@                                                  ",
"                                                      Q@{@{@{@R@S@T@U@                                                  ",
"                                                      V@W@X@{@Y@Z@`@                                                    ",
"                                                     #.#+#@#{@##$# #                                                    ",
"                                                        %#&#*#=#-#;#                                                    ",
"                                                       #>#,#'#Q@)#!#                                                    ",
"                                                        ~#{#]#^#{@{@                                                    ",
"                                                          /#{@{@{@{@                                                    ",
"                                                          {@{@{@{@{@                                                    ",
"                                                            {@{@{@{@                                                    ",
"                                                              {@{@{@{@                                                  "};
