/* XPM */
static const char * enemy7[] = {
"60 60 295 2",
"  	c None",
". 	c #1F4C18",
"+ 	c #3F4315",
"@ 	c #3F3F16",
"# 	c #3E3C15",
"$ 	c #5B3614",
"% 	c #652F12",
"& 	c #1C4217",
"* 	c #1D4816",
"= 	c #1D4916",
"- 	c #1D4716",
"; 	c #1E4B16",
"> 	c #783212",
", 	c #851D0F",
"' 	c #712F12",
") 	c #85180F",
"! 	c #811D0F",
"~ 	c #7A2110",
"{ 	c #3F3E16",
"] 	c #245B1B",
"^ 	c #1E4A16",
"/ 	c #215319",
"( 	c #23571A",
"_ 	c #23581A",
": 	c #5D3F14",
"< 	c #851C0F",
"[ 	c #822410",
"} 	c #7C2210",
"| 	c #7E2010",
"1 	c #712911",
"2 	c #1B4116",
"3 	c #245A1B",
"4 	c #1F4E18",
"5 	c #1F4C17",
"6 	c #7C2D11",
"7 	c #841E0F",
"8 	c #86160F",
"9 	c #792B11",
"0 	c #712811",
"a 	c #1B4016",
"b 	c #1C4317",
"c 	c #234A16",
"d 	c #274F17",
"e 	c #205218",
"f 	c #225619",
"g 	c #793112",
"h 	c #802711",
"i 	c #89130E",
"j 	c #87180F",
"k 	c #752911",
"l 	c #1C4216",
"m 	c #1F4D19",
"n 	c #E8E28D",
"o 	c #393109",
"p 	c #39390C",
"q 	c #383A0D",
"r 	c #225719",
"s 	c #1E4E17",
"t 	c #1F5118",
"u 	c #1C4715",
"v 	c #1E4C16",
"w 	c #88140E",
"x 	c #723613",
"y 	c #1C4316",
"z 	c #22561A",
"A 	c #080808",
"B 	c #9E9A5F",
"C 	c #CDC77C",
"D 	c #E5DF8B",
"E 	c #E2DC8A",
"F 	c #DAD585",
"G 	c #67643D",
"H 	c #080908",
"I 	c #090B08",
"J 	c #1B1408",
"K 	c #190E07",
"L 	c #090F09",
"M 	c #132E10",
"N 	c #173912",
"O 	c #183B13",
"P 	c #564A17",
"Q 	c #832110",
"R 	c #7E2A11",
"S 	c #763413",
"T 	c #1C4417",
"U 	c #1E4918",
"V 	c #64613B",
"W 	c #C5C078",
"X 	c #DFD988",
"Y 	c #BDB873",
"Z 	c #0A1409",
"` 	c #0E210C",
" .	c #0D1D0C",
"..	c #0E1E0D",
"+.	c #0E200D",
"@.	c #0D1C0C",
"#.	c #0B150A",
"$.	c #0F200D",
"%.	c #163412",
"&.	c #1D4617",
"*.	c #204F19",
"=.	c #080A08",
"-.	c #0F260D",
";.	c #0F210D",
">.	c #193B14",
",.	c #173613",
"'.	c #193914",
").	c #1B3E16",
"!.	c #183814",
"~.	c #153012",
"{.	c #0D1B0C",
"].	c #12280F",
"^.	c #122A0E",
"/.	c #21541A",
"(.	c #1D4417",
"_.	c #C1BC75",
":.	c #68653D",
"<.	c #0C1A0B",
"[.	c #153410",
"}.	c #10260E",
"|.	c #1A4214",
"1.	c #1B4115",
"2.	c #1C4415",
"3.	c #1C4A15",
"4.	c #1D4D15",
"5.	c #1B4215",
"6.	c #0B140A",
"7.	c #142F10",
"8.	c #B1AD6B",
"9.	c #CAC47A",
"0.	c #524F30",
"a.	c #102B0D",
"b.	c #49472A",
"c.	c #4C492C",
"d.	c #090D09",
"e.	c #23511D",
"f.	c #173D12",
"g.	c #122F0F",
"h.	c #1C4615",
"i.	c #1C4515",
"j.	c #1D5015",
"k.	c #0F240E",
"l.	c #194013",
"m.	c #215219",
"n.	c #DCD786",
"o.	c #DFDA88",
"p.	c #868850",
"q.	c #0A1309",
"r.	c #0C1E0A",
"s.	c #DBD686",
"t.	c #B4B36E",
"u.	c #23531D",
"v.	c #21501B",
"w.	c #163B11",
"x.	c #173813",
"y.	c #1A4713",
"z.	c #1D4B15",
"A.	c #142F11",
"B.	c #11260F",
"C.	c #0E1F0D",
"D.	c #0B120A",
"E.	c #C0BD74",
"F.	c #DAD584",
"G.	c #D1CD7F",
"H.	c #153A10",
"I.	c #163C11",
"J.	c #253B10",
"K.	c #1B390F",
"L.	c #1D4D16",
"M.	c #194213",
"N.	c #184212",
"O.	c #1D4E15",
"P.	c #1C4815",
"Q.	c #1B4015",
"R.	c #132C10",
"S.	c #090E09",
"T.	c #1A4413",
"U.	c #1E4D16",
"V.	c #215419",
"W.	c #285117",
"X.	c #373C0E",
"Y.	c #362A07",
"Z.	c #352E08",
"`.	c #234413",
" +	c #153C10",
".+	c #1C4915",
"++	c #1D4815",
"@+	c #193D14",
"#+	c #304111",
"$+	c #39340A",
"%+	c #3A340A",
"&+	c #3A330A",
"*+	c #3B3209",
"=+	c #3D2505",
"-+	c #3B2605",
";+	c #352F09",
">+	c #173F11",
",+	c #1D4915",
"'+	c #1B4316",
")+	c #11260E",
"!+	c #11270F",
"~+	c #3B2F08",
"{+	c #999221",
"]+	c #3C2C07",
"^+	c #3E2605",
"/+	c #2C350D",
"(+	c #1B4915",
"_+	c #153312",
":+	c #10240E",
"<+	c #11290F",
"[+	c #1E4A18",
"}+	c #364010",
"|+	c #36380D",
"1+	c #2F4111",
"2+	c #1B4815",
"3+	c #0E1E0C",
"4+	c #1F5017",
"5+	c #205118",
"6+	c #23591A",
"7+	c #1E5017",
"8+	c #194613",
"9+	c #183B14",
"0+	c #215418",
"a+	c #163D11",
"b+	c #1B4216",
"c+	c #1A4414",
"d+	c #112D0E",
"e+	c #1A4515",
"f+	c #225519",
"g+	c #22581A",
"h+	c #163911",
"i+	c #1B4615",
"j+	c #194413",
"k+	c #163B10",
"l+	c #13340E",
"m+	c #0B160A",
"n+	c #1C4B15",
"o+	c #24571C",
"p+	c #215318",
"q+	c #153B10",
"r+	c #163E10",
"s+	c #173F12",
"t+	c #173D11",
"u+	c #0E250B",
"v+	c #205518",
"w+	c #173E11",
"x+	c #1B4414",
"y+	c #22571A",
"z+	c #13330F",
"A+	c #0F290C",
"B+	c #080B08",
"C+	c #2C2B0E",
"D+	c #375519",
"E+	c #23591B",
"F+	c #22541B",
"G+	c #215519",
"H+	c #205318",
"I+	c #3C300E",
"J+	c #802410",
"K+	c #564C18",
"L+	c #1B4714",
"M+	c #1F4D18",
"N+	c #723512",
"O+	c #802710",
"P+	c #7E2911",
"Q+	c #604716",
"R+	c #822110",
"S+	c #7B2F12",
"T+	c #723914",
"U+	c #235A1A",
"V+	c #205017",
"W+	c #415218",
"X+	c #851F0F",
"Y+	c #842010",
"Z+	c #861B0F",
"`+	c #861A0F",
" @	c #7B2C11",
".@	c #1F4B1A",
"+@	c #87190F",
"@@	c #83170E",
"#@	c #5B2F0F",
"$@	c #194113",
"%@	c #183F12",
"&@	c #1A4514",
"*@	c #1C4814",
"=@	c #703112",
"-@	c #84180E",
";@	c #88120E",
">@	c #7B1E0E",
",@	c #782610",
"'@	c #173C11",
")@	c #702E11",
"!@	c #772710",
"~@	c #7D1C0E",
"{@	c #184112",
"                                                                                                                        ",
"                                                                                                                        ",
"                                                                                                                        ",
"                                                                                                                        ",
"                                                                                                                        ",
"                                                                                                                        ",
"                                                                                                                        ",
"                                                                                                                        ",
"                                                                                                                        ",
"                                                                                                                        ",
"                                                                                                                        ",
"                                                                                                                        ",
"                                                                                                                        ",
"                                                  . + @ # $ % &                                                         ",
"                                          * * = - ; > , ' ) ! ~ { ]                                                     ",
"                                      * = * ^ / ] ( _ : < [ } | 1 2 3                                                   ",
"                                    4 5 4 = ( ] ] ] ] ] 6 7 8 9 0 a b ]                                                 ",
"                                  c d _ e * ( ] ] f = ] g h i j k l 2 m                                                 ",
"              n n   n           o p q r s t ] ( u / v ] g , w w x 2 y 2 z                                               ",
"      A A A B C D E F G A A H I J K A A A A A L M N O s P Q [ R S b T 2 U                                               ",
"A A A A A A V W E X Y A A A A A A A A A A Z `  ...+.+.+.@.#.$.%.v ] &.2 *.                                              ",
"A A A A A A A A A A A A A A A A A A A A =.-.@.;.>.,.'.).!.~. .{.].^./.T *.(.                                            ",
"A A A A A A _.:.A A A A A A A A A A A <.[.@.}.|.a 1.2.3.4.5.'.~.@.6.7.&.&.                                              ",
"        A A 8.9.0.a.A A A A A b.c.d.e.f.g.;.|.h.h.u i.i.u j.j.h.k...@.l.&.m.                                            ",
"              n n n.o.p.A q.r.s.t.u.v.w.x.y.4.z.u h.h.h.h.h.3.j.A.B.C.D.&./                                             ",
"                  E.o.F.G.H.I.J.K.L.M.N.j.j.j.j.O.P.u u P.Q.h.3.2. .R.S.y m.                                            ",
"                  T.U.V.] W.X.Y.Z.`. +j.j.j.j.j.j.j..+P.h.h.u ++3.).$.<.@+T                                             ",
"                    #+$+%+&+*+=+-+;+>+j.j.j.j.j.j.j.j.P.P.j.5.h.,+'+)+C.!+T                                             ",
"                      ~+{+]+^+$+/+(+>+j.j.j.j.j.j.j.j.j.j.P.4.a u i._+:+<+[+                                            ",
"                      }+$+|+1+f ] 2+>+j.j.j.j.j.j.j.j.j.O.P.4.5.u .+'.3+A.*.                                            ",
"                        ] ] 4+5+6+7+H.8+j.j.j.j.j.j.j.j.j.j.4.h.h.4.'.@.9+*.                                            ",
"                          ] 0+4+6+] a+H.j.j.j.j.j.j.j.j.j.j.3.5.4.j.j.@.b+]                                             ",
"                            ] e f ] 3.H.j.j.j.j.j.j.j.j.j.j.a P.j.j.c+d+e+*.                                            ",
"                            ] f f+e g+H.8+j.j.j.j.j.j.j.j.j.j.j.j.j.;.h+i+*.                                            ",
"                              3 0+4+5+j+k+8+j.j.j.j.j.j.j.j.j.j.j.l+m+n+i+*.                                            ",
"                                o+p+4+e q+H.j.j.j.j.j.j.j.j.j.j.j.H.r+s+t+z                                             ",
"                                e.] V.] f s+q+j.j.j.j.j.j.j.H.l+u+v+] w+x+y+                                            ",
"                                  e.] ] f+g+H.z+A+A+H.H.u+B+H.C+D+] E+.+h.F+                                            ",
"                                    ] ] p+G+] ] ] H+L.I+u+J+7 , K+] L+k+M+e.                                            ",
"                                    ] ] ] f ] ] ] G+e N+O+j P+R Q+] w+k+z e.                                            ",
"                                        ] ] ] ] 3 4+e R+w i Q S+T+U+I.f.L+                                              ",
"                                          ] ] ] 6+V+W+X+Y+Z+`+Q  @L+x+w..@                                              ",
"                                            ] f e p+f Q [ j +@@@#@$@%@&@                                                ",
"                                              e *@f =@-@;@>@,@k+'@I.s+                                                  ",
"                                                  4+)@!@~@M.{@                                                          ",
"                                                                                                                        ",
"                                                                                                                        ",
"                                                                                                                        ",
"                                                                                                                        ",
"                                                                                                                        ",
"                                                                                                                        ",
"                                                                                                                        ",
"                                                                                                                        ",
"                                                                                                                        ",
"                                                                                                                        ",
"                                                                                                                        ",
"                                                                                                                        ",
"                                                                                                                        ",
"                                                                                                                        ",
"                                                                                                                        "};
