/* XPM */
static const char * enemy2[] = {
"60 60 398 2",
"  	c None",
". 	c #080808",
"+ 	c #23581A",
"@ 	c #245B1B",
"# 	c #24571C",
"$ 	c #24591B",
"% 	c #24591C",
"& 	c #364C16",
"* 	c #1F4F17",
"= 	c #1D4B15",
"- 	c #23591A",
"; 	c #245A1B",
"> 	c #24581C",
", 	c #235A1B",
"' 	c #821E0F",
") 	c #693512",
"! 	c #365218",
"~ 	c #205218",
"{ 	c #225619",
"] 	c #215418",
"^ 	c #215419",
"/ 	c #215318",
"( 	c #225719",
"_ 	c #3A330A",
": 	c #3C2E08",
"< 	c #6F6C42",
"[ 	c #831C0F",
"} 	c #821D0F",
"| 	c #7B2710",
"1 	c #3C5018",
"2 	c #245218",
"3 	c #225519",
"4 	c #22571A",
"5 	c #205318",
"6 	c #1F5017",
"7 	c #205118",
"8 	c #353F0F",
"9 	c #5C5511",
"0 	c #827C1B",
"a 	c #3C3108",
"b 	c #2F4111",
"c 	c #345321",
"d 	c #A8A865",
"e 	c #E2DD8A",
"f 	c #E3DD8A",
"g 	c #DFD987",
"h 	c #D7D182",
"i 	c #68663E",
"j 	c #194213",
"k 	c #7E210F",
"l 	c #851B0F",
"m 	c #832010",
"n 	c #6B3D14",
"o 	c #395218",
"p 	c #205017",
"q 	c #1A4413",
"r 	c #194313",
"s 	c #184012",
"t 	c #173F11",
"u 	c #1A4614",
"v 	c #215619",
"w 	c #215519",
"x 	c #235A1A",
"y 	c #244F17",
"z 	c #38360C",
"A 	c #45390A",
"B 	c #4A410C",
"C 	c #354110",
"D 	c #385C24",
"E 	c #C3C176",
"F 	c #E0DB89",
"G 	c #D9D484",
"H 	c #B5B06D",
"I 	c #BFBA73",
"J 	c #B7B26E",
"K 	c #0E0E0A",
"L 	c #1D1D12",
"M 	c #7A240F",
"N 	c #841C0F",
"O 	c #851F0F",
"P 	c #673C14",
"Q 	c #205418",
"R 	c #173D12",
"S 	c #184112",
"T 	c #194512",
"U 	c #1A4713",
"V 	c #174012",
"W 	c #184011",
"X 	c #173F12",
"Y 	c #194513",
"Z 	c #275117",
"` 	c #3B3009",
" .	c #3A310A",
"..	c #325B1F",
"+.	c #BABA71",
"@.	c #DDD786",
"#.	c #D7D282",
"$.	c #7E7C4B",
"%.	c #14200E",
"&.	c #090908",
"*.	c #9B975D",
"=.	c #7C784A",
"-.	c #63603A",
";.	c #6F290F",
">.	c #87190F",
",.	c #861B0F",
"'.	c #7F2610",
").	c #504214",
"!.	c #1D4E16",
"~.	c #153A10",
"{.	c #163D10",
"].	c #1D5015",
"^.	c #1C4D14",
"/.	c #1D4F15",
"(.	c #1C4E14",
"_.	c #194613",
":.	c #153B10",
"<.	c #1A4714",
"[.	c #1F4D16",
"}.	c #2C390F",
"|.	c #3A2C07",
"1.	c #3A2E08",
"2.	c #344010",
"3.	c #1C4012",
"4.	c #B0AD6A",
"5.	c #9F9B5F",
"6.	c #34351E",
"7.	c #D9D383",
"8.	c #E2DC89",
"9.	c #D4CE80",
"0.	c #1E3C11",
"a.	c #642C0F",
"b.	c #7E1F0F",
"c.	c #332D0D",
"d.	c #1F3B11",
"e.	c #184412",
"f.	c #1B4A14",
"g.	c #1A4813",
"h.	c #184111",
"i.	c #1A4514",
"j.	c #30360D",
"k.	c #392906",
"l.	c #352C08",
"m.	c #27390F",
"n.	c #12300E",
"o.	c #0A1309",
"p.	c #080908",
"q.	c #ADA869",
"r.	c #E4DE8A",
"s.	c #E5DF8B",
"t.	c #173E12",
"u.	c #203F12",
"v.	c #603411",
"w.	c #802510",
"x.	c #83200F",
"y.	c #841D0F",
"z.	c #70230F",
"A.	c #0F250B",
"B.	c #184212",
"C.	c #283A0E",
"D.	c #293E10",
"E.	c #24360D",
"F.	c #A9A765",
"G.	c #AEAB6A",
"H.	c #090C08",
"I.	c #AEAA69",
"J.	c #DED987",
"K.	c #184113",
"L.	c #1A4213",
"M.	c #2B4A15",
"N.	c #674115",
"O.	c #723913",
"P.	c #831F0F",
"Q.	c #48240D",
"R.	c #14380F",
"S.	c #163E11",
"T.	c #1C4714",
"U.	c #A1A461",
"V.	c #CAC67B",
"W.	c #8F8B55",
"X.	c #242315",
"Y.	c #242215",
"Z.	c #66633D",
"`.	c #1E4B16",
" +	c #1B4815",
".+	c #2C591A",
"++	c #544D18",
"@+	c #6F3B14",
"#+	c #502A0F",
"$+	c #173910",
"%+	c #1A4913",
"&+	c #1C4816",
"*+	c #214E1B",
"=+	c #3B3F23",
"-+	c #32301D",
";+	c #1D4717",
">+	c #1A4414",
",+	c #173D11",
"'+	c #1D4B16",
")+	c #295A1B",
"!+	c #3C5519",
"~+	c #273C11",
"{+	c #153A0F",
"]+	c #194014",
"^+	c #224F1C",
"/+	c #0C1A0B",
"(+	c #1B4715",
"_+	c #1E4C16",
":+	c #235719",
"<+	c #153810",
"[+	c #1B4C14",
"}+	c #1C4C14",
"|+	c #173912",
"1+	c #153711",
"2+	c #132F0F",
"3+	c #0C0A08",
"4+	c #0E0D08",
"5+	c #204F19",
"6+	c #1E4B17",
"7+	c #1B4614",
"8+	c #205319",
"9+	c #1B4B14",
"0+	c #1C4616",
"a+	c #1C4B15",
"b+	c #1D4E15",
"c+	c #1B4814",
"d+	c #11290E",
"e+	c #0B140A",
"f+	c #090808",
"g+	c #1F1708",
"h+	c #352D09",
"i+	c #214F1A",
"j+	c #1F4D18",
"k+	c #1B4514",
"l+	c #173E11",
"m+	c #12310E",
"n+	c #163E10",
"o+	c #1C4515",
"p+	c #1C4915",
"q+	c #1D4D15",
"r+	c #1D4C15",
"s+	c #1D4A15",
"t+	c #122D0F",
"u+	c #0E200C",
"v+	c #121409",
"w+	c #34340C",
"x+	c #314010",
"y+	c #215219",
"z+	c #1E4D17",
"A+	c #183E12",
"B+	c #122F0F",
"C+	c #153710",
"D+	c #1C4815",
"E+	c #1C4715",
"F+	c #1C4A15",
"G+	c #1C4615",
"H+	c #1B4414",
"I+	c #0A1409",
"J+	c #0B1A0A",
"K+	c #244A15",
"L+	c #2F4813",
"M+	c #244C17",
"N+	c #205018",
"O+	c #1B4615",
"P+	c #173B11",
"Q+	c #163811",
"R+	c #1B4415",
"S+	c #1B4315",
"T+	c #1A3E15",
"U+	c #0F220D",
"V+	c #080B08",
"W+	c #090E09",
"X+	c #0C1B0A",
"Y+	c #225218",
"Z+	c #204E18",
"`+	c #1F4E18",
" @	c #1E4C17",
".@	c #194114",
"+@	c #102A0E",
"@@	c #1C4415",
"#@	c #1A3F15",
"$@	c #183914",
"%@	c #0F200D",
"&@	c #0B150A",
"*@	c #0D1F0B",
"=@	c #1F4F18",
"-@	c #1F4D17",
";@	c #183B14",
">@	c #0E1F0D",
",@	c #163112",
"'@	c #1A3E14",
")@	c #1D4815",
"!@	c #1B4515",
"~@	c #193914",
"{@	c #11280F",
"]@	c #132E0F",
"^@	c #1D4916",
"/@	c #1F4C17",
"(@	c #143111",
"_@	c #142F11",
":@	c #163612",
"<@	c #1B4216",
"[@	c #1C4C15",
"}@	c #1A3D15",
"|@	c #122B10",
"1@	c #122D10",
"2@	c #183D13",
"3@	c #1D4816",
"4@	c #0F210D",
"5@	c #142D11",
"6@	c #122B0F",
"7@	c #173712",
"8@	c #184013",
"9@	c #1B4314",
"0@	c #183A13",
"a@	c #163313",
"b@	c #11270F",
"c@	c #233711",
"d@	c #1D4A16",
"e@	c #215319",
"f@	c #22561A",
"g@	c #1E4A16",
"h@	c #1E4B18",
"i@	c #1E4916",
"j@	c #132C10",
"k@	c #0D1D0C",
"l@	c #10230D",
"m@	c #10250E",
"n@	c #11250F",
"o@	c #0F240E",
"p@	c #132F10",
"q@	c #4E240E",
"r@	c #5A4817",
"s@	c #455118",
"t@	c #1D4716",
"u@	c #0C160A",
"v@	c #0E1E0C",
"w@	c #0E1D0D",
"x@	c #0C190B",
"y@	c #10220E",
"z@	c #132B10",
"A@	c #55240F",
"B@	c #832110",
"C@	c #802710",
"D@	c #783212",
"E@	c #495219",
"F@	c #2C5218",
"G@	c #1F4E17",
"H@	c #183D12",
"I@	c #153311",
"J@	c #122A0E",
"K@	c #5C3712",
"L@	c #87180E",
"M@	c #851D0F",
"N@	c #7F2911",
"O@	c #7B2E11",
"P@	c #604215",
"Q@	c #614115",
"R@	c #594115",
"S@	c #274B17",
"T@	c #1E4817",
"U@	c #1F4F19",
"V@	c #1F4C18",
"W@	c #265219",
"X@	c #693814",
"Y@	c #822110",
"Z@	c #851A0F",
"`@	c #831E0F",
" #	c #543C14",
".#	c #3C4415",
"+#	c #1F4B17",
"@#	c #1D4616",
"##	c #1C4417",
"$#	c #284116",
"%#	c #6C3112",
"&#	c #811F0F",
"*#	c #821F0F",
"=#	c #831D0F",
"-#	c #7A2510",
";#	c #772811",
">#	c #1D4417",
",#	c #1F4D19",
"'#	c #1E4917",
")#	c #294016",
"!#	c #652F12",
"~#	c #7C2310",
"{#	c #811E0F",
"]#	c #7F2110",
"^#	c #752911",
"/#	c #1E4A17",
"(#	c #244617",
"_#	c #593914",
":#	c #603313",
"<#	c #772711",
"[#	c #782511",
"}#	c #215119",
"|#	c #22531A",
"1#	c #26591B",
"                                                                                                                        ",
"                                                                                                                        ",
"                                                                                                                        ",
"                                                                                                                        ",
"                                                                                                                        ",
"                                                                                                                        ",
"                                                                                                                        ",
"                                                                                                                        ",
"                                                                                                                        ",
"                                                                                                                        ",
"                                                                                                                        ",
"                                                                                                                        ",
"                                                                                                                  . .   ",
"                                                      + @ @ @ @ @ @ @ # $ %                                     . . . . ",
"                                                & * = - @ @ @ @ @ @ @ ; $ > , $ @                           . . . . . . ",
"                                              ' ) ! ~ + @ @ ; { ] + ; ^ / / ( ; - - ; @ _ :               < . . . . .   ",
"                                            [ } | 1 2 3 ; @ @ - 4 ^ { 5 6 7 + ; - { 5 8 9 0 a b c d e f g h i . . .     ",
"                                          j k l m n o p 4 @ @ q r s t r u v w x @ - y z A B C D E F G H I J K L . .     ",
"                                          M } N m O P ~ Q 4 R S T U V W V X Y 6 v x Z ` :  ...+.@.#.$.%.. &.*.=.-.      ",
"                                          ;.N >.,.l '.).!.~.{.].].].^./.(._.:.:.<.[.}.|.1.2.3.4.5.6.. . . 7.8.9.        ",
"                                        0.a.N N ,.l b.c.d.e.].].].].].].].].f.g.h.i.j.k.l.m.n.o.p.. . . q.r.s.s.        ",
"                                      t.u.v.w.x.m y.z.A.B.].].].].].].].].].].].^.h.C.D.E.F.G.H.. . . . I.J.            ",
"                                      K.L.M.N.O.P.y.Q.R.].].].].].].].].].].].].].^.S.T.U.V.W.X.. . . Y.Z.g             ",
"                                      K.`. +.+++@+#+$+%+].].].].].].].].].].].].].].Y &+*+=+-+. . . . .                 ",
"                                      ;+>+,+'+)+!+~+{+^.].].].].].].].].].].].].].].r ]+^+/+. . . . p.                  ",
"                                      (+_+>+r 4 :+<+[+].].].].].].].].].].].].].].}+|+1+2+. . . 3+4+                    ",
"                                        5+6+7+8+v V 9+].].0+a+].].].].].].].].].b+c+d+2+e+. . f+g+h+                    ",
"                                        i+j+k+l+B.m+n+].b+o+p+/.q+b+].q+b+/.q+r+s+k+t+u+p.. . v+w+x+                    ",
"                                          y+z+A+u B+C+]./.D+E+r+F+a+a+D+D+D+E+E+G+H+t+I+p.p.J+K+L+M+                    ",
"                                            N+`.O+P+Q+a+].p+o+R+r+a+a+G+E+E+G+E+S+T+U+V+W+X+(+^ Y+Z+                    ",
"                                              `+ @.@+@B.H+a+E+@@@@R+G+S+E+G+o+@@#@$@%@&@*@* z+=@`+6+                    ",
"                                                Z+-@;@>@,@'@o+E+)@)@E+o+E+E+p+!@~@{@{@]@=@- y+^@ @/@                    ",
"                                                  y+6+(@%@_@:@<@E+E+[@a+/.p+D+}@|@1@2@^@^ @ + -@/@                      ",
"                                                    j+3@{@4@U+5@6@7@8@p+9@0@a@b@c@&+d@e@- @ f@-@g@                      ",
"                                                      h@i@j@k@l@m@n@o@p@5@k@%@q@r@s@^ =@@ ; e@ @                        ",
"                                                         @t@0@u@v@w@x@>@y@z@A@B@C@D@E@@ - F@/@                          ",
"                                                          G@/@0+H@I@I@J@G+K@m L@M@N@O@P@Q@R@S@                          ",
"                                                            N+-@T@;+U@V@W@X@Y@l Z@N y.`@`@ #.#                          ",
"                                                                +#j+@#####$#%#&#*#=#=#' -#;#                            ",
"                                                                >#,#/@'#@#<@)#!#~#} {#]#^#                              ",
"                                                                    h@`+-@/#;+(#_#:#<#[#                                ",
"                                                                          3 }#|#1#                                      ",
"                                                                                                                        ",
"                                                                                                                        ",
"                                                                                                                        ",
"                                                                                                                        ",
"                                                                                                                        ",
"                                                                                                                        ",
"                                                                                                                        ",
"                                                                                                                        ",
"                                                                                                                        ",
"                                                                                                                        ",
"                                                                                                                        ",
"                                                                                                                        ",
"                                                                                                                        ",
"                                                                                                                        ",
"                                                                                                                        ",
"                                                                                                                        ",
"                                                                                                                        ",
"                                                                                                                        "};
