/* XPM */
static const char * enemy6[] = {
"60 60 398 2",
"  	c None",
". 	c #26591B",
"+ 	c #22531A",
"@ 	c #215119",
"# 	c #225519",
"$ 	c #782511",
"% 	c #772711",
"& 	c #603313",
"* 	c #593914",
"= 	c #244617",
"- 	c #1D4717",
"; 	c #1E4A17",
"> 	c #1F4D17",
", 	c #1F4E18",
"' 	c #1E4B18",
") 	c #752911",
"! 	c #7F2110",
"~ 	c #811E0F",
"{ 	c #821D0F",
"] 	c #7C2310",
"^ 	c #652F12",
"/ 	c #294016",
"( 	c #1B4216",
"_ 	c #1D4616",
": 	c #1E4917",
"< 	c #1F4C17",
"[ 	c #1F4D19",
"} 	c #1D4417",
"| 	c #772811",
"1 	c #7A2510",
"2 	c #821E0F",
"3 	c #831D0F",
"4 	c #821F0F",
"5 	c #811F0F",
"6 	c #6C3112",
"7 	c #284116",
"8 	c #1C4417",
"9 	c #1F4D18",
"0 	c #1F4B17",
"a 	c #3C4415",
"b 	c #543C14",
"c 	c #831E0F",
"d 	c #841D0F",
"e 	c #841C0F",
"f 	c #851A0F",
"g 	c #851B0F",
"h 	c #822110",
"i 	c #693814",
"j 	c #265219",
"k 	c #1F4C18",
"l 	c #1F4F19",
"m 	c #1E4817",
"n 	c #205018",
"o 	c #274B17",
"p 	c #594115",
"q 	c #614115",
"r 	c #604215",
"s 	c #7B2E11",
"t 	c #7F2911",
"u 	c #851D0F",
"v 	c #87180E",
"w 	c #832010",
"x 	c #5C3712",
"y 	c #1C4615",
"z 	c #122A0E",
"A 	c #153311",
"B 	c #183D12",
"C 	c #1C4616",
"D 	c #1F4E17",
"E 	c #2C5218",
"F 	c #23591A",
"G 	c #245B1B",
"H 	c #495219",
"I 	c #783212",
"J 	c #802710",
"K 	c #832110",
"L 	c #55240F",
"M 	c #132B10",
"N 	c #10220E",
"O 	c #0E1F0D",
"P 	c #0C190B",
"Q 	c #0E1D0D",
"R 	c #0E1E0C",
"S 	c #0C160A",
"T 	c #183A13",
"U 	c #1D4716",
"V 	c #1E4C17",
"W 	c #215319",
"X 	c #245A1B",
"Y 	c #1F4F18",
"Z 	c #215419",
"` 	c #455118",
" .	c #5A4817",
"..	c #4E240E",
"+.	c #0F200D",
"@.	c #0D1D0C",
"#.	c #142D11",
"$.	c #132F10",
"%.	c #0F240E",
"&.	c #11250F",
"*.	c #10250E",
"=.	c #10230D",
"-.	c #132C10",
";.	c #1E4916",
">.	c #1E4A16",
",.	c #22561A",
"'.	c #1D4A16",
").	c #1C4816",
"!.	c #233711",
"~.	c #11270F",
"{.	c #163313",
"].	c #1B4314",
"^.	c #1C4915",
"/.	c #184013",
"(.	c #173712",
"_.	c #122B0F",
":.	c #0F220D",
"<.	c #0F210D",
"[.	c #11280F",
"}.	c #1D4816",
"|.	c #23581A",
"1.	c #1D4916",
"2.	c #183D13",
"3.	c #122D10",
"4.	c #122B10",
"5.	c #1A3D15",
"6.	c #1C4815",
"7.	c #1D4F15",
"8.	c #1C4B15",
"9.	c #1C4C15",
"0.	c #1C4715",
"a.	c #163612",
"b.	c #142F11",
"c.	c #143111",
"d.	c #1E4B17",
"e.	c #215219",
"f.	c #132E0F",
"g.	c #193914",
"h.	c #1B4515",
"i.	c #1C4515",
"j.	c #1D4815",
"k.	c #1A3E14",
"l.	c #163112",
"m.	c #183B14",
"n.	c #204E18",
"o.	c #1E4D17",
"p.	c #1F4F17",
"q.	c #0D1F0B",
"r.	c #0B150A",
"s.	c #183914",
"t.	c #1A3F15",
"u.	c #1C4415",
"v.	c #1B4315",
"w.	c #1B4415",
"x.	c #1B4414",
"y.	c #184212",
"z.	c #102A0E",
"A.	c #194114",
"B.	c #225218",
"C.	c #1B4715",
"D.	c #0C1B0A",
"E.	c #090E09",
"F.	c #080B08",
"G.	c #1A3E15",
"H.	c #1D4C15",
"I.	c #1D5015",
"J.	c #163811",
"K.	c #173B11",
"L.	c #1B4615",
"M.	c #1E4B16",
"N.	c #244C17",
"O.	c #2F4813",
"P.	c #244A15",
"Q.	c #0B1A0A",
"R.	c #080908",
"S.	c #0A1409",
"T.	c #122D0F",
"U.	c #1C4A15",
"V.	c #153710",
"W.	c #122F0F",
"X.	c #1A4614",
"Y.	c #183E12",
"Z.	c #314010",
"`.	c #34340C",
" +	c #121409",
".+	c #080808",
"++	c #0E200C",
"@+	c #1B4514",
"#+	c #1D4A15",
"$+	c #1D4D15",
"%+	c #1D4E15",
"&+	c #163E10",
"*+	c #12310E",
"=+	c #173E11",
"-+	c #214F1A",
";+	c #352D09",
">+	c #1F1708",
",+	c #090808",
"'+	c #0B140A",
")+	c #132F0F",
"!+	c #11290E",
"~+	c #1B4814",
"{+	c #1B4B14",
"]+	c #174012",
"^+	c #215619",
"/+	c #205319",
"(+	c #1B4614",
"_+	c #204F19",
":+	c #0E0D08",
"<+	c #0C0A08",
"[+	c #153711",
"}+	c #173912",
"|+	c #1C4C14",
"1+	c #1B4C14",
"2+	c #153810",
"3+	c #235719",
"4+	c #22571A",
"5+	c #194313",
"6+	c #1A4414",
"7+	c #1E4C16",
"8+	c #0C1A0B",
"9+	c #224F1C",
"0+	c #194014",
"a+	c #1C4D14",
"b+	c #153A0F",
"c+	c #273C11",
"d+	c #3C5519",
"e+	c #295A1B",
"f+	c #1D4B16",
"g+	c #173D11",
"h+	c #32301D",
"i+	c #3B3F23",
"j+	c #214E1B",
"k+	c #194513",
"l+	c #1A4913",
"m+	c #173910",
"n+	c #502A0F",
"o+	c #6F3B14",
"p+	c #544D18",
"q+	c #2C591A",
"r+	c #1B4815",
"s+	c #184113",
"t+	c #DFD987",
"u+	c #66633D",
"v+	c #242215",
"w+	c #242315",
"x+	c #8F8B55",
"y+	c #CAC67B",
"z+	c #A1A461",
"A+	c #1C4714",
"B+	c #163E11",
"C+	c #14380F",
"D+	c #48240D",
"E+	c #831F0F",
"F+	c #723913",
"G+	c #674115",
"H+	c #2B4A15",
"I+	c #1A4213",
"J+	c #DED987",
"K+	c #AEAA69",
"L+	c #090C08",
"M+	c #AEAB6A",
"N+	c #A9A765",
"O+	c #24360D",
"P+	c #293E10",
"Q+	c #283A0E",
"R+	c #184111",
"S+	c #0F250B",
"T+	c #70230F",
"U+	c #83200F",
"V+	c #802510",
"W+	c #603411",
"X+	c #203F12",
"Y+	c #173E12",
"Z+	c #E5DF8B",
"`+	c #E4DE8A",
" @	c #ADA869",
".@	c #0A1309",
"+@	c #12300E",
"@@	c #27390F",
"#@	c #352C08",
"$@	c #392906",
"%@	c #30360D",
"&@	c #1A4514",
"*@	c #1A4813",
"=@	c #1B4A14",
"-@	c #184412",
";@	c #1F3B11",
">@	c #332D0D",
",@	c #7E1F0F",
"'@	c #861B0F",
")@	c #642C0F",
"!@	c #1E3C11",
"~@	c #D4CE80",
"{@	c #E2DC89",
"]@	c #D9D383",
"^@	c #34351E",
"/@	c #9F9B5F",
"(@	c #B0AD6A",
"_@	c #1C4012",
":@	c #344010",
"<@	c #3A2E08",
"[@	c #3A2C07",
"}@	c #2C390F",
"|@	c #1F4D16",
"1@	c #1A4714",
"2@	c #153B10",
"3@	c #194613",
"4@	c #1C4E14",
"5@	c #163D10",
"6@	c #153A10",
"7@	c #1D4E16",
"8@	c #504214",
"9@	c #7F2610",
"0@	c #87190F",
"a@	c #6F290F",
"b@	c #63603A",
"c@	c #7C784A",
"d@	c #9B975D",
"e@	c #090908",
"f@	c #14200E",
"g@	c #7E7C4B",
"h@	c #D7D282",
"i@	c #DDD786",
"j@	c #BABA71",
"k@	c #325B1F",
"l@	c #3A310A",
"m@	c #3C2E08",
"n@	c #3B3009",
"o@	c #275117",
"p@	c #235A1A",
"q@	c #1F5017",
"r@	c #173F12",
"s@	c #184011",
"t@	c #1A4713",
"u@	c #194512",
"v@	c #184112",
"w@	c #173D12",
"x@	c #205418",
"y@	c #205218",
"z@	c #673C14",
"A@	c #851F0F",
"B@	c #7A240F",
"C@	c #1D1D12",
"D@	c #0E0E0A",
"E@	c #B7B26E",
"F@	c #BFBA73",
"G@	c #B5B06D",
"H@	c #D9D484",
"I@	c #E0DB89",
"J@	c #C3C176",
"K@	c #385C24",
"L@	c #354110",
"M@	c #4A410C",
"N@	c #45390A",
"O@	c #38360C",
"P@	c #244F17",
"Q@	c #215519",
"R@	c #173F11",
"S@	c #184012",
"T@	c #1A4413",
"U@	c #205017",
"V@	c #395218",
"W@	c #6B3D14",
"X@	c #7E210F",
"Y@	c #194213",
"Z@	c #68663E",
"`@	c #D7D182",
" #	c #E3DD8A",
".#	c #E2DD8A",
"+#	c #A8A865",
"@#	c #345321",
"##	c #2F4111",
"$#	c #3C3108",
"%#	c #827C1B",
"&#	c #5C5511",
"*#	c #353F0F",
"=#	c #205318",
"-#	c #225619",
";#	c #205118",
">#	c #245218",
",#	c #3C5018",
"'#	c #7B2710",
")#	c #831C0F",
"!#	c #6F6C42",
"~#	c #3A330A",
"{#	c #225719",
"]#	c #215318",
"^#	c #215418",
"/#	c #365218",
"(#	c #693512",
"_#	c #24591B",
":#	c #235A1B",
"<#	c #24581C",
"[#	c #1D4B15",
"}#	c #364C16",
"|#	c #24591C",
"1#	c #24571C",
"                                                                                                                        ",
"                                                                                                                        ",
"                                                                                                                        ",
"                                                                                                                        ",
"                                                                                                                        ",
"                                                                                                                        ",
"                                                                                                                        ",
"                                                                                                                        ",
"                                                                                                                        ",
"                                                                                                                        ",
"                                                                                                                        ",
"                                                                                                                        ",
"                                                                                                                        ",
"                                                                                                                        ",
"                                                                                                                        ",
"                                                                                                                        ",
"                                                                                                                        ",
"                                                                                                                        ",
"                                                                                                                        ",
"                                            . + @ #                                                                     ",
"                                      $ % & * = - ; > , '                                                               ",
"                                    ) ! ~ { ] ^ / ( _ : < [ }                                                           ",
"                                  | 1 2 3 3 4 5 6 7 8 8 _ 9 0                                                           ",
"                                a b c c d e f g h i j k l - m > n                                                       ",
"                                o p q r s t u v w x y z A A B C < D                                                     ",
"                                < E F G H I J K L M N O P Q R S T U V                                                   ",
"                              V W X G Y Z `  ...+.@.#.$.%.&.*.=.@.-.;.'                                                 ",
"                            >.> ,.G F W '.).!.~.{.T ].^./.(._.#.:.<.[.}.9                                               ",
"                            < > |.G Z 1.2.3.4.5.6.^.7.8.9.0.0.( a.b.+.c.d.e.                                            ",
"                          < V 1.e.F Y f.[.[.g.h.^.0.0.i.0.j.j.0.i.k.l.O m.> n.                                          ",
"                          d., Y o.p.q.r.+.s.t.u.i.y 0.v.y w.u.u.0.8.x.y.z.A.V ,                                         ",
"                          n.B.Z C.D.E.F.:.G.v.0.y 0.0.y 8.8.H.w.i.^.I.8.J.K.L.M.n                                       ",
"                          N.O.P.Q.R.R.S.T.x.y 0.0.6.6.6.8.8.U.H.0.6.7.I.V.W.X.Y.o.e.                                    ",
"                          Z.`. +.+.+R.++T.@+#+H.$+7.%+$+I.%+$+7.^.i.%+I.&+*+y.=+@+9 -+                                  ",
"                          ;+>+,+.+.+'+)+!+~+%+I.I.I.I.I.I.I.I.I.8.C I.I.{+]+^+/+(+d._+                                  ",
"                          :+<+.+.+.+)+[+}+|+I.I.I.I.I.I.I.I.I.I.I.I.I.I.1+2+3+4+5+6+7+C.                                ",
"                        R..+.+.+.+8+9+0+5+I.I.I.I.I.I.I.I.I.I.I.I.I.I.a+b+c+d+e+f+g+6+-                                 ",
"                      .+.+.+.+.+h+i+j+).k+I.I.I.I.I.I.I.I.I.I.I.I.I.I.l+m+n+o+p+q+r+M.s+                                ",
"                  t+u+v+.+.+.+w+x+y+z+A+B+a+I.I.I.I.I.I.I.I.I.I.I.I.I.C+D+d E+F+G+H+I+s+                                ",
"                  J+K+.+.+.+.+L+M+N+O+P+Q+R+a+I.I.I.I.I.I.I.I.I.I.I.y.S+T+d w U+V+W+X+Y+                                ",
"              Z+Z+`+ @.+.+.+R..@+@@@#@$@%@&@R+*@=@I.I.I.I.I.I.I.I.-@;@>@,@g '@e e )@!@                                  ",
"              ~@{@]@.+.+.+^@/@(@_@:@<@[@}@|@1@2@2@3@4@7.a+I.I.I.5@6@7@8@9@g '@0@e a@                                    ",
"            b@c@d@e@.+f@g@h@i@j@k@l@m@n@o@p@^+q@k+r@]+s@]+t@u@v@w@4+x@y@z@A@w e { B@                                    ",
"          .+.+C@D@E@F@G@H@I@J@K@L@M@N@O@P@F G p@Q@^+X.5+R@S@5+T@G G 4+U@V@W@w g X@Y@                                    ",
"          .+.+.+Z@`@t+ #.#+#@###$#%#&#*#=#-#F X |.;#q@=#-#Z 4+F G G X # >#,#'#{ )#                                      ",
"        .+.+.+.+.+!#              m@~#G X F F X {#]#]#Z X |.^#-#X G G |.y@/#(#2                                         ",
"      .+.+.+.+.+.+                          G _#:#<#_#X G G G G G G G F [#p.}#                                          ",
"      .+.+.+.+                                    |#_#1#G G G G G G G |.                                                ",
"        .+.+                                                                                                            ",
"                                                                                                                        ",
"                                                                                                                        ",
"                                                                                                                        ",
"                                                                                                                        ",
"                                                                                                                        ",
"                                                                                                                        ",
"                                                                                                                        ",
"                                                                                                                        ",
"                                                                                                                        ",
"                                                                                                                        ",
"                                                                                                                        "};
