/* XPM */
static const char * enemy3[] = {
"60 60 295 2",
"  	c None",
". 	c #184112",
"+ 	c #194213",
"@ 	c #7D1C0E",
"# 	c #772710",
"$ 	c #702E11",
"% 	c #1F5017",
"& 	c #173F12",
"* 	c #163C11",
"= 	c #173C11",
"- 	c #163B10",
"; 	c #782610",
"> 	c #7B1E0E",
", 	c #88120E",
"' 	c #84180E",
") 	c #703112",
"! 	c #225619",
"~ 	c #1C4814",
"{ 	c #205218",
"] 	c #1A4514",
"^ 	c #183F12",
"/ 	c #194113",
"( 	c #5B2F0F",
"_ 	c #83170E",
": 	c #87190F",
"< 	c #87180F",
"[ 	c #822410",
"} 	c #832110",
"| 	c #215318",
"1 	c #245B1B",
"2 	c #1F4B1A",
"3 	c #163B11",
"4 	c #1B4414",
"5 	c #1B4714",
"6 	c #7B2C11",
"7 	c #861A0F",
"8 	c #861B0F",
"9 	c #842010",
"0 	c #851F0F",
"a 	c #415218",
"b 	c #205017",
"c 	c #23591A",
"d 	c #173D12",
"e 	c #235A1A",
"f 	c #723914",
"g 	c #7B2F12",
"h 	c #89130E",
"i 	c #88140E",
"j 	c #822110",
"k 	c #245A1B",
"l 	c #23511D",
"m 	c #22561A",
"n 	c #173E11",
"o 	c #604716",
"p 	c #7E2A11",
"q 	c #7E2911",
"r 	c #802710",
"s 	c #723512",
"t 	c #215519",
"u 	c #1F4D18",
"v 	c #564C18",
"w 	c #851D0F",
"x 	c #841E0F",
"y 	c #802410",
"z 	c #0E250B",
"A 	c #3C300E",
"B 	c #1D4D16",
"C 	c #205318",
"D 	c #22541B",
"E 	c #1C4615",
"F 	c #1C4915",
"G 	c #23591B",
"H 	c #375519",
"I 	c #2C2B0E",
"J 	c #153A10",
"K 	c #080B08",
"L 	c #0F290C",
"M 	c #13330F",
"N 	c #22581A",
"O 	c #225519",
"P 	c #22571A",
"Q 	c #205518",
"R 	c #13340E",
"S 	c #1D5015",
"T 	c #153B10",
"U 	c #215419",
"V 	c #173D11",
"W 	c #163E10",
"X 	c #24571C",
"Y 	c #204F19",
"Z 	c #1B4615",
"` 	c #1C4B15",
" .	c #0B160A",
"..	c #194613",
"+.	c #194413",
"@.	c #205118",
"#.	c #215418",
"$.	c #163911",
"%.	c #0F210D",
"&.	c #1A4515",
"*.	c #112D0E",
"=.	c #1A4414",
"-.	c #1C4815",
";.	c #1B4016",
">.	c #1C4A15",
",.	c #1B4216",
"'.	c #0D1C0C",
").	c #1D4D15",
"!.	c #1B4215",
"~.	c #163D11",
"{.	c #183B14",
"].	c #193914",
"^.	c #1E5017",
"/.	c #142F11",
"(.	c #0E1E0C",
"_.	c #1C4715",
":.	c #1D4E15",
"<.	c #173F11",
"[.	c #1B4815",
"}.	c #2F4111",
"|.	c #36380D",
"1.	c #39340A",
"2.	c #364010",
"3.	c #1E4A18",
"4.	c #11290F",
"5.	c #10240E",
"6.	c #153312",
"7.	c #1C4515",
"8.	c #1B4915",
"9.	c #2C350D",
"0.	c #3E2605",
"a.	c #3C2C07",
"b.	c #999221",
"c.	c #3B2F08",
"d.	c #1C4417",
"e.	c #11270F",
"f.	c #0E1F0D",
"g.	c #11260E",
"h.	c #1B4316",
"i.	c #1D4915",
"j.	c #352F09",
"k.	c #3B2605",
"l.	c #3D2505",
"m.	c #3B3209",
"n.	c #3A330A",
"o.	c #3A340A",
"p.	c #304111",
"q.	c #193D14",
"r.	c #0C1A0B",
"s.	c #0F200D",
"t.	c #1B3E16",
"u.	c #1D4815",
"v.	c #153C10",
"w.	c #234413",
"x.	c #352E08",
"y.	c #362A07",
"z.	c #373C0E",
"A.	c #285117",
"B.	c #1E4D16",
"C.	c #1A4413",
"D.	c #215219",
"E.	c #1C4316",
"F.	c #090E09",
"G.	c #132C10",
"H.	c #0D1D0C",
"I.	c #1C4415",
"J.	c #1B4015",
"K.	c #184212",
"L.	c #1B390F",
"M.	c #253B10",
"N.	c #D1CD7F",
"O.	c #DAD584",
"P.	c #DFDA88",
"Q.	c #C0BD74",
"R.	c #215319",
"S.	c #1D4617",
"T.	c #0B120A",
"U.	c #11260F",
"V.	c #1D4B15",
"W.	c #1A4713",
"X.	c #173813",
"Y.	c #21501B",
"Z.	c #23531D",
"`.	c #B4B36E",
" +	c #DBD686",
".+	c #0C1E0A",
"++	c #0A1309",
"@+	c #080808",
"#+	c #868850",
"$+	c #DCD786",
"%+	c #E8E28D",
"&+	c #194013",
"*+	c #0E1E0D",
"=+	c #0F240E",
"-+	c #1A4214",
";+	c #122F0F",
">+	c #090D09",
",+	c #4C492C",
"'+	c #49472A",
")+	c #102B0D",
"!+	c #524F30",
"~+	c #CAC47A",
"{+	c #B1AD6B",
"]+	c #142F10",
"^+	c #0B140A",
"/+	c #153012",
"(+	c #1B4115",
"_+	c #10260E",
":+	c #153410",
"<+	c #68653D",
"[+	c #C1BC75",
"}+	c #1D4417",
"|+	c #21541A",
"1+	c #122A0E",
"2+	c #12280F",
"3+	c #0D1B0C",
"4+	c #183814",
"5+	c #173613",
"6+	c #193B14",
"7+	c #0F260D",
"8+	c #080A08",
"9+	c #1B4116",
"0+	c #1E4C16",
"a+	c #163412",
"b+	c #0B150A",
"c+	c #0E200D",
"d+	c #0E210C",
"e+	c #0A1409",
"f+	c #BDB873",
"g+	c #DFD988",
"h+	c #E2DC8A",
"i+	c #C5C078",
"j+	c #64613B",
"k+	c #1E4918",
"l+	c #1C4317",
"m+	c #763413",
"n+	c #564A17",
"o+	c #1E4E17",
"p+	c #183B13",
"q+	c #173912",
"r+	c #132E10",
"s+	c #090F09",
"t+	c #190E07",
"u+	c #1B1408",
"v+	c #090B08",
"w+	c #080908",
"x+	c #67643D",
"y+	c #DAD585",
"z+	c #E5DF8B",
"A+	c #CDC77C",
"B+	c #9E9A5F",
"C+	c #723613",
"D+	c #793112",
"E+	c #23571A",
"F+	c #1F5118",
"G+	c #225719",
"H+	c #383A0D",
"I+	c #39390C",
"J+	c #393109",
"K+	c #1F4D19",
"L+	c #1C4216",
"M+	c #752911",
"N+	c #802711",
"O+	c #1D4916",
"P+	c #1D4816",
"Q+	c #23581A",
"R+	c #274F17",
"S+	c #234A16",
"T+	c #712811",
"U+	c #792B11",
"V+	c #86160F",
"W+	c #7C2D11",
"X+	c #1F4E18",
"Y+	c #1F4C17",
"Z+	c #712911",
"`+	c #7E2010",
" @	c #7C2210",
".@	c #851C0F",
"+@	c #5D3F14",
"@@	c #1E4A16",
"#@	c #3F3E16",
"$@	c #7A2110",
"%@	c #811D0F",
"&@	c #85180F",
"*@	c #712F12",
"=@	c #783212",
"-@	c #1E4B16",
";@	c #1D4716",
">@	c #1C4217",
",@	c #652F12",
"'@	c #5B3614",
")@	c #3E3C15",
"!@	c #3F3F16",
"~@	c #3F4315",
"{@	c #1F4C18",
"                                                                                                                        ",
"                                                                                                                        ",
"                                                                                                                        ",
"                                                                                                                        ",
"                                                                                                                        ",
"                                                                                                                        ",
"                                                                                                                        ",
"                                                                                                                        ",
"                                                                                                                        ",
"                                                                                                                        ",
"                                                                                                                        ",
"                                                                                                                        ",
"                                                                                                                        ",
"                                                                                                                        ",
"                                                                                                                        ",
"                                                          . + @ # $ %                                                   ",
"                                                  & * = - ; > , ' ) ! ~ {                                               ",
"                                                ] ^ / ( _ : < [ } ! | { ! 1                                             ",
"                                              2 3 4 5 6 } 7 8 9 0 a b c 1 1 1                                           ",
"                                              5 d * e f g } h i j { % k 1 1 1 1                                         ",
"                                            l m - n 1 o p q < r s { t 1 1 1 ! 1 1 1                                     ",
"                                            l u - 5 1 v w x y z A B C 1 1 1 t | 1 1                                     ",
"                                            D E F G 1 H I J K z J J L L M J N O 1 1 l                                   ",
"                                            P 4 n 1 Q z R J S S S S S S S T & ! 1 U 1 l                                 ",
"                                            m V & W J S S S S S S S S S S S J T { % | X                                 ",
"                                            Y Z `  .R S S S S S S S S S S S ..- +.@.% #.k                               ",
"                                            Y Z $.%.S S S S S S S S S S S S S ..J N { O ! 1                             ",
"                                            Y &.*.=.S S -.;.S S S S S S S S S S J >.1 ! { 1                             ",
"                                            1 ,.'.S S ).!.>.S S S S S S S S S S J ~.1 c % #.1                           ",
"                                            Y {.'.].).E E ).S S S S S S S S S S ..J ^.c @.% 1 1                         ",
"                                            Y /.(.].F _.!.).-.:.S S S S S S S S S <.[.1 ! }.|.1.2.                      ",
"                                            3.4.5.6.7._.;.).-.S S S S S S S S S S <.8.9.1.0.a.b.c.                      ",
"                                            d.e.f.g.h.i.E !.S -.-.S S S S S S S S <.j.k.l.m.n.o.1.p.                    ",
"                                            d.q.r.s.t.>.u._.E E -.F S S S S S S S v.w.x.y.z.A.1 U B.C.                  ",
"                                            D.E.F.G.H.I.>.E J.-._._.-.:.S S S S K.+ B L.M.* J N.O.P.Q.                  ",
"                                            R.S.T.f.U./.S >.E E E E E _.V.).W.X.3 Y.Z.`. +.+++@+#+P.$+%+%+              ",
"                                            D.S.&+'.*+=+E S S _.7.7._.E E -+%.;+d l >+,+'+@+@+@+@+@+)+!+~+{+@+@+        ",
"                                              S.S.]+^+'./+].!.).>.I.(+;.-+_+'.:+r.@+@+@+@+@+@+@+@+@+@+@+<+[+@+@+@+@+@+@+",
"                                            }+Y d.|+1+2+3+H./+4+t.].5+6+%.'.7+8+@+@+@+@+@+@+@+@+@+@+@+@+@+@+@+@+@+@+@+@+",
"                                              Y 9+S.1 0+a+s.b+'.c+c+c+*+H.d+e+@+@+@+@+@+@+@+@+@+@+f+g+h+i+j+@+@+@+@+@+@+",
"                                              k+9+d.l+m+p [ } n+o+p+q+r+s+@+@+@+@+@+t+u+v+w+@+@+x+y+h+z+A+B+@+@+@+      ",
"                                              m 9+E.9+C+i i w D+1 0+R._.E+1 F+o+G+H+I+J+          %+  %+%+              ",
"                                                K+9+L+M+< h N+D+1 O+! 1 1 E+P+{ Q+R+S+                                  ",
"                                                1 l+;.T+U+V+x W+1 1 1 1 1 E+O+X+Y+X+                                    ",
"                                                  k 9+Z+`+ @[ .@+@Q+E+1 R.@@P+O+P+                                      ",
"                                                    1 #@$@%@&@*@w =@-@;@O+P+P+                                          ",
"                                                        >@,@'@)@!@~@{@                                                  ",
"                                                                                                                        ",
"                                                                                                                        ",
"                                                                                                                        ",
"                                                                                                                        ",
"                                                                                                                        ",
"                                                                                                                        ",
"                                                                                                                        ",
"                                                                                                                        ",
"                                                                                                                        ",
"                                                                                                                        ",
"                                                                                                                        ",
"                                                                                                                        ",
"                                                                                                                        "};
