/* XPM */
static const char * enemy23[] = {
"60 60 427 2",
"  	c None",
". 	c #693712",
"+ 	c #374B16",
"@ 	c #214D17",
"# 	c #205218",
"$ 	c #225519",
"% 	c #732910",
"& 	c #7D2210",
"* 	c #80200F",
"= 	c #6F3112",
"- 	c #454A16",
"; 	c #224F18",
"> 	c #205018",
", 	c #215219",
"' 	c #205119",
") 	c #1F4F18",
"! 	c #6D2D10",
"~ 	c #7A2510",
"{ 	c #7E2110",
"] 	c #81200F",
"^ 	c #6E3713",
"/ 	c #434D17",
"( 	c #245318",
"_ 	c #23571A",
": 	c #245A1B",
"< 	c #245B1B",
"[ 	c #215319",
"} 	c #205019",
"| 	c #7B2310",
"1 	c #841C0F",
"2 	c #832010",
"3 	c #7A2911",
"4 	c #564616",
"5 	c #2B5318",
"6 	c #23591A",
"7 	c #215419",
"8 	c #1C3D12",
"9 	c #573210",
"0 	c #811F0F",
"a 	c #7F2110",
"b 	c #7D2510",
"c 	c #6C3813",
"d 	c #2C5118",
"e 	c #22561A",
"f 	c #235A1B",
"g 	c #24591B",
"h 	c #225619",
"i 	c #22541A",
"j 	c #184013",
"k 	c #2D3E12",
"l 	c #673011",
"m 	c #7B2410",
"n 	c #7F2010",
"o 	c #802210",
"p 	c #623C14",
"q 	c #344E17",
"r 	c #215519",
"s 	c #1F4F17",
"t 	c #205318",
"u 	c #215318",
"v 	c #225719",
"w 	c #194314",
"x 	c #1A4414",
"y 	c #1E4413",
"z 	c #4E4014",
"A 	c #7B2610",
"B 	c #81220F",
"C 	c #7B220F",
"D 	c #5F3311",
"E 	c #304814",
"F 	c #1F4A15",
"G 	c #1C4A16",
"H 	c #183C13",
"I 	c #194013",
"J 	c #194114",
"K 	c #1B4714",
"L 	c #1E4D16",
"M 	c #205117",
"N 	c #1C4616",
"O 	c #1C4615",
"P 	c #1E4714",
"Q 	c #354F18",
"R 	c #634315",
"S 	c #783112",
"T 	c #7E2210",
"U 	c #7C2110",
"V 	c #6B240F",
"W 	c #342E0E",
"X 	c #243D12",
"Y 	c #183A13",
"Z 	c #193E13",
"` 	c #1A4213",
" .	c #193E14",
"..	c #184112",
"+.	c #1B4815",
"@.	c #1D4D17",
"#.	c #22581A",
"$.	c #1C4816",
"%.	c #1B4614",
"&.	c #2C4E17",
"*.	c #495119",
"=.	c #6B3D14",
"-.	c #7A2310",
";.	c #66260E",
">.	c #283512",
",.	c #1B3912",
"'.	c #193D13",
").	c #1B4C14",
"!.	c #1C4E14",
"~.	c #1D5015",
"{.	c #1A4614",
"].	c #193F13",
"^.	c #183E13",
"/.	c #1C4A15",
"(.	c #1F5218",
"_.	c #23581A",
":.	c #205118",
"<.	c #22561B",
"[.	c #324E16",
"}.	c #1F4E19",
"|.	c #1D4916",
"1.	c #194313",
"2.	c #1F4D16",
"3.	c #375419",
"4.	c #433510",
"5.	c #1E3812",
"6.	c #1B3B13",
"7.	c #1B4A14",
"8.	c #1D4F15",
"9.	c #1C4F14",
"0.	c #225318",
"a.	c #34400F",
"b.	c #42440F",
"c.	c #4F470E",
"d.	c #49400C",
"e.	c #204F1A",
"f.	c #1E4B17",
"g.	c #1C4715",
"h.	c #1F5017",
"i.	c #255519",
"j.	c #274B15",
"k.	c #1A3913",
"l.	c #193B13",
"m.	c #1B4814",
"n.	c #1C4D14",
"o.	c #194213",
"p.	c #183C12",
"q.	c #1B4715",
"r.	c #245819",
"s.	c #353C0E",
"t.	c #39330A",
"u.	c #564E0F",
"v.	c #6A6315",
"w.	c #524F11",
"x.	c #363E11",
"y.	c #215019",
"z.	c #1E4C17",
"A.	c #1C4815",
"B.	c #1C4B15",
"C.	c #1F5118",
"D.	c #183B13",
"E.	c #1C4C14",
"F.	c #194413",
"G.	c #194212",
"H.	c #1D4B16",
"I.	c #274914",
"J.	c #38320A",
"K.	c #3A2F08",
"L.	c #534A0F",
"M.	c #4C4C12",
"N.	c #3C4717",
"O.	c #39521F",
"P.	c #7D834A",
"Q.	c #9EA060",
"R.	c #080808",
"S.	c #1F4E18",
"T.	c #173E12",
"U.	c #1A4713",
"V.	c #204212",
"W.	c #36320A",
"X.	c #392E08",
"Y.	c #3A2E08",
"Z.	c #37370D",
"`.	c #465222",
" +	c #818A4D",
".+	c #AEAF69",
"++	c #CCC97C",
"@+	c #D5D182",
"#+	c #D6D283",
"$+	c #D0CA7E",
"%+	c #84804F",
"&+	c #1D1C11",
"*+	c #1F4D17",
"=+	c #163A11",
"-+	c #173812",
";+	c #1B4913",
">+	c #1D4C15",
",+	c #1C4916",
"'+	c #1D4E15",
")+	c #1F3F10",
"!+	c #2F370C",
"~+	c #382F09",
"{+	c #3C3510",
"]+	c #2E3C10",
"^+	c #4F5C2E",
"/+	c #9B9C5D",
"(+	c #C3C076",
"_+	c #D4D081",
":+	c #D0CC7E",
"<+	c #D0CC7F",
"[+	c #CCC87C",
"}+	c #CEC97D",
"|+	c #4A472B",
"1+	c #1C1B11",
"2+	c #090908",
"3+	c #1F4D18",
"4+	c #1B4414",
"5+	c #163911",
"6+	c #183912",
"7+	c #1C4B14",
"8+	c #1D4D15",
"9+	c #1C4915",
"0+	c #1E4211",
"a+	c #234011",
"b+	c #51592C",
"c+	c #6B6D3D",
"d+	c #747644",
"e+	c #293518",
"f+	c #7E7C4B",
"g+	c #878350",
"h+	c #737044",
"i+	c #6F6D42",
"j+	c #585734",
"k+	c #373520",
"l+	c #4B492C",
"m+	c #2A2919",
"n+	c #191910",
"o+	c #0A0A08",
"p+	c #153811",
"q+	c #1C4D15",
"r+	c #485D2B",
"s+	c #9C9E5E",
"t+	c #CBC77B",
"u+	c #96945A",
"v+	c #64643C",
"w+	c #15160D",
"x+	c #2F2D1B",
"y+	c #11110B",
"z+	c #15140D",
"A+	c #0D0D09",
"B+	c #3E3B23",
"C+	c #5D5A36",
"D+	c #6E6A41",
"E+	c #5B5835",
"F+	c #312F1C",
"G+	c #1C4C15",
"H+	c #1A4714",
"I+	c #1E4818",
"J+	c #767D47",
"K+	c #9F9D60",
"L+	c #797648",
"M+	c #242315",
"N+	c #262516",
"O+	c #84814F",
"P+	c #D1CD80",
"Q+	c #8D8954",
"R+	c #565332",
"S+	c #183D14",
"T+	c #142F10",
"U+	c #183813",
"V+	c #1A4014",
"W+	c #1C4515",
"X+	c #1D4915",
"Y+	c #173B13",
"Z+	c #1D4518",
"`+	c #1D3415",
" @	c #2D2E1B",
".@	c #10100B",
"+@	c #0D0C0A",
"@@	c #12110C",
"#@	c #63613A",
"$@	c #B1AD6B",
"%@	c #D8D383",
"&@	c #D9D484",
"*@	c #1D4917",
"=@	c #11290F",
"-@	c #163412",
";@	c #183913",
">@	c #1B4415",
",@	c #1D4A15",
"'@	c #1C4914",
")@	c #173D12",
"!@	c #122C0F",
"~@	c #132E0F",
"{@	c #11290E",
"]@	c #0C160B",
"^@	c #090909",
"/@	c #1E1D12",
"(@	c #595634",
"_@	c #BDB872",
":@	c #DBD585",
"<@	c #E6E08C",
"[@	c #143211",
"}@	c #10230E",
"|@	c #153011",
"1@	c #143310",
"2@	c #10260D",
"3@	c #0D1C0B",
"4@	c #0A1209",
"5@	c #0B0A08",
"6@	c #0C0B08",
"7@	c #0C0C0A",
"8@	c #12280E",
"9@	c #10250E",
"0@	c #153311",
"a@	c #1B4314",
"b@	c #1B4115",
"c@	c #10280E",
"d@	c #0C1A0B",
"e@	c #090E09",
"f@	c #080908",
"g@	c #1B1708",
"h@	c #2C2308",
"i@	c #2F2608",
"j@	c #0F220D",
"k@	c #1B4515",
"l@	c #1A3E15",
"m@	c #173111",
"n@	c #173011",
"o@	c #091009",
"p@	c #080D08",
"q@	c #0B1A0A",
"r@	c #14290D",
"s@	c #332E0A",
"t@	c #382E09",
"u@	c #10240E",
"v@	c #10250D",
"w@	c #1A4114",
"x@	c #1A4214",
"y@	c #1B4215",
"z@	c #193C14",
"A@	c #183512",
"B@	c #162A10",
"C@	c #15270F",
"D@	c #0F210C",
"E@	c #0C1A0A",
"F@	c #132F0E",
"G@	c #1E4615",
"H@	c #294814",
"I@	c #35380D",
"J@	c #35390E",
"K@	c #143010",
"L@	c #0F240D",
"M@	c #12260E",
"N@	c #142C10",
"O@	c #172B10",
"P@	c #162C10",
"Q@	c #152F10",
"R@	c #153511",
"S@	c #173A12",
"T@	c #22571A",
"U@	c #204F18",
"V@	c #1A3F14",
"W@	c #163713",
"X@	c #112A0E",
"Y@	c #142B0F",
"Z@	c #16270F",
"`@	c #54260F",
" #	c #652610",
".#	c #58260F",
"+#	c #3C3E14",
"@#	c #244515",
"##	c #205319",
"$#	c #1F4C17",
"%#	c #1C4415",
"&#	c #204415",
"*#	c #6C2B11",
"=#	c #782310",
"-#	c #7A2210",
";#	c #7A2610",
">#	c #624014",
",#	c #3C5118",
"'#	c #225018",
")#	c #1E4A18",
"!#	c #1E4C18",
"~#	c #204918",
"{#	c #3A4717",
"]#	c #722E12",
"^#	c #783312",
"/#	c #564A17",
"(#	c #2B561A",
"_#	c #1F4C18",
":#	c #1E4B18",
"<#	c #344316",
"[#	c #5D3714",
"}#	c #7E2611",
"|#	c #6C3E14",
"1#	c #4E4D18",
"2#	c #32561A",
"3#	c #2C5519",
"4#	c #1E4D18",
"5#	c #1F4A17",
"6#	c #4E3B14",
"7#	c #801F0F",
"8#	c #7D2310",
"9#	c #6C3A14",
"0#	c #5A4415",
"a#	c #3E4B17",
"b#	c #204E18",
"c#	c #2E4717",
"d#	c #653313",
"e#	c #7F230F",
"f#	c #653813",
"g#	c #404616",
"h#	c #224D18",
"i#	c #254D18",
"j#	c #4B4016",
"k#	c #6A3113",
"l#	c #7B2411",
"m#	c #7F200F",
"n#	c #7C2310",
"o#	c #6E2E12",
"p#	c #31531A",
"q#	c #543F15",
"r#	c #702B12",
"s#	c #792511",
"t#	c #7B2510",
"                                                                                                                        ",
"                                                                                                                        ",
"                                                                                                                        ",
"                                                                                                                        ",
"                                                                                                                        ",
"                                                                                                                        ",
"                                                                                                                        ",
"                                                                                                                        ",
"                                                                                                                        ",
"                                                                                                                        ",
"                                                                                                                        ",
"                                                                                                                        ",
"                                                      . + @ # $                                                         ",
"                                                % & * = - ; > , , , ' > )                                               ",
"                                              ! ~ { ] ^ / ( _ : < < [ } , ) )                                           ",
"                                              | & 1 2 3 4 5 _ : < : 6 < [ 7 }                                           ",
"                                          8 9 | 0 a a b c d e f < g h _ : : , ' i                                       ",
"                                        j k l m n a a o p q r h 7 s t u v h e , } ,                                     ",
"                                      w x y z A B { { C D E F G H I J K L M # u v > '                                   ",
"                                      N O P Q R S T U V W X Y Y Z `  .....+.@.7 #.i > :                                 ",
"                                      $.%.%.&.*.=.-.;.>.,.'.).!.~.~.{.].^.H /.(.#.6 _.:.<.[.                            ",
"                                      }.|.1.2.3.- 4.5.6.7.8.~.~.~.~.~.9.7.I Y +.t 6 _ 0.a.b.c.d.                        ",
"                                      e.f.g.h.i.j.k.l.m.~.~.~.~.~.~.~.~.~.n.o.p.q.t r.s.t.u.v.w.x.                      ",
"                                      y.z.A.B.C.'.D.7.8.~.~.~.~.~.~.~.~.~.~.E.F.G.H.I.J.K.L.M.N.O.P.Q.          R.R.R.R.",
"                                        S.A.o.T.Y ].~.8.8.~.~.~.~.~.~.~.~.~.~.E.U.V.W.X.Y.Z.`. +.+++@+@+#+$+%+&+R.R.R.R.",
"                                        *+*+{.=+-+;+8.>+,+'+~.~.~.~.~.~.~.~.~.8.;+)+!+~+{+]+^+/+(+_+:+<+[+}+|+1+2+R.R.R.",
"                                        S.3+4+5+6+7+8+9+9+8+~.~.~.~.~.~.~.~.~.~.n.0+a+b+c+d+e+f+g+h+i+j+k+l+m+n+o+R.R.  ",
"                                          S.O p+D.7+'+9+9+8+8+8.8.~.~.~.~.~.~.~.q+{.r+s+t+u+v+w+x+y+z+A+B+C+D+E+F+R.    ",
"                                          S.z.D.-+x A.g.g.9+G+8+'+'+8.~.~.~.8.8.H+w I+J+K+L+M+2+R.R.N+O+[+@+P+Q+R+      ",
"                                            S.S+T+U+V+O W+X+/.B.9+/.G+'+'+'+'+H+T.Y+Z+`+ @.@+@R.2+@@#@$@%@&@%@          ",
"                                            3+*@=@-@;@>@O O q.A.g.g.A.9+,@,@'@)@!@~@{@]@R.2+R.R.^@/@(@_@:@  <@          ",
"                                            3+3+[@}@|@Y O g.g.W+W+g.O g.g.O ` 1@2@3@4@R.R.5@6@2+R.7@                    ",
"                                              3+f.8@9@0@Y a@A.A.g.g.O W+>@b@;@c@d@e@R.f@g@h@i@g@                        ",
"                                              z.3+>@j@9@=@;@Z x B.A.g.k@l@m@n@d@o@p@q@r@s@~+t@                          ",
"                                                *+f.9@j@u@v@!@l.w@x@y@z@A@B@C@D@E@F@5+G@H@I@J@                          ",
"                                                s S.V+K@j@j@L@M@N@m@n@O@P@Q@R@S@g.T@_.> U@@                             ",
"                                                  S.3+V@W@X@Y@Z@`@ #.#+#@#O |.##: : e U@S.*+                            ",
"                                                  $#$#3+N %#&#*#=#-#;#>#,#'#_.: < 6 U@3+3+                              ",
"                                                    )#3+!#~#{#]#T { T ^#/#(#_ : _.) S.3+                                ",
"                                                      z._#:#<#[#& a a }#|#1#2#3#U@S.z.                                  ",
"                                                      !#4#_#5#6#~ a 7#T 8#9#0#a#b#z.                                    ",
"                                                        U@3+3+c#d#& 7#0 0 e#f#g#h#                                      ",
"                                                          $ U@i#j#k#l#m#& n#o#                                          ",
"                                                                p#q#r#s#t#                                              ",
"                                                                                                                        ",
"                                                                                                                        ",
"                                                                                                                        ",
"                                                                                                                        ",
"                                                                                                                        ",
"                                                                                                                        ",
"                                                                                                                        ",
"                                                                                                                        ",
"                                                                                                                        ",
"                                                                                                                        ",
"                                                                                                                        ",
"                                                                                                                        ",
"                                                                                                                        ",
"                                                                                                                        ",
"                                                                                                                        ",
"                                                                                                                        "};
