/* XPM */
static const char * enemy78[] = {
"60 60 396 2",
"  	c None",
". 	c #080808",
"+ 	c #E8E28D",
"@ 	c #2D2B1A",
"# 	c #A8A365",
"$ 	c #D8D283",
"% 	c #E7E18C",
"& 	c #0F0E0A",
"* 	c #868250",
"= 	c #E3DD8A",
"- 	c #DFDA88",
"; 	c #D0CB7E",
"> 	c #1C4416",
", 	c #1D4816",
"' 	c #434128",
") 	c #1F1E12",
"! 	c #0D0D0A",
"~ 	c #6F6C42",
"{ 	c #CCC67C",
"] 	c #CAC47B",
"^ 	c #858250",
"/ 	c #3E3D24",
"( 	c #1E4516",
"_ 	c #1D4516",
": 	c #1C4516",
"< 	c #1E4B17",
"[ 	c #1D4716",
"} 	c #1D4616",
"| 	c #1C4616",
"1 	c #712F12",
"2 	c #7A2510",
"3 	c #6C2E12",
"4 	c #8C8954",
"5 	c #14140D",
"6 	c #605D39",
"7 	c #080908",
"8 	c #090A08",
"9 	c #201B08",
"0 	c #2C290A",
"a 	c #304111",
"b 	c #264F17",
"c 	c #225519",
"d 	c #1F4E17",
"e 	c #1F4D17",
"f 	c #215419",
"g 	c #1D4818",
"h 	c #1D4817",
"i 	c #753112",
"j 	c #821E0F",
"k 	c #7D2110",
"l 	c #7C2210",
"m 	c #7A2410",
"n 	c #CDC77C",
"o 	c #595534",
"p 	c #0F120B",
"q 	c #090908",
"r 	c #110D08",
"s 	c #0D0A08",
"t 	c #171809",
"u 	c #214B15",
"v 	c #1F5118",
"w 	c #1E4D17",
"x 	c #215219",
"y 	c #24591B",
"z 	c #245B1B",
"A 	c #22571A",
"B 	c #22551A",
"C 	c #5F4416",
"D 	c #7E2410",
"E 	c #821D0F",
"F 	c #841A0F",
"G 	c #811D0F",
"H 	c #732911",
"I 	c #CAC57B",
"J 	c #7F7E4C",
"K 	c #090808",
"L 	c #0D1F0B",
"M 	c #194214",
"N 	c #23591A",
"O 	c #23571A",
"P 	c #23581A",
"Q 	c #6A3E15",
"R 	c #7F2610",
"S 	c #831D0F",
"T 	c #822010",
"U 	c #821C0F",
"V 	c #7A2311",
"W 	c #3B4517",
"X 	c #D2CD7F",
"Y 	c #DAD585",
"Z 	c #B8B56F",
"` 	c #51522F",
" .	c #0C0C09",
"..	c #090B08",
"+.	c #090F09",
"@.	c #0D1D0B",
"#.	c #183D13",
"$.	c #1C4715",
"%.	c #215218",
"&.	c #1E4C17",
"*.	c #5B4917",
"=.	c #822110",
"-.	c #822210",
";.	c #831C0F",
">.	c #762611",
",.	c #474016",
"'.	c #84894F",
").	c #C8C579",
"!.	c #D1CD7F",
"~.	c #99975C",
"{.	c #1E2112",
"].	c #0A1509",
"^.	c #504E2F",
"/.	c #35331E",
"(.	c #1B1B10",
"_.	c #080A08",
":.	c #0D1F0C",
"<.	c #0D1C0B",
"[.	c #0F240E",
"}.	c #153411",
"|.	c #1A4214",
"1.	c #1F5018",
"2.	c #7C2A11",
"3.	c #812210",
"4.	c #841E0F",
"5.	c #86180E",
"6.	c #7F2210",
"7.	c #702911",
"8.	c #253F16",
"9.	c #21531A",
"0.	c #214613",
"a.	c #224D16",
"b.	c #7B874A",
"c.	c #A7AA65",
"d.	c #153910",
"e.	c #12320E",
"f.	c #BAB771",
"g.	c #AFAD6B",
"h.	c #4E5830",
"i.	c #1C4218",
"j.	c #183B14",
"k.	c #122D0E",
"l.	c #122B0E",
"m.	c #0E210D",
"n.	c #0E200D",
"o.	c #10250E",
"p.	c #132B10",
"q.	c #122D10",
"r.	c #3C4014",
"s.	c #851A0F",
"t.	c #7E2310",
"u.	c #5D3513",
"v.	c #1C4116",
"w.	c #1C4316",
"x.	c #37350B",
"y.	c #38340B",
"z.	c #334311",
"A.	c #2C4F16",
"B.	c #333E10",
"C.	c #2C390E",
"D.	c #26390F",
"E.	c #5C6737",
"F.	c #21501A",
"G.	c #21501B",
"H.	c #173D12",
"I.	c #143310",
"J.	c #10240D",
"K.	c #132F10",
"L.	c #173A12",
"M.	c #193C14",
"N.	c #193B14",
"O.	c #173613",
"P.	c #153011",
"Q.	c #31290F",
"R.	c #691E0E",
"S.	c #822410",
"T.	c #831E10",
"U.	c #773212",
"V.	c #3B3F15",
"W.	c #1B4216",
"X.	c #1B4316",
"Y.	c #3B2C07",
"Z.	c #3B2D07",
"`.	c #6C6616",
" +	c #544D0F",
".+	c #3B2C08",
"++	c #3B2B07",
"@+	c #3A2B07",
"#+	c #283F10",
"$+	c #1C4614",
"%+	c #194313",
"&+	c #184112",
"*+	c #193F13",
"=+	c #184212",
"-+	c #1B4614",
";+	c #1C4615",
">+	c #1C4415",
",+	c #1B4215",
"'+	c #193C15",
")+	c #142D11",
"!+	c #0F1F0D",
"~+	c #29290F",
"{+	c #762711",
"]+	c #673914",
"^+	c #1C4317",
"/+	c #3D340A",
"(+	c #676114",
"_+	c #50470D",
":+	c #3B2605",
"<+	c #2F380D",
"[+	c #193D10",
"}+	c #1B4A14",
"|+	c #1C4E15",
"1+	c #1D5015",
"2+	c #1D4E15",
"3+	c #1D4D15",
"4+	c #1D4915",
"5+	c #1C4515",
"6+	c #1C4815",
"7+	c #11280F",
"8+	c #6C2810",
"9+	c #3E4D18",
"0+	c #1F4D18",
"a+	c #204F19",
"b+	c #393109",
"c+	c #353E0F",
"d+	c #393009",
"e+	c #34390D",
"f+	c #293C10",
"g+	c #253E10",
"h+	c #194312",
"i+	c #1C4B15",
"j+	c #1C4915",
"k+	c #132A10",
"l+	c #10240E",
"m+	c #1F4E19",
"n+	c #314713",
"o+	c #2C4E15",
"p+	c #323D0F",
"q+	c #235A1B",
"r+	c #1E4C16",
"s+	c #1D4F15",
"t+	c #1C4A15",
"u+	c #143211",
"v+	c #0D1C0C",
"w+	c #1C4517",
"x+	c #225719",
"y+	c #225619",
"z+	c #1A4614",
"A+	c #173D11",
"B+	c #132E10",
"C+	c #0F210E",
"D+	c #0E1F0D",
"E+	c #193D13",
"F+	c #235A1A",
"G+	c #194212",
"H+	c #163D10",
"I+	c #1B4B14",
"J+	c #163512",
"K+	c #153511",
"L+	c #184012",
"M+	c #163B10",
"N+	c #1B4C14",
"O+	c #1B4515",
"P+	c #1D4715",
"Q+	c #173812",
"R+	c #0E1D0C",
"S+	c #153111",
"T+	c #1D4717",
"U+	c #215619",
"V+	c #215318",
"W+	c #194213",
"X+	c #163C10",
"Y+	c #1C4D14",
"Z+	c #1D4C15",
"`+	c #1D4815",
" @	c #1A3E15",
".@	c #0F200D",
"+@	c #0B170B",
"@@	c #193D14",
"#@	c #215519",
"$@	c #205117",
"%@	c #22581A",
"&@	c #194513",
"*@	c #1B4B13",
"=@	c #183913",
"-@	c #10230E",
";@	c #1A3F15",
">@	c #22541B",
",@	c #1B4915",
"'@	c #174011",
")@	c #1B4415",
"!@	c #173813",
"~@	c #11270F",
"{@	c #10260F",
"]@	c #1A4015",
"^@	c #1E4E16",
"/@	c #1C4C15",
"(@	c #173412",
"_@	c #0F220D",
":@	c #132F11",
"<@	c #22561A",
"[@	c #245A1B",
"}@	c #225819",
"|@	c #194413",
"1@	c #173D10",
"2@	c #184111",
"3@	c #1B4016",
"4@	c #132B0F",
"5@	c #132D10",
"6@	c #1E5017",
"7@	c #153B10",
"8@	c #184011",
"9@	c #1B4914",
"0@	c #0D1D0C",
"a@	c #193D15",
"b@	c #1E4A18",
"c@	c #1C4617",
"d@	c #1A4413",
"e@	c #13340F",
"f@	c #194512",
"g@	c #153711",
"h@	c #1A4813",
"i@	c #1C4F15",
"j@	c #13340E",
"k@	c #0E200C",
"l@	c #163A11",
"m@	c #1A4314",
"n@	c #205318",
"o@	c #1D4D16",
"p@	c #2F360F",
"q@	c #13290C",
"r@	c #0E250B",
"s@	c #16360F",
"t@	c #153A0F",
"u@	c #14370F",
"v@	c #1B4814",
"w@	c #494916",
"x@	c #652D10",
"y@	c #78220F",
"z@	c #802110",
"A@	c #792610",
"B@	c #2C2B0E",
"C@	c #2C4514",
"D@	c #205317",
"E@	c #173E12",
"F@	c #1B4416",
"G@	c #265519",
"H@	c #713513",
"I@	c #812510",
"J@	c #832010",
"K@	c #832110",
"L@	c #7D2A11",
"M@	c #415419",
"N@	c #1B4414",
"O@	c #24571A",
"P@	c #4E4D17",
"Q@	c #841F0F",
"R@	c #87190F",
"S@	c #841F10",
"T@	c #832210",
"U@	c #822310",
"V@	c #684115",
"W@	c #39561A",
"X@	c #1B4615",
"Y@	c #3A5118",
"Z@	c #6A3C14",
"`@	c #851E10",
" #	c #842010",
".#	c #822311",
"+#	c #1F4A19",
"@#	c #334E17",
"##	c #712F11",
"$#	c #83190E",
"%#	c #812310",
"&#	c #484C17",
"*#	c #205118",
"=#	c #163C11",
"-#	c #1A4215",
";#	c #23511D",
">#	c #732B11",
",#	c #802210",
"'#	c #812110",
")#	c #72270F",
"!#	c #602E0F",
"~#	c #2A4213",
"{#	c #193F14",
"]#	c #732B10",
"^#	c #752A10",
"/#	c #792710",
"(#	c #7A2610",
"_#	c #1E3C11",
":#	c #194014",
"<#	c #1A4315",
"[#	c #1F4B1A",
"}#	c #1A4115",
"                                                                                                                        ",
"                                                                                                                        ",
"                                                                                                                        ",
"                                                                                                                        ",
"                                                                                                                        ",
"                                                                                                                        ",
"                                                                                                                        ",
"                                                                                                                        ",
"                                                                                                                        ",
"            . . . .                                                                                                     ",
"            . . . . . .   +                                                                                             ",
"          . . . . . . @ # $ %   +                                                                                       ",
"            . . . . . & * $ = - ;                 > > > > ,                                                             ",
"                . . ' ) ! ~ { ] ^ / .         ( _ : < [ } : | : 1 2 3                                                   ",
"                  . 4 ^ 5 . . 6 . . . 7 8 9 0 a b c d e c f g h i j k l m                                               ",
"                      n o p . . . . . . q r s t u v w x y z A B C D E F G H                                             ",
"                      + I J . . . . . . . . K . . L M z N O P c Q R S T U V W                                           ",
"                        X Y Z ` . .  .. . . . . . ..+.@.#.$.%.&.*.=.-.F ;.>.,.B                                         ",
"                        '.).!.~.{.].^./.(...7 _.7 L :.<.[.}.|.1.2.3.4.5.6.7.8.9.                                        ",
"                        0.a.b.c.d.e.f.g.h.i.j.k.l.m.n.o.p.n.q.r.i =.s.F t.u.v.w.z                                       ",
"                        x.y.z.A.B.C.D.E.F.G.H.I.J.K.L.M.N.O.P.o.Q.R.S.T.U.V.W.X.                                        ",
"                        Y.Z.`. +.+++@+#+$+%+&+*+=+-+;+>+,+,+,+'+)+!+~+{+]+^+w.W.B                                       ",
"                          /+(+_+++++:+<+[+}+|+1+2+3+4+$.;+5+6+3+M.7+n.8+9+0+W.X.a+                                      ",
"                          b+c+d+.+e+f+g+h+1+1+1+1+1+3+6+;+;+;+i+j+N.k+l+l.m+W.>                                         ",
"                          n+o+p+%.q+r+=+}+1+1+1+1+1+s+i+$.$.;+$.3+t+u+v+J.X.w.w+                                        ",
"                            N x+y+P z+A+1+1+1+1+1+1+1+2+6+$.;+,+j+1+B+C+D+E+w.X.                                        ",
"                            F+P P N G+H+I+1+1+1+1+1+1+1+t+$.$.;+6+6+J+l+D+K+X.>                                         ",
"                            A x+P N L+M+N+1+1+1+1+1+1+1+2+i+1+O+P+j+Q+7+R+S+> T+                                        ",
"                            y+U+V+P W+X+Y+1+1+1+1+1+1+1+s+Z+t+$.;+`+ @.@+@@@:                                           ",
"                            #@#@$@%@&@X+*@1+1+1+1+1+1+1+s+i+Z+5+>+;+=@-@o.;@X.                                          ",
"                            >@#@c x+,@M+'@1+1+1+1+1+1+1+1+s+Z+)@$.$.!@~@{@]@W.                                          ",
"                              #@y+P ^@M+L+Y+1+1+1+1+1+1+1+/@$.;+j+;+(@_@:@> W.                                          ",
"                              <@P [@}@|@1@2@1+1+1+1+1+1+s+3@;+Z+s+6+4@5@,+w+                                            ",
"                              A A P x+6@7@8@=+1+1+1+1+1+1+s+2+1+s+9@0@a@b@c@                                            ",
"                              P %@P #@f d@e@X+f@Y+1+1+1+1+1+1+s+&+g@g@c@a+                                              ",
"                                  F+x+[@z #@W+d.A+h@1+Y+Y+1+i@j@k@l@m@h T+                                              ",
"                                  %@%@z z [@n@o@p@q@r@7@s@t@&@7@u@v@| T+                                                ",
"                                  z U+z [@P #@w@x@y@z@A@B@C@D@U+|@E@F@>                                                 ",
"                                    F+U+N x+G@H@I@J@K@K@L@M@[@%@%+N@c@                                                  ",
"                                    #@A A O@P@Q@R@S@T@U@V@W@y+-+X@: T+                                                  ",
"                                      n@y+Y@Z@T@`@ # #.#V@N |@X+: +#                                                    ",
"                                        @###$#J@4.S@S@%#&#*#=#-#c@;#                                                    ",
"                                          >#,#'#,#t.)#!#~#m@{#X.                                                        ",
"                                              ]#^#/#(#_#:#-#<#[#                                                        ",
"                                                        :#}#                                                            ",
"                                                                                                                        ",
"                                                                                                                        ",
"                                                                                                                        ",
"                                                                                                                        ",
"                                                                                                                        ",
"                                                                                                                        ",
"                                                                                                                        ",
"                                                                                                                        ",
"                                                                                                                        ",
"                                                                                                                        ",
"                                                                                                                        ",
"                                                                                                                        ",
"                                                                                                                        ",
"                                                                                                                        ",
"                                                                                                                        "};
