/* XPM */
static const char * enemy81[] = {
"60 60 370 2",
"  	c None",
". 	c #080808",
"+ 	c #4C4A2D",
"@ 	c #0D0D0A",
"# 	c #212013",
"$ 	c #9A965D",
"% 	c #D1CB7F",
"& 	c #84814F",
"* 	c #B2AE6C",
"= 	c #282717",
"- 	c #32311D",
"; 	c #C9C47A",
"> 	c #DCD686",
", 	c #E8E28D",
"' 	c #D6D182",
") 	c #BBB671",
"! 	c #36351F",
"~ 	c #0F0F0B",
"{ 	c #DDD787",
"] 	c #E4DE8A",
"^ 	c #9B965D",
"/ 	c #1A1910",
"( 	c #AEA969",
"_ 	c #DBD586",
": 	c #E0DB89",
"< 	c #DDD886",
"[ 	c #B2AF6C",
"} 	c #0B1A0A",
"| 	c #5C5936",
"1 	c #A4A063",
"2 	c #5C6937",
"3 	c #CAC67A",
"4 	c #DAD585",
"5 	c #3C3A23",
"6 	c #214A15",
"7 	c #C2C076",
"8 	c #C5C278",
"9 	c #62623A",
"0 	c #36360C",
"a 	c #304211",
"b 	c #899253",
"c 	c #C0BC74",
"d 	c #34351E",
"e 	c #080908",
"f 	c #37390D",
"g 	c #3C360B",
"h 	c #38330A",
"i 	c #255A1B",
"j 	c #A1A261",
"k 	c #33371D",
"l 	c #090C08",
"m 	c #161408",
"n 	c #342F0A",
"o 	c #35370C",
"p 	c #245A1B",
"q 	c #37340B",
"r 	c #625C13",
"s 	c #3F3A0B",
"t 	c #343C0E",
"u 	c #234413",
"v 	c #12300E",
"w 	c #34371E",
"x 	c #2A2918",
"y 	c #090808",
"z 	c #2F2A09",
"A 	c #37320A",
"B 	c #275519",
"C 	c #24591B",
"D 	c #245B1B",
"E 	c #2F4A14",
"F 	c #36370C",
"G 	c #373009",
"H 	c #35350C",
"I 	c #33461C",
"J 	c #D7D283",
"K 	c #64613B",
"L 	c #211F13",
"M 	c #140C07",
"N 	c #35300A",
"O 	c #314211",
"P 	c #24581A",
"Q 	c #23571A",
"R 	c #215219",
"S 	c #23581A",
"T 	c #2B350D",
"U 	c #929358",
"V 	c #787948",
"W 	c #131809",
"X 	c #2C4D15",
"Y 	c #22561A",
"Z 	c #215319",
"` 	c #225318",
" .	c #333A0E",
"..	c #37310A",
"+.	c #34340B",
"@.	c #2E521E",
"#.	c #214E1B",
"$.	c #1B3E16",
"%.	c #090D09",
"&.	c #1A4414",
"*.	c #205118",
"=.	c #215119",
"-.	c #23591B",
";.	c #23591A",
">.	c #215519",
",.	c #235419",
"'.	c #283F11",
").	c #353009",
"!.	c #33340B",
"~.	c #1A4413",
"{.	c #1E4B18",
"].	c #1D4717",
"^.	c #122D0F",
"/.	c #0A1409",
"(.	c #112B0E",
"_.	c #1F4F18",
":.	c #1E4B17",
"<.	c #1F4D17",
"[.	c #225619",
"}.	c #235A1A",
"|.	c #205418",
"1.	c #1B4815",
"2.	c #163D11",
"3.	c #163B10",
"4.	c #163C11",
"5.	c #163911",
"6.	c #13320F",
"7.	c #122D0E",
"8.	c #091209",
"9.	c #0A1309",
"0.	c #080A08",
"a.	c #23581B",
"b.	c #1D4816",
"c.	c #22581A",
"d.	c #22571A",
"e.	c #1A4514",
"f.	c #194312",
"g.	c #1B4A13",
"h.	c #1D5015",
"i.	c #173D12",
"j.	c #143510",
"k.	c #14350F",
"l.	c #0C1A0B",
"m.	c #0B180A",
"n.	c #0B170A",
"o.	c #183D12",
"p.	c #1E4916",
"q.	c #1F4C18",
"r.	c #22571B",
"s.	c #205218",
"t.	c #163C10",
"u.	c #194613",
"v.	c #1D4F15",
"w.	c #1C4C14",
"x.	c #163A11",
"y.	c #143610",
"z.	c #0E200D",
"A.	c #0D1D0C",
"B.	c #11290E",
"C.	c #1C4715",
"D.	c #4D4816",
"E.	c #563F14",
"F.	c #1F5017",
"G.	c #1E4D16",
"H.	c #194313",
"I.	c #163E11",
"J.	c #1A4713",
"K.	c #1D4B15",
"L.	c #1C4615",
"M.	c #1A4114",
"N.	c #173812",
"O.	c #11270F",
"P.	c #132E10",
"Q.	c #1D4916",
"R.	c #215419",
"S.	c #265A1B",
"T.	c #5A4616",
"U.	c #7D2510",
"V.	c #653113",
"W.	c #1B4614",
"X.	c #174011",
"Y.	c #1B4A14",
"Z.	c #1B4315",
"`.	c #173B12",
" +	c #153610",
".+	c #112A0F",
"++	c #193F14",
"@+	c #1F4F17",
"#+	c #6B3813",
"$+	c #821C0F",
"%+	c #801E0F",
"&+	c #153B10",
"*+	c #184312",
"=+	c #1C4A15",
"-+	c #0F230E",
";+	c #1B4515",
">+	c #365519",
",+	c #5C4917",
"'+	c #753513",
")+	c #822210",
"!+	c #841B0F",
"~+	c #7D2010",
"{+	c #173E11",
"]+	c #1C4815",
"^+	c #1C4515",
"/+	c #143311",
"(+	c #333812",
"_+	c #674015",
":+	c #7E2B11",
"<+	c #802711",
"[+	c #85190F",
"}+	c #831C0F",
"|+	c #831B0F",
"1+	c #7B2210",
"2+	c #205318",
"3+	c #1C4C15",
"4+	c #1C4915",
"5+	c #153811",
"6+	c #221B0C",
"7+	c #861B0F",
"8+	c #86190F",
"9+	c #85180F",
"0+	c #7F2010",
"a+	c #821B0F",
"b+	c #782410",
"c+	c #153810",
"d+	c #1C4D14",
"e+	c #163312",
"f+	c #0F210D",
"g+	c #801A0F",
"h+	c #851B0F",
"i+	c #87160E",
"j+	c #831E10",
"k+	c #702B12",
"l+	c #4E4016",
"m+	c #184212",
"n+	c #1C4415",
"o+	c #1D4C15",
"p+	c #153011",
"q+	c #0F220D",
"r+	c #7B1E0F",
"s+	c #831D10",
"t+	c #831F10",
"u+	c #7C2310",
"v+	c #5E3213",
"w+	c #403C15",
"x+	c #194112",
"y+	c #13360E",
"z+	c #1D4D15",
"A+	c #153012",
"B+	c #782510",
"C+	c #633D14",
"D+	c #5E3814",
"E+	c #2C4016",
"F+	c #1A4115",
"G+	c #1B4415",
"H+	c #184112",
"I+	c #1B4B14",
"J+	c #1D4E15",
"K+	c #1B4215",
"L+	c #173A12",
"M+	c #10230D",
"N+	c #1B4314",
"O+	c #205018",
"P+	c #1A4214",
"Q+	c #1B4514",
"R+	c #1F4E16",
"S+	c #215318",
"T+	c #275117",
"U+	c #285118",
"V+	c #2F4213",
"W+	c #223A10",
"X+	c #1D4815",
"Y+	c #193B13",
"Z+	c #10240E",
"`+	c #0E1E0D",
" @	c #0F220C",
".@	c #1C4716",
"+@	c #1D4617",
"@@	c #1A4215",
"#@	c #194114",
"$@	c #1A4314",
"%@	c #484916",
"&@	c #4D4A16",
"*@	c #3F5118",
"=@	c #663F14",
"-@	c #772F12",
";@	c #6F3111",
">@	c #1B350F",
",@	c #13340F",
"'@	c #0E210D",
")@	c #143010",
"!@	c #722C11",
"~@	c #7C2510",
"{@	c #832110",
"]@	c #84200F",
"^@	c #841E0F",
"/@	c #781F0E",
"(@	c #40290D",
"_@	c #153A10",
":@	c #1A4813",
"<@	c #1A4015",
"[@	c #12290F",
"}@	c #10250E",
"|@	c #112A0E",
"1@	c #84180F",
"2@	c #851A0F",
"3@	c #841E10",
"4@	c #87190F",
"5@	c #86180F",
"6@	c #841D10",
"7@	c #78240F",
"8@	c #183810",
"9@	c #153910",
"0@	c #1B4615",
"a@	c #193C14",
"b@	c #122C10",
"c@	c #193E13",
"d@	c #811B0F",
"e@	c #7F1C0E",
"f@	c #4A3310",
"g@	c #193810",
"h@	c #173F11",
"i@	c #1C4E15",
"j@	c #173412",
"k@	c #0F230D",
"l@	c #163512",
"m@	c #712A10",
"n@	c #7F1F0F",
"o@	c #811E0F",
"p@	c #841C0F",
"q@	c #832010",
"r@	c #802511",
"s@	c #684115",
"t@	c #3D551A",
"u@	c #13350F",
"v@	c #11280E",
"w@	c #10270E",
"x@	c #11260E",
"y@	c #122B10",
"z@	c #183D13",
"A@	c #194113",
"B@	c #772410",
"C@	c #7A210F",
"D@	c #7C2B12",
"E@	c #634516",
"F@	c #415419",
"G@	c #194513",
"H@	c #163B11",
"I@	c #183F12",
"J@	c #173912",
"K@	c #193E15",
"L@	c #1A4315",
"M@	c #602F10",
"N@	c #652E10",
"O@	c #3D4213",
"P@	c #1D4C16",
"Q@	c #1A4513",
"R@	c #1D4B16",
"S@	c #173F12",
"T@	c #194213",
"U@	c #1A4213",
"V@	c #194013",
"W@	c #163D10",
"X@	c #1B4414",
"Y@	c #1E4D17",
"Z@	c #1E4A19",
"`@	c #1D4917",
" #	c #21501A",
".#	c #23511D",
"                                                  . . . .                                                               ",
"                                                    . . . .                                                             ",
"                                                    . . . . .                                                           ",
"                                                    . . . . +                                                           ",
"                                                    . . @ # $ %                                                         ",
"                                                    & * = - ; > ,                                                       ",
"                                                    ' ) ! ~ { ]                                                         ",
"                                                    , ^ / . ( _ : ,                                                     ",
"                                                    < [ } . | ( 1                                                       ",
"                                                  2 3 4 - . . . 5                                                       ",
"                                                  6 7 8 9 . . . . .                                                     ",
"                                                0 a b c d . . . . e                                                     ",
"                                              f g h i j k l . . . m n o p                                               ",
"                                              q r s t u v w x . . y z A B C                                             ",
"                                            D E F G G H I J K L . . M N O P Q R                                         ",
"                                            p S o G G G T U V # . . y W X S Y Q Q                                       ",
"                                          S S Z `  ...G +.@.#.$.%.. . . &.*.Z *.Q =.                                    ",
"                                        -.-.;.>.S ,.'.).!.~.{.].^./.. e (._.:.Q <.Q                                     ",
"                                      S -.p [.}.|.1.2.3.2.4.3.5.6.7.8.9.0.*.S p a._.b.                                  ",
"                                      c.p [.d.>.e.2.f.g.h.h.h.i.j.k.l.m.n.o.S D p S p.q.                                ",
"                                    r.p S s.>.e.t.u.v.h.h.h.h.w.~.x.y.z.A.B.C.S p S D.E.                                ",
"                                    c.p F.G.H.I.J.v.h.h.h.h.h.h.K.L.M.N.O.P.Q.s.R.S.T.U.V.                              ",
"                                  -.c.;.[.W.X.Y.h.h.h.h.h.h.h.h.K.C.Z.`. +.+++@+>.D #+$+%+                              ",
"                                ;.c.p S s.&+*+h.h.h.h.h.h.h.h.v.=+L.L.M.5.-+;+>+,+'+)+!+$+~+                            ",
"                                c.c.Q S 1.{+Y.h.h.h.h.h.h.h.h.h.]+L.^+C.++/+(+_+:+<+[+}+|+1+                            ",
"                                -.-.d.2+4.*+h.h.h.h.h.h.h.h.h.3+]+C.L.]+4+5+6+)+7+8+9+0+a+b+                            ",
"                              ;.-.C C d.c+d+h.h.h.h.h.h.h.h.v.4+]+C.L.=+L.e+f+g+h+i+j+$+k+l+                            ",
"                              S c.D D D 4.m+h.h.h.h.h.h.h.h.h.4+C.^+n+o+]+p+q+r+s+t+u+v+w+Y                             ",
"                              d.p D p p x+y+h.h.h.h.h.h.h.v.z+3+o+^+L.3+4+A+q+B+C+D+E+F+G+p                             ",
"                              d.S ;.>.>.H+x.I+h.h.h.h.h.h.J+4+K.K+C.4+3+L+q+M+N+O+P+M.P+Q+                              ",
"                              R+S+T+U+s.V+W+*+h.h.h.h.h.z+z+o+C.n+X+]+Y+Z+`+ @.@+@@@#@$@                                ",
"                            F.%@&@*@=@-@;@>@,@d+h.h.h..@^+L.^+G+C.]+K+'@Z+A.)@.@K+P+$@Y                                 ",
"                              !@~@{@]@8+^@/@(@_@:@h.h.J+4+4+L.]+L.<@[@}@f+|@Z.P+&.;+                                    ",
"                              $+1@2@3@4@5@6@7@8@9@:@d+h.h.v.J+0@a@b@q+l.q+c@P+Z.N+                                      ",
"                              d@b+e@5@[+3@s+2@f@g@3.2.h@i@3+3+j@}@k@-+l@P+&.C.                                          ",
"                                m@n@o@p@q@r@s@t@B 3+9@u@q+v@w@q+x@y@z@A@;+R                                             ",
"                                  B@C@a+D@E@F@D p }.G@H@I@5.J@K@L@$@G+                                                  ",
"                                    M@N@O@2+P@Q@G.R@S@T@T@&..@Q.Q.                                                      ",
"                                    4.I@U@V@2.W@A@$@T@U@;+&.X@                                                          ",
"                                      S@H.H@A@0@X@G+0@Y@                                                                ",
"                                          Z@`@ #.#^+                                                                    ",
"                                                                                                                        ",
"                                                                                                                        ",
"                                                                                                                        ",
"                                                                                                                        ",
"                                                                                                                        ",
"                                                                                                                        ",
"                                                                                                                        ",
"                                                                                                                        ",
"                                                                                                                        ",
"                                                                                                                        ",
"                                                                                                                        ",
"                                                                                                                        ",
"                                                                                                                        ",
"                                                                                                                        ",
"                                                                                                                        ",
"                                                                                                                        ",
"                                                                                                                        ",
"                                                                                                                        ",
"                                                                                                                        "};
