/* XPM */
static const char * enemy12[] = {
"60 60 443 2",
"  	c None",
". 	c #080808",
"+ 	c #31301C",
"@ 	c #868250",
"# 	c #4E4D2E",
"$ 	c #0C0C09",
"% 	c #090908",
"& 	c #E5DF8B",
"* 	c #DED887",
"= 	c #D5CF81",
"- 	c #84804E",
"; 	c #202013",
"> 	c #3E3C24",
", 	c #444227",
"' 	c #82884E",
") 	c #CAC77B",
"! 	c #DBD585",
"~ 	c #C8C379",
"{ 	c #B8B36F",
"] 	c #84814F",
"^ 	c #888451",
"/ 	c #8F8A55",
"( 	c #344311",
"_ 	c #3B3009",
": 	c #4F460D",
"< 	c #36390D",
"[ 	c #3A4F1E",
"} 	c #9FA160",
"| 	c #D9D484",
"1 	c #C5C178",
"2 	c #7A7849",
"3 	c #232214",
"4 	c #837F4E",
"5 	c #CFCA7D",
"6 	c #D9D383",
"7 	c #DAD484",
"8 	c #245A1B",
"9 	c #24591B",
"0 	c #394C14",
"a 	c #605A12",
"b 	c #726C17",
"c 	c #383D0F",
"d 	c #385B24",
"e 	c #C8C579",
"f 	c #908D56",
"g 	c #35361F",
"h 	c #090A08",
"i 	c #B1AC6A",
"j 	c #E2DC89",
"k 	c #E6E08C",
"l 	c #24591C",
"m 	c #23581B",
"n 	c #23591A",
"o 	c #225719",
"p 	c #205318",
"q 	c #353E0F",
"r 	c #49400C",
"s 	c #473D0B",
"t 	c #394A15",
"u 	c #929958",
"v 	c #C4C076",
"w 	c #A39F62",
"x 	c #282917",
"y 	c #504E2F",
"z 	c #B7B26F",
"A 	c #E1DB88",
"B 	c #245B1B",
"C 	c #225519",
"D 	c #215318",
"E 	c #23581A",
"F 	c #235318",
"G 	c #314311",
"H 	c #3C3209",
"I 	c #344112",
"J 	c #5E6A38",
"K 	c #9C995D",
"L 	c #66633C",
"M 	c #0A0A09",
"N 	c #959259",
"O 	c #C9C47A",
"P 	c #205218",
"Q 	c #205118",
"R 	c #215519",
"S 	c #22581A",
"T 	c #235A1A",
"U 	c #245819",
"V 	c #2B4914",
"W 	c #3A2E08",
"X 	c #303C0F",
"Y 	c #19350F",
"Z 	c #232A15",
"` 	c #080B08",
" .	c #14130D",
"..	c #444228",
"+.	c #8E8A55",
"@.	c #225619",
"#.	c #1D4C16",
"$.	c #1C4B16",
"%.	c #1F5118",
"&.	c #1F5017",
"*.	c #1E5017",
"=.	c #1F4F17",
"-.	c #2A3E11",
";.	c #362F09",
">.	c #372B07",
",.	c #52552B",
"'.	c #919056",
").	c #8A8854",
"!.	c #14150D",
"~.	c #0A0909",
"{.	c #1E4D16",
"].	c #215418",
"^.	c #1C4815",
"/.	c #173F11",
"(.	c #184212",
"_.	c #184112",
":.	c #174112",
"<.	c #163D10",
"[.	c #184312",
"}.	c #1A4513",
"|.	c #244011",
"1.	c #2E370D",
"2.	c #2B3A0E",
"3.	c #6B6F3D",
"4.	c #BBB871",
"5.	c #8F8B55",
"6.	c #2C2A19",
"7.	c #080908",
"8.	c #384B16",
"9.	c #2A5017",
"0.	c #1E4C16",
"a.	c #194313",
"b.	c #194413",
"c.	c #194512",
"d.	c #1B4B14",
"e.	c #1A4813",
"f.	c #1A4913",
"g.	c #184111",
"h.	c #223C0F",
"i.	c #1F4413",
"j.	c #878E51",
"k.	c #8D8E55",
"l.	c #4A4A2C",
"m.	c #1D1B11",
"n.	c #0A0A08",
"o.	c #7F220F",
"p.	c #6A3412",
"q.	c #404F17",
"r.	c #285218",
"s.	c #235418",
"t.	c #22561A",
"u.	c #235A1B",
"v.	c #1A4514",
"w.	c #194412",
"x.	c #1C4E15",
"y.	c #1C4E14",
"z.	c #1D5015",
"A.	c #1D4F15",
"B.	c #1A4713",
"C.	c #1E4A18",
"D.	c #25471B",
"E.	c #192010",
"F.	c #0C0A08",
"G.	c #211C08",
"H.	c #821D0F",
"I.	c #7D2410",
"J.	c #683C14",
"K.	c #504A17",
"L.	c #365017",
"M.	c #1E4E17",
"N.	c #173E11",
"O.	c #194014",
"P.	c #1D4518",
"Q.	c #0C190B",
"R.	c #181208",
"S.	c #2E2C0A",
"T.	c #811E0F",
"U.	c #841D0F",
"V.	c #812410",
"W.	c #7A2E11",
"X.	c #683B14",
"Y.	c #404A16",
"Z.	c #284E16",
"`.	c #184012",
" +	c #194612",
".+	c #163912",
"++	c #132F0F",
"@+	c #0B170A",
"#+	c #1C1D09",
"$+	c #323A0E",
"%+	c #2A4814",
"&+	c #264113",
"*+	c #7E210F",
"=+	c #841C0F",
"-+	c #841E10",
";+	c #851D0F",
">+	c #812310",
",+	c #663211",
"'+	c #313A11",
")+	c #1C4012",
"!+	c #1B4C14",
"~+	c #1D4E15",
"{+	c #122D0F",
"]+	c #11290E",
"^+	c #090E09",
"/+	c #091009",
"(+	c #1E3D12",
"_+	c #2C4A14",
":+	c #244D17",
"<+	c #75280F",
"[+	c #7D210F",
"}+	c #851B0F",
"|+	c #861A0F",
"1+	c #861B0F",
"2+	c #831C0F",
"3+	c #73220F",
"4+	c #202A0C",
"5+	c #1B4714",
"6+	c #133110",
"7+	c #0F220C",
"8+	c #0E230C",
"9+	c #1D4715",
"0+	c #215319",
"a+	c #204F18",
"b+	c #1E4C17",
"c+	c #70280F",
"d+	c #71220F",
"e+	c #362D0E",
"f+	c #1D4B15",
"g+	c #1C4714",
"h+	c #173B12",
"i+	c #0F240D",
"j+	c #090F09",
"k+	c #091109",
"l+	c #14320F",
"m+	c #1D4B16",
"n+	c #1F4F18",
"o+	c #1F4D18",
"p+	c #1F4C17",
"q+	c #1D3C11",
"r+	c #593210",
"s+	c #792710",
"t+	c #82220F",
"u+	c #812510",
"v+	c #831E0F",
"w+	c #6E220E",
"x+	c #2F360F",
"y+	c #1D4A15",
"z+	c #1C4515",
"A+	c #1A3E14",
"B+	c #0F220D",
"C+	c #0A1109",
"D+	c #0C1B0A",
"E+	c #1D4A16",
"F+	c #1F4D17",
"G+	c #1E4B17",
"H+	c #1C3E12",
"I+	c #3F3C12",
"J+	c #5A3D13",
"K+	c #6D3D14",
"L+	c #6E3C14",
"M+	c #753212",
"N+	c #4F2B0F",
"O+	c #1C3910",
"P+	c #1B4A13",
"Q+	c #1D4C15",
"R+	c #1C4A15",
"S+	c #1C4715",
"T+	c #1B4315",
"U+	c #193D15",
"V+	c #132B10",
"W+	c #0F200D",
"X+	c #163711",
"Y+	c #225419",
"Z+	c #1E4B16",
"`+	c #184013",
" @	c #1A4213",
".@	c #254915",
"+@	c #3A5319",
"@@	c #485119",
"#@	c #504E18",
"$@	c #334614",
"%@	c #1D3E11",
"&@	c #1C4816",
"*@	c #1C4B15",
"=@	c #1D4D15",
"-@	c #1C4C15",
";@	c #1C4615",
">@	c #1B4215",
",@	c #183914",
"'@	c #122A10",
")@	c #132F10",
"!@	c #1A4214",
"~@	c #215419",
"{@	c #22571A",
"]@	c #184113",
"^@	c #1B4614",
"/@	c #1D4815",
"(@	c #225118",
"_@	c #2A581A",
":@	c #245117",
"<@	c #173D11",
"[@	c #1C4915",
"}@	c #1B4515",
"|@	c #173513",
"1@	c #122C10",
"2@	c #183D13",
"3@	c #23571A",
"4@	c #205018",
"5@	c #1C4616",
"6@	c #1B4514",
"7@	c #194213",
"8@	c #215619",
"9@	c #184313",
"0@	c #174111",
"a@	c #1B4715",
"b@	c #1B4415",
"c@	c #183312",
"d@	c #1C3B13",
"e@	c #1F4A16",
"f@	c #1F5018",
"g@	c #285519",
"h@	c #1C4716",
"i@	c #1A4614",
"j@	c #163C11",
"k@	c #13340F",
"l@	c #1C4415",
"m@	c #1A4114",
"n@	c #163413",
"o@	c #2B2B0F",
"p@	c #494315",
"q@	c #445118",
"r@	c #375319",
"s@	c #28581A",
"t@	c #32561A",
"u@	c #494B17",
"v@	c #3C4816",
"w@	c #21501B",
"x@	c #204E19",
"y@	c #183F12",
"z@	c #153610",
"A@	c #163811",
"B@	c #1B4914",
"C@	c #1B4A15",
"D@	c #1B4314",
"E@	c #153211",
"F@	c #11250E",
"G@	c #51230E",
"H@	c #703412",
"I@	c #783212",
"J@	c #6A4015",
"K@	c #624415",
"L@	c #634015",
"M@	c #6A3813",
"N@	c #503F14",
"O@	c #214F1A",
"P@	c #215119",
"Q@	c #1F4E18",
"R@	c #153811",
"S@	c #143510",
"T@	c #153711",
"U@	c #183713",
"V@	c #193C13",
"W@	c #193D13",
"X@	c #1B4216",
"Y@	c #183A12",
"Z@	c #163A12",
"`@	c #143011",
" #	c #11260F",
".#	c #34250F",
"+#	c #6D220F",
"@#	c #841F0F",
"##	c #832210",
"$#	c #802711",
"%#	c #802610",
"&#	c #831F0F",
"*#	c #80210F",
"=#	c #702D12",
"-#	c #183B14",
";#	c #11290F",
">#	c #11260E",
",#	c #122B10",
"'#	c #122B0F",
")#	c #122A0F",
"!#	c #12290F",
"~#	c #10240E",
"{#	c #0F230D",
"]#	c #0F220E",
"^#	c #1B2E10",
"/#	c #503111",
"(#	c #832010",
"_#	c #861A0E",
":#	c #831D0F",
"<#	c #821E0F",
"[#	c #7D2310",
"}#	c #772811",
"|#	c #204E18",
"1#	c #163712",
"2#	c #0E200D",
"3#	c #0F210D",
"4#	c #0E1D0D",
"5#	c #10260E",
"6#	c #573E14",
"7#	c #7A2B11",
"8#	c #802110",
"9#	c #811F0F",
"0#	c #1F4C18",
"a#	c #1D4917",
"b#	c #1E4816",
"c#	c #183A13",
"d#	c #173712",
"e#	c #122A0E",
"f#	c #153310",
"g#	c #163611",
"h#	c #183C14",
"i#	c #224E18",
"j#	c #384717",
"k#	c #4C3C15",
"l#	c #673212",
"m#	c #722911",
"n#	c #7C2310",
"o#	c #772711",
"p#	c #782611",
"q#	c #772611",
"r#	c #1E4A17",
"s#	c #1E4A16",
"t#	c #1D4716",
"u#	c #1D4616",
"v#	c #1E4917",
"w#	c #1C4417",
"x#	c #1C4517",
"y#	c #1E4216",
"z#	c #254216",
"A#	c #433F15",
"B#	c #503C15",
"C#	c #563D15",
"D#	c #1F4E17",
"E#	c #1F4B17",
"F#	c #204C18",
"G#	c #28521A",
"H#	c #27581B",
"I#	c #1E4818",
"J#	c #1E4C18",
"                                                                                                                        ",
"                                                                                                                        ",
"                                                                                                                        ",
"                                                                                                                        ",
"                                                                                                                        ",
"                                                                                                . .                     ",
"                                                                                              . . .                     ",
"                                                                                            . . . .                     ",
"                                                                                          + . . . .                     ",
"                                                                                          @ # $ % .                     ",
"                                                                                      & * = - ; > ,                     ",
"                                                                                  ' ) ! ~ { ] ^ /                       ",
"                                                                        ( _ : < [ } | 1 2 3 4 5 6 7                     ",
"                                                                8 8 8 9 0 a b c d e | f g h i j & k                     ",
"                                                      l 9 9 m n 8 n o p q r s t u v w x . y z A                         ",
"                                                B B B B m C D o 8 n E F G H _ I J K L M . . N O                         ",
"                                            B B B B 8 8 C P Q R S T n U V W W X Y Z ` . .  ...+.                        ",
"                                        E B B B n C @.@.D #.$.%.#.&.*.=.-.;.>.,.'.).!.. . ~.~.                          ",
"                                      {.].8 B B 8 E P ^./.(._.:.:.<.[.}.|.1.2.3.4.5.6.M . . 7.                          ",
"                                    8.9.p E 8 B B 0.a.b.[.c.d.d.e.e.f.e.g.h.i.j.k.l.m.. . n.                            ",
"                                  o.p.q.r.s.t.u.@.v.w.d.x.y.z.z.z.A.z.A.y.B.v.C.D.E.. . F.G.                            ",
"                                  H.I.J.K.L.P R M.N.z.z.z.z.z.z.z.z.z.z.z.x.b.O.P.Q.. . R.S.                            ",
"                                  T.U.V.W.X.Y.Z.`. +z.z.z.z.z.z.z.z.z.z.z.z.a..+++@+. n.#+$+%+                          ",
"                                &+*+=+-+;+>+,+'+)+!+z.z.z.z.z.z.z.z.z.z.z.~+b.{+]+^+. /+(+_+:+                          ",
"                                <+[+}+|+1+2+3+4+(.A.z.z.z.z.z.z.z.z.z.z.z.~+5+6+7+/+7.8+9+0+a+b+                        ",
"                                  c+=+=+;+U.d+e+B.z.z.z.z.z.z.z.z.z.z.z.~+f+g+h+i+j+k+l+m+n+o+p+                        ",
"                                q+r+s+t+u+v+w+x+f.z.z.z.z.z.z.z.z.A.A.~+y+^.z+A+B+C+D+E+Q F+G+p+                        ",
"                                H+I+J+K+L+M+N+O+P+A.z.z.A.z.z.A.A.Q+R+^.S+S+T+U+V+W+X+0+E Y+F+Z+                        ",
"                                `+ @.@+@@@#@$@%@d.z.A.&@*@A.=@=@-@^.S+S+;@z+>@,@'@)@!@~@B {@a+Z+                        ",
"                                ]@S+^@/@(@_@:@<@!+z.A.S+^.Q+*@*@*@[@z+S+;@S+}@|@1@2@b+t.8 3@4@G+                        ",
"                                  5@6@7@a.~@8@9@0@P+A.f+^.S+S+y+a@;@b@S+^.^.>@c@d@e@f@0+8 g@p+                          ",
"                                  h@b+E+^.R+i@j@k@/.A.A.[@;@l@z+;@S+^.*@-@m@n@o@p@q@r@s@t@u@v@                          ",
"                                    w@x@G+^@y@i@z@A@i@B@[@S+;@S+/@^.C@R+D@E@F@G@H@I@J@K@L@M@N@                          ",
"                                      O@P@Q@/@^.!@R@S@T@U@V@W@X@2@Y@h+Z@`@ #.#+#@###$#%#&#*#=#                          ",
"                                            Q@F+G+h@-#;#>#,#'#V+)#!#~#{#]#^#/#(#_#}+=+:#<#[#}#                          ",
"                                                |#4@o+>@1#;#~#2#3#3#4#5#]+l@6#7#8#v+<#H.9#[#                            ",
"                                                      0#a#b#c#d#e#f#g#h#5@i#j#k#l#m#n#o#p#q#                            ",
"                                                          b+r#s#r#t#u#v#v#w#x#y#z#A#B#C#                                ",
"                                                                4@D#E#0#r#r#v#v#r#F#G#H#                                ",
"                                                                      I#0#J#Q@|#C P@                                    ",
"                                                                                                                        ",
"                                                                                                                        ",
"                                                                                                                        ",
"                                                                                                                        ",
"                                                                                                                        ",
"                                                                                                                        ",
"                                                                                                                        ",
"                                                                                                                        ",
"                                                                                                                        ",
"                                                                                                                        ",
"                                                                                                                        ",
"                                                                                                                        ",
"                                                                                                                        ",
"                                                                                                                        ",
"                                                                                                                        ",
"                                                                                                                        ",
"                                                                                                                        ",
"                                                                                                                        ",
"                                                                                                                        ",
"                                                                                                                        "};
