/* XPM */
static const char * enemy1[] = {
"60 60 295 2",
"  	c None",
". 	c #080808",
"+ 	c #B1AD6B",
"@ 	c #C1BC75",
"# 	c #64613B",
"$ 	c #9E9A5F",
"% 	c #E8E28D",
"& 	c #CAC47A",
"* 	c #68653D",
"= 	c #C5C078",
"- 	c #CDC77C",
"; 	c #524F30",
"> 	c #E2DC8A",
", 	c #E5DF8B",
"' 	c #1A4413",
") 	c #C0BD74",
"! 	c #DCD786",
"~ 	c #102B0D",
"{ 	c #DFD988",
"] 	c #304111",
"^ 	c #1E4D16",
"/ 	c #DFDA88",
"( 	c #BDB873",
"_ 	c #DAD585",
": 	c #364010",
"< 	c #3B2F08",
"[ 	c #39340A",
"} 	c #215419",
"| 	c #DAD584",
"1 	c #868850",
"2 	c #67643D",
"3 	c #245B1B",
"4 	c #999221",
"5 	c #3A340A",
"6 	c #D1CD7F",
"7 	c #36380D",
"8 	c #3C2C07",
"9 	c #3A330A",
"0 	c #285117",
"a 	c #153A10",
"b 	c #0A1309",
"c 	c #215418",
"d 	c #1F5017",
"e 	c #2F4111",
"f 	c #3E2605",
"g 	c #3B3209",
"h 	c #373C0E",
"i 	c #163C11",
"j 	c #0C1E0A",
"k 	c #080908",
"l 	c #245A1B",
"m 	c #225619",
"n 	c #205218",
"o 	c #205118",
"p 	c #3D2505",
"q 	c #362A07",
"r 	c #253B10",
"s 	c #DBD686",
"t 	c #49472A",
"u 	c #090B08",
"v 	c #23511D",
"w 	c #24571C",
"x 	c #225519",
"y 	c #23591A",
"z 	c #2C350D",
"A 	c #3B2605",
"B 	c #352E08",
"C 	c #1B390F",
"D 	c #B4B36E",
"E 	c #4C492C",
"F 	c #1B1408",
"G 	c #393109",
"H 	c #215318",
"I 	c #1E5017",
"J 	c #1B4815",
"K 	c #1B4915",
"L 	c #352F09",
"M 	c #234413",
"N 	c #1D4D16",
"O 	c #23531D",
"P 	c #090D09",
"Q 	c #190E07",
"R 	c #39390C",
"S 	c #234A16",
"T 	c #22581A",
"U 	c #1C4A15",
"V 	c #163D11",
"W 	c #173F11",
"X 	c #153C10",
"Y 	c #194213",
"Z 	c #21501B",
"` 	c #383A0D",
" .	c #274F17",
"..	c #1F4E18",
"+.	c #194413",
"@.	c #194613",
"#.	c #1D5015",
"$.	c #184212",
"%.	c #163B11",
"&.	c #173D12",
"*.	c #0C1A0B",
"=.	c #225719",
"-.	c #23581A",
";.	c #1F4C17",
">.	c #1D4816",
",.	c #153B10",
"'.	c #163B10",
").	c #173813",
"!.	c #122F0F",
"~.	c #153410",
"{.	c #080A08",
"].	c #1E4E17",
"^.	c #1D4916",
"/.	c #215519",
"(.	c #173F12",
"_.	c #1A4713",
":.	c #0F210D",
"<.	c #0D1C0C",
"[.	c #0F260D",
"}.	c #0A1409",
"|.	c #1F5118",
"1.	c #1D4D15",
"2.	c #1A4214",
"3.	c #10260E",
"4.	c #0E210C",
"5.	c #23571A",
"6.	c #1E4A16",
"7.	c #13330F",
"8.	c #1D4B15",
"9.	c #1C4615",
"0.	c #0D1D0C",
"a.	c #090F09",
"b.	c #215319",
"c.	c #1C4814",
"d.	c #0F290C",
"e.	c #1D4E15",
"f.	c #1C4715",
"g.	c #1B4016",
"h.	c #193B14",
"i.	c #0E1E0D",
"j.	c #132E10",
"k.	c #1D4716",
"l.	c #205017",
"m.	c #205318",
"n.	c #1C4815",
"o.	c #1B4115",
"p.	c #173613",
"q.	c #0E200D",
"r.	c #173912",
"s.	c #1E4B16",
"t.	c #1F4C18",
"u.	c #702E11",
"v.	c #703112",
"w.	c #415218",
"x.	c #1C4915",
"y.	c #1C4515",
"z.	c #1C4415",
"A.	c #193914",
"B.	c #183B13",
"C.	c #1E4C16",
"D.	c #783212",
"E.	c #3F4315",
"F.	c #772710",
"G.	c #84180E",
"H.	c #832110",
"I.	c #851F0F",
"J.	c #822110",
"K.	c #723512",
"L.	c #3C300E",
"M.	c #1B3E16",
"N.	c #5D3F14",
"O.	c #851D0F",
"P.	c #3F3F16",
"Q.	c #7D1C0E",
"R.	c #88120E",
"S.	c #822410",
"T.	c #842010",
"U.	c #88140E",
"V.	c #802710",
"W.	c #0E250B",
"X.	c #183814",
"Y.	c #564A17",
"Z.	c #793112",
"`.	c #7C2D11",
" +	c #851C0F",
".+	c #712F12",
"++	c #3E3C15",
"@+	c #7B1E0E",
"#+	c #87180F",
"$+	c #861B0F",
"%+	c #89130E",
"&+	c #802410",
"*+	c #080B08",
"=+	c #1B4015",
"-+	c #1B4215",
";+	c #153012",
">+	c #0B150A",
",+	c #802711",
"'+	c #841E0F",
")+	c #85180F",
"!+	c #5B3614",
"~+	c #184112",
"{+	c #782610",
"]+	c #87190F",
"^+	c #861A0F",
"/+	c #7E2911",
"(+	c #0F200D",
"_+	c #86160F",
":+	c #7C2210",
"<+	c #811D0F",
"[+	c #652F12",
"}+	c #83170E",
"|+	c #7B2F12",
"1+	c #7E2A11",
"2+	c #2C2B0E",
"3+	c #13340E",
"4+	c #1D4815",
"5+	c #0D1B0C",
"6+	c #163412",
"7+	c #792B11",
"8+	c #7E2010",
"9+	c #7A2110",
"0+	c #1C4217",
"a+	c #173C11",
"b+	c #5B2F0F",
"c+	c #7B2C11",
"d+	c #723914",
"e+	c #604716",
"f+	c #564C18",
"g+	c #375519",
"h+	c #1D4915",
"i+	c #142F11",
"j+	c #0F240E",
"k+	c #12280F",
"l+	c #763413",
"m+	c #723613",
"n+	c #752911",
"o+	c #712811",
"p+	c #712911",
"q+	c #3F3E16",
"r+	c #194113",
"s+	c #1B4714",
"t+	c #235A1A",
"u+	c #205518",
"v+	c #1B4316",
"w+	c #11260F",
"x+	c #0B140A",
"y+	c #122A0E",
"z+	c #1C4317",
"A+	c #1B4116",
"B+	c #1C4216",
"C+	c #183F12",
"D+	c #1B4414",
"E+	c #173E11",
"F+	c #23591B",
"G+	c #163E10",
"H+	c #0B160A",
"I+	c #1A4414",
"J+	c #153312",
"K+	c #11260E",
"L+	c #132C10",
"M+	c #0E1F0D",
"N+	c #142F10",
"O+	c #21541A",
"P+	c #1D4617",
"Q+	c #1C4417",
"R+	c #1C4316",
"S+	c #1A4514",
"T+	c #1C4B15",
"U+	c #163911",
"V+	c #112D0E",
"W+	c #0E1E0C",
"X+	c #10240E",
"Y+	c #090E09",
"Z+	c #0B120A",
"`+	c #194013",
" @	c #1F4D19",
".@	c #1F4B1A",
"+@	c #22561A",
"@@	c #1F4D18",
"#@	c #173D11",
"$@	c #1B4615",
"%@	c #1A4515",
"&@	c #1B4216",
"*@	c #183B14",
"=@	c #11290F",
"-@	c #11270F",
";@	c #193D14",
">@	c #204F19",
",@	c #1E4918",
"'@	c #22541B",
")@	c #22571A",
"!@	c #1E4A18",
"~@	c #215219",
"{@	c #1D4417",
"                                                                          . . .                                         ",
"                                                                          . . .                                         ",
"                                                                          . . .                                         ",
"                                                                          . . . .                                       ",
"                                                                        . . . . .                                       ",
"                                                                        . . . . .                                       ",
"                                                                        + @ . # $                                       ",
"                                                                      % & * . = - %                                     ",
"                                                                      % ; . . > , %                                     ",
"                                                                  ' ) ! ~ . . { >                                       ",
"                                                                ] ^ / / . . . ( _ %                                     ",
"                                                            : < [ } | 1 . . . . 2                                       ",
"                                                          3 [ 4 5 3 6 . . . . . .                                       ",
"                                                        3 3 7 8 9 0 a b . . . . .                                       ",
"                                                    3 3 c d e f g h i j . . . . k                                       ",
"                                                  l m n d o m [ p q r s t . . . u                                       ",
"                                              v w c x m y y 3 z A B C D E . . . F G                                     ",
"                                            v 3 H d n 3 3 I J K L M N O P . . . Q R S                                   ",
"                                        3 3 3 } d o T U V a W W W X Y Z v . . . . `  ...                                ",
"                                        3 3 3 3 n +.a a a @.#.#.#.#.$.%.&.*.. . . =.-.;.>.                              ",
"                                      3 3 H x m ,.'.@.#.#.#.#.#.#.#.#.).!.~.{.. . ].n ..^.                              ",
"                                    3 3 m /.T (.a @.#.#.#.#.#.#.#.#.#._.:.<.[.}.. |.>.^.>.>.                            ",
"                                  3 3 3 3 3 a ,.#.#.#.#.#.#.#.#.#.#.#.1.2.3.<.4.. 3 5.5.6.>.                            ",
"                                n m 3 3 3 3 7.#.#.#.#.#.#.#.#.#.#.#.#.8.9.2.:.0.a.5.3 3 b.^.                            ",
"                                c.n y l 3 3 d.#.#.#.#.#.#.#.#.#.#.#.e.f.9.g.h.i.j.f.3 3 3 k.                            ",
"                              d m H l.d /.m.d.#.#.#.#.#.#.#.#.#.#.#.n.9.f.o.p.q.r.b.m 3 5.s.t.                          ",
"                              u.v.m w.n n N a #.#.#.#.#.#.#.#.#.#.x.f.9.y.z.A.q.B.C.^.3 -.D.E.                          ",
"                              F.G.H.I.J.K.L.a #.#.#.#.#.#.#.#.#.n.n.f.9.y.U M.q.].3 3 3 N.O.P.                          ",
"                              Q.R.S.T.U.V.W.W.#.#.#.#.#.#.#.e.#.n.9.n.9.f.1.X.<.Y.Z.Z.`. +.+++                          ",
"                              Y @+#+$+%+#+&+*+#.#.#.#.#.#.#.n.n.#.9.=+9.#.-+;+>+H.O.,+'+S.)+!+                          ",
"                              ~+{+]+^+H./+'+a a #.#.#.g.U 1.1.1.-+f.9.U #.A.0.(+S.U.%+_+:+<+[+                          ",
"                                '.}+H.|+1+O.2+3+#.#.#.n.-+9.-+g.9.4+U #.9.;+5+6+1+U.#+7+8+9+0+                          ",
"                                a+b+c+d+e+f+g+W.#.#.#.#.1.9.f.f.h+U z.i+j+<.k+C.l+m+n+o+p+q+                            ",
"                                i r+s+t+3 3 3 u+a 3+#.#.#.1.x.y.v+M.0.w+i.x+y+3 z+A+B+g.A+3                             ",
"                                (.C+D+i E+s+F+3 G+H+:.I+#.A.A.J+K+(+L+M+<.N+O+P+Q+R+A+z+l                               ",
"                                  S+%.&.'.'.x.E+(.T+U+V+<.<.W+X+M+*.Y+Z+`+P+Q+A+A+A+ @3                                 ",
"                                    .@s++@@@9.D+#@$@$@%@&@*@i+=@-@;@R+P+P+P+>@>@,@+@                                    ",
"                                        v v '@)@+@>@>@>@3 >@>@!@Q+Q+~@b.~@  {@                                          ",
"                                                                                                                        ",
"                                                                                                                        ",
"                                                                                                                        ",
"                                                                                                                        ",
"                                                                                                                        ",
"                                                                                                                        ",
"                                                                                                                        ",
"                                                                                                                        ",
"                                                                                                                        ",
"                                                                                                                        ",
"                                                                                                                        ",
"                                                                                                                        ",
"                                                                                                                        ",
"                                                                                                                        ",
"                                                                                                                        ",
"                                                                                                                        ",
"                                                                                                                        ",
"                                                                                                                        ",
"                                                                                                                        ",
"                                                                                                                        ",
"                                                                                                                        ",
"                                                                                                                        "};
