/* XPM */
static const char * enemy34[] = {
"60 60 400 2",
"  	c None",
". 	c #1E4F17",
"+ 	c #1B4714",
"@ 	c #1F4B1A",
"# 	c #205218",
"$ 	c #1E4E16",
"% 	c #1A4414",
"& 	c #1F4213",
"* 	c #612E10",
"= 	c #762710",
"- 	c #7A2610",
"; 	c #81200F",
"> 	c #1F4F17",
", 	c #194213",
"' 	c #1A4314",
") 	c #2A4213",
"! 	c #5C2F0F",
"~ 	c #6D280F",
"{ 	c #831E0F",
"] 	c #811F0F",
"^ 	c #831D0F",
"/ 	c #841D0F",
"( 	c #574415",
"_ 	c #214E1B",
": 	c #1D4A15",
"< 	c #163C10",
"[ 	c #1D4C16",
"} 	c #584114",
"| 	c #7D2810",
"1 	c #851C0F",
"2 	c #861B0F",
"3 	c #851B0F",
"4 	c #841A0E",
"5 	c #5C4214",
"6 	c #265419",
"7 	c #1D4A16",
"8 	c #184012",
"9 	c #173F11",
"0 	c #23591A",
"a 	c #684115",
"b 	c #802711",
"c 	c #861C0F",
"d 	c #832210",
"e 	c #6A3C14",
"f 	c #454C17",
"g 	c #215318",
"h 	c #22551A",
"i 	c #173E11",
"j 	c #194112",
"k 	c #3C561A",
"l 	c #7E2B11",
"m 	c #851D0F",
"n 	c #88170E",
"o 	c #871A0F",
"p 	c #841F0F",
"q 	c #534B17",
"r 	c #275218",
"s 	c #215519",
"t 	c #22571A",
"u 	c #245A1B",
"v 	c #415419",
"w 	c #733513",
"x 	c #682D10",
"y 	c #822210",
"z 	c #851E0F",
"A 	c #812510",
"B 	c #713513",
"C 	c #285218",
"D 	c #205117",
"E 	c #23581A",
"F 	c #225719",
"G 	c #225519",
"H 	c #1C4914",
"I 	c #194413",
"J 	c #215619",
"K 	c #205217",
"L 	c #234012",
"M 	c #23330E",
"N 	c #463510",
"O 	c #39360F",
"P 	c #29360F",
"Q 	c #573110",
"R 	c #494916",
"S 	c #205318",
"T 	c #225619",
"U 	c #245B1B",
"V 	c #205118",
"W 	c #194312",
"X 	c #14370F",
"Y 	c #153A0F",
"Z 	c #163D10",
"` 	c #15390F",
" .	c #13330E",
"..	c #14310D",
"+.	c #1A390F",
"@.	c #1A4613",
"#.	c #163A11",
"$.	c #0E200C",
"%.	c #14360E",
"&.	c #194612",
"*.	c #1D5015",
"=.	c #1C4D14",
"-.	c #184312",
";.	c #153811",
">.	c #153711",
",.	c #184112",
"'.	c #1D4F15",
").	c #1C4C14",
"!.	c #153B0F",
"~.	c #15380F",
"{.	c #1A4413",
"].	c #215419",
"^.	c #23571A",
"/.	c #193D14",
"(.	c #0D1D0C",
"_.	c #1B4914",
":.	c #1D4E15",
"<.	c #174010",
"[.	c #1E5017",
"}.	c #1A4213",
"|.	c #132D10",
"1.	c #132B0F",
"2.	c #1C4815",
"3.	c #1D4C15",
"4.	c #1C4615",
"5.	c #1B4016",
"6.	c #163B10",
"7.	c #174012",
"8.	c #1F5017",
"9.	c #143511",
"0.	c #0F220D",
"a.	c #173412",
"b.	c #1C4915",
"c.	c #1C4715",
"d.	c #1C4C15",
"e.	c #174112",
"f.	c #153B10",
"g.	c #1B4713",
"h.	c #22561A",
"i.	c #1E4B16",
"j.	c #10260F",
"k.	c #11270F",
"l.	c #173813",
"m.	c #1B4415",
"n.	c #1A4914",
"o.	c #183D12",
"p.	c #10250E",
"q.	c #10230E",
"r.	c #183913",
"s.	c #1C4415",
"t.	c #1C4515",
"u.	c #1C4B15",
"v.	c #153C10",
"w.	c #1A4714",
"x.	c #0B170B",
"y.	c #0F200D",
"z.	c #1A3E15",
"A.	c #1D4815",
"B.	c #1C4A15",
"C.	c #1D4B16",
"D.	c #24591B",
"E.	c #153111",
"F.	c #0E1D0C",
"G.	c #11280F",
"H.	c #173812",
"I.	c #1D4715",
"J.	c #1B4515",
"K.	c #1B4C14",
"L.	c #1A4313",
"M.	c #1A4214",
"N.	c #153511",
"O.	c #0E1F0D",
"P.	c #10240E",
"Q.	c #163512",
"R.	c #1B4B14",
"S.	c #215518",
"T.	c #183F12",
"U.	c #1C4516",
"V.	c #193D13",
"W.	c #0F210E",
"X.	c #132E10",
"Y.	c #1B4215",
"Z.	c #1C4C16",
"`.	c #204E19",
" +	c #1D4717",
".+	c #1B4316",
"++	c #10240D",
"@+	c #0D1C0C",
"#+	c #143211",
"$+	c #1D4D15",
"%+	c #1B4A14",
"&+	c #184212",
"*+	c #1E4C16",
"=+	c #235A1B",
"-+	c #215218",
";+	c #205017",
">+	c #1F4C18",
",+	c #1C4316",
"'+	c #1F4E19",
")+	c #122B0E",
"!+	c #132A10",
"~+	c #193B14",
"{+	c #253E10",
"]+	c #293C10",
"^+	c #2F4110",
"/+	c #39350B",
"(+	c #3B3008",
"_+	c #3B330A",
":+	c #334512",
"<+	c #204F19",
"[+	c #1C4517",
"}+	c #1C4317",
"|+	c #1F4D18",
"1+	c #215319",
"2+	c #173912",
"3+	c #0E200D",
"4+	c #193C14",
"5+	c #1D4915",
"6+	c #1C4E15",
"7+	c #193D10",
"8+	c #2F380D",
"9+	c #3B2605",
"0+	c #3D2B06",
"a+	c #3D2C06",
"b+	c #676114",
"c+	c #3E3309",
"d+	c #1B4216",
"e+	c #683914",
"f+	c #782811",
"g+	c #29290F",
"h+	c #0F1F0D",
"i+	c #142D11",
"j+	c #193C15",
"k+	c #1B4614",
"l+	c #193F13",
"m+	c #194313",
"n+	c #1C4614",
"o+	c #283F10",
"p+	c #392C07",
"q+	c #3C2B06",
"r+	c #3C2E07",
"s+	c #3E3008",
"t+	c #797319",
"u+	c #3C3008",
"v+	c #1D4818",
"w+	c #3B3F15",
"x+	c #802610",
"y+	c #6E1E0E",
"z+	c #31290F",
"A+	c #153011",
"B+	c #173613",
"C+	c #173A12",
"D+	c #132F10",
"E+	c #143310",
"F+	c #173D12",
"G+	c #21501B",
"H+	c #21501A",
"I+	c #5C6737",
"J+	c #26390F",
"K+	c #383109",
"L+	c #2F4412",
"M+	c #2F4B14",
"N+	c #334311",
"O+	c #36390D",
"P+	c #1E4918",
"Q+	c #1C4116",
"R+	c #5D3513",
"S+	c #87190F",
"T+	c #832110",
"U+	c #544917",
"V+	c #122D10",
"W+	c #132B10",
"X+	c #0E210D",
"Y+	c #122D0E",
"Z+	c #183B14",
"`+	c #1C4218",
" @	c #4E5830",
".@	c #D6D182",
"+@	c #CAC67B",
"@@	c #4A542B",
"#@	c #153910",
"$@	c #A7AA65",
"%@	c #7B874A",
"&@	c #224D16",
"*@	c #214613",
"=@	c #21531A",
"-@	c #253F16",
";@	c #702911",
">@	c #861A0F",
",@	c #822410",
"'@	c #544D18",
")@	c #1F5018",
"!@	c #153411",
"~@	c #0F240E",
"{@	c #0D1C0B",
"]@	c #0D1F0C",
"^@	c #0D1F0B",
"/@	c #080B08",
"(@	c #0A1209",
"_@	c #090B08",
":@	c #0A1009",
"<@	c #2D2C1A",
"[@	c #757145",
"}@	c #9D995E",
"|@	c #48492A",
"1@	c #1E2112",
"2@	c #99975C",
"3@	c #D1CD7F",
"4@	c #C8C579",
"5@	c #84894F",
"6@	c #474016",
"7@	c #762611",
"8@	c #812010",
"9@	c #851A0F",
"0@	c #7F2911",
"a@	c #295A1B",
"b@	c #1E4C17",
"c@	c #183D13",
"d@	c #0D1D0B",
"e@	c #090F09",
"f@	c #090D08",
"g@	c #080808",
"h@	c #0D0D0A",
"i@	c #51522F",
"j@	c #B8B56F",
"k@	c #E3DD8A",
"l@	c #DAD584",
"m@	c #3B4517",
"n@	c #702A12",
"o@	c #7E2010",
"p@	c #802310",
"q@	c #6E3B13",
"r@	c #194214",
"s@	c #10280D",
"t@	c #090808",
"u@	c #898852",
"v@	c #E2DD8A",
"w@	c #E8E28D",
"x@	c #493A15",
"y@	c #772510",
"z@	c #85180F",
"A@	c #7A2811",
"B@	c #6D3512",
"C@	c #365419",
"D@	c #215219",
"E@	c #1E4D17",
"F@	c #1F5118",
"G@	c #214B15",
"H@	c #24250A",
"I@	c #211607",
"J@	c #2B1E07",
"K@	c #090908",
"L@	c #171D0F",
"M@	c #706C42",
"N@	c #E2DC89",
"O@	c #C5C077",
"P@	c #613213",
"Q@	c #573714",
"R@	c #5D3514",
"S@	c #7B2911",
"T@	c #663F14",
"U@	c #1F4D17",
"V@	c #1F4E17",
"W@	c #285117",
"X@	c #334110",
"Y@	c #3B3009",
"Z@	c #352807",
"`@	c #080908",
" #	c #605D39",
".#	c #3C3B22",
"+#	c #C9C47A",
"@#	c #8C8954",
"##	c #3F3E16",
"$#	c #3F4115",
"%#	c #404616",
"&#	c #1E4A16",
"*#	c #1D4916",
"=#	c #1F4C17",
"-#	c #204F18",
";#	c #205018",
">#	c #225218",
",#	c #234B16",
"'#	c #3E3D24",
")#	c #858250",
"!#	c #CAC47B",
"~#	c #D8D283",
"{#	c #615E39",
"]#	c #222114",
"^#	c #5A5835",
"/#	c #49472B",
"(#	c #1D4816",
"_#	c #1E4B17",
":#	c #D0CB7E",
"<#	c #DFDA88",
"[#	c #E5DF8B",
"}#	c #DFD987",
"|#	c #A8A365",
"1#	c #232214",
"2#	c #E7E18C",
"3#	c #504D2F",
"                                                                                                                        ",
"                                                                                                                        ",
"                                                                                                                        ",
"                                                                                                                        ",
"                                                                                                                        ",
"                                                                                                                        ",
"                                                                                                                        ",
"                                                                                                                        ",
"                                                                                                                        ",
"                                                                                                                        ",
"                                                                                                                        ",
"                                                                                                                        ",
"                                                                                                                        ",
"                                                                                                                        ",
"                                                                                                                        ",
"                                                            . +                                                         ",
"                                                        @ # $ % & * = - ;                                               ",
"                                                        > , ' ) ! ~ { ] ^ / (                                           ",
"                                                    _ : : < [ } | 1 2 3 2 4 5 6                                         ",
"                                                    7 8 < 9 0 a b 1 2 c d e f g g                                       ",
"                                                  h $ i j > k a l m n o p q r g s s                                     ",
"                                                  g i i t u v w x y z A B C D 0 E E F                                   ",
"                                                G H < I J K L M N O P Q R S T u U F E                                   ",
"                                                V H W X Y Z Y ` Y  ...+.@.S u U U U E                                   ",
"                                                > 8 #.$.%.&.*.=.=.=.-.Z ` , s U u T 0 E                                 ",
"                                              T $ ;.>.,.'.*.*.*.*.*.*.*.).!.~.{.].].^.^.u                               ",
"                                              [ /.(._.'.*.:.'.*.*.*.*.*.*.*.<.Y [.G 0 ^.E                               ",
"                                            V }.|.1.2.'.3.4.5.'.*.*.*.*.*.*.*.6.7.F U E h                               ",
"                                          G 8.9.0.a.4.b.4.c.d.*.*.*.*.*.*.*.*.e.f.g.T T h.                              ",
"                                          i.c.j.k.l.c.c.m.3.'.*.*.*.*.*.*.*.*.n.Y I 8.g h.                              ",
"                                          i o.p.q.r.4.s.t.3.u.'.*.*.*.*.*.*.*.=.v.w.# D T                               ",
"                                        {.2./.x.y.z.A.4.c.B.3.'.*.*.*.*.*.*.*.*.!.C.].g T D.                            ",
"                                        b.4.E.F.G.H.b.I.J.*.u.:.*.*.*.*.*.*.*.K.f.+ U T T E                             ",
"                                        L.M.N.O.P.Q.2.2.4.c.c.B.*.*.*.*.*.*.*.R.9 B.u T S.E                             ",
"                                        T.U.V.O.W.X.*.b.Y.4.c.2.:.*.*.*.*.*.*.*.9 Z.F g # T                             ",
"                                        `. +.+++@+#+B.$+c.4.c.c.u.'.*.*.*.*.*.%+&+*+=+-+;+E                             ",
"                                        >+,+'+)+P.!+~+b.u.4.4.4.2.$+*.*.*.*.*.W {+]+^+/+(+_+:+                          ",
"                                      <+[+}+|+1+2+3+G.4+$+2.t.4.c.5+$+:.*.6+%+7+8+9+0+0+a+b+c+                          ",
"                                      h d+,+}+e+f+g+h+i+j+Y.Y.Y.s.4.k+&+l+,.m+n+o+p+q+r+s+t+u+                          ",
"                                        v+d+w+x+m p y+z+p.A+B+~+4+C+D+++E+F+G+H+I+J+K+L+M+N+O+                          ",
"                                      U P+Q+R+/ S+2 T+U+J.V+3+W+p.3+X+)+Y+Z+`+ @.@+@@@#@$@%@&@*@                        ",
"                                        =@-@;@/ >@m ,@'@)@M.!@~@{@]@^@/@(@_@:@<@[@}@|@1@2@3@4@5@                        ",
"                                        h 6@7@8@9@m 0@a@b@-+c.c@d@e@f@g@g@g@g@g@g@h@g@g@i@j@k@l@                        ",
"                                          m@n@o@p@z q@U G E ^.0 U r@s@g@g@t@g@g@g@g@g@g@g@g@u@v@w@                      ",
"                                            x@y@z@A@B@C@D.U U D.D@E@F@G@H@I@J@K@g@g@g@g@g@g@L@M@N@O@                    ",
"                                              P@Q@R@S@T@1+U t G U@V@G W@X@Y@Z@_@`@g@g@g@ #g@g@.#+#@#g@                  ",
"                                                  ##$#%#&#*#b@=#-#;#-+>#,#        g@'#)#!#~#{#]#^#/#g@g@                ",
"                                                            (#_#V ;#-+].              :#<#[#}#|#1#g@g@g@g@g@            ",
"                                                                                      w@  2#}#|#3#g@g@g@g@g@g@          ",
"                                                                                            w@  g@g@g@g@g@g@            ",
"                                                                                                      g@g@g@            ",
"                                                                                                                        ",
"                                                                                                                        ",
"                                                                                                                        ",
"                                                                                                                        ",
"                                                                                                                        ",
"                                                                                                                        ",
"                                                                                                                        ",
"                                                                                                                        ",
"                                                                                                                        "};
