/* XPM */
static const char *highSp[] = {
"86 46 2 1",
" 	c None",
".	c #FFFFFF",
"                                                                                      ",
".....          .....      .....             ..........           .....          ..... ",
".....          .....      .....           .............          .....          ..... ",
".....          .....      .....          ...............         .....          ..... ",
".....          .....      .....         .................        .....          ..... ",
".....          .....      .....        ......... .........       .....          ..... ",
".....          .....      .....        ......       ......       .....          ..... ",
".....          .....      .....        .....         .....       .....          ..... ",
".....          .....      .....       ......         ......      .....          ..... ",
".....          .....      .....       .....          ......      .....          ..... ",
".....          .....      .....       .....          ......      .....          ..... ",
".....          .....      .....       .....           .....      .....          ..... ",
".....          .....      .....       .....           .....      .....          ..... ",
".....          .....      .....       .....           .....      .....          ..... ",
".....          .....      .....       .....                      .....          ..... ",
".....          .....      .....       .....                      .....          ..... ",
".....          .....      .....       .....                      .....          ..... ",
".....          .....      .....       .....                      .....          ..... ",
".....          .....      .....       .....                      .....          ..... ",
".....          .....      .....       .....                      .....          ..... ",
".....          .....      .....       .....                      .....          ..... ",
"....................      .....       .....      ..........      .................... ",
"....................      .....       .....      ..........      .................... ",
"....................      .....       .....      ..........      .................... ",
"....................      .....       .....      ..........      .................... ",
"....................      .....       .....      ..........      .................... ",
".....          .....      .....       .....           .....      .....          ..... ",
".....          .....      .....       .....           .....      .....          ..... ",
".....          .....      .....       .....           .....      .....          ..... ",
".....          .....      .....       .....           .....      .....          ..... ",
".....          .....      .....       .....           .....      .....          ..... ",
".....          .....      .....       .....           .....      .....          ..... ",
".....          .....      .....       .....           .....      .....          ..... ",
".....          .....      .....       .....           .....      .....          ..... ",
".....          .....      .....       .....           .....      .....          ..... ",
".....          .....      .....       .....           .....      .....          ..... ",
".....          .....      .....       .....           .....      .....          ..... ",
".....          .....      .....       ......          .....      .....          ..... ",
".....          .....      .....        .....         ......      .....          ..... ",
".....          .....      .....        ......       ......       .....          ..... ",
".....          .....      .....        ......... .........       .....          ..... ",
".....          .....      .....         .................        .....          ..... ",
".....          .....      .....          ................        .....          ..... ",
".....          .....      .....           .............          .....          ..... ",
".....          .....      .....             ..........           .....          ..... ",
"                                                                                      "};
