/* XPM */
static const char *objectiveBar[] = {
"142 46 342 2",
"  	c None",
". 	c #E8C672",
"+ 	c #E2C16D",
"@ 	c #AA9655",
"# 	c #B19D68",
"$ 	c #AB9653",
"% 	c #C7AE6D",
"& 	c #AE9A60",
"* 	c #AE9957",
"= 	c #D2B468",
"- 	c #E7C571",
"; 	c #E4C36F",
"> 	c #AC9756",
", 	c #B09A57",
"' 	c #DABB6D",
") 	c #DEBC68",
"! 	c #E1BF6B",
"~ 	c #E3C16D",
"{ 	c #E4C26E",
"] 	c #E1C06C",
"^ 	c #AE9955",
"/ 	c #B29A55",
"( 	c #BFA359",
"_ 	c #CCAF62",
": 	c #DBBA68",
"< 	c #E9C773",
"[ 	c #D5B769",
"} 	c #A49052",
"| 	c #E8C671",
"1 	c #D0AD58",
"2 	c #D4B15D",
"3 	c #D6B560",
"4 	c #D5B25E",
"5 	c #D2AF5A",
"6 	c #C7A757",
"7 	c #D0AE5B",
"8 	c #DFBC69",
"9 	c #E2BF6C",
"0 	c #E8C572",
"a 	c #E7C471",
"b 	c #DCBA65",
"c 	c #D6B35F",
"d 	c #DAB863",
"e 	c #D2AF5B",
"f 	c #D8B662",
"g 	c #E5C26F",
"h 	c #E7C672",
"i 	c #BBA25C",
"j 	c #E2C06C",
"k 	c #D9B763",
"l 	c #CFB267",
"m 	c #EAC874",
"n 	c #E8C772",
"o 	c #E9C672",
"p 	c #E4C370",
"q 	c #D7B86A",
"r 	c #E5C16B",
"s 	c #DFBC66",
"t 	c #EBC975",
"u 	c #E4C26D",
"v 	c #E8C36C",
"w 	c #D9B866",
"x 	c #AE9454",
"y 	c #8B7749",
"z 	c #6A5C3F",
"A 	c #A18A52",
"B 	c #C9AB62",
"C 	c #D6B25A",
"D 	c #D4B15B",
"E 	c #D6B25D",
"F 	c #E1BE69",
"G 	c #D1B263",
"H 	c #887243",
"I 	c #494233",
"J 	c #34322E",
"K 	c #1F242B",
"L 	c #473E31",
"M 	c #3B3330",
"N 	c #000023",
"O 	c #6A5C3D",
"P 	c #A58D54",
"Q 	c #967F4C",
"R 	c #827148",
"S 	c #151027",
"T 	c #32302F",
"U 	c #67593C",
"V 	c #776743",
"W 	c #98834E",
"X 	c #C9AD64",
"Y 	c #D8B865",
"Z 	c #4B4B4B",
"` 	c #E6C57B",
" .	c #DFBE6A",
"..	c #B39857",
"+.	c #816E45",
"@.	c #3B352F",
"#.	c #685635",
"$.	c #6B5736",
"%.	c #41382F",
"&.	c #000026",
"*.	c #423E34",
"=.	c #A98F50",
"-.	c #E6C472",
";.	c #EBC873",
">.	c #DDBD6D",
",.	c #DABB6C",
"'.	c #E2C16F",
").	c #DFBE6E",
"!.	c #E5C370",
"~.	c #EAC873",
"{.	c #CEB066",
"].	c #DDBC69",
"^.	c #E0BD69",
"/.	c #CCAE63",
"(.	c #9D8651",
"_.	c #3F3A31",
":.	c #867347",
"<.	c #E7C572",
"[.	c #E9C772",
"}.	c #E3C270",
"|.	c #DBBC6C",
"1.	c #DCBD6D",
"2.	c #E6C471",
"3.	c #E4C371",
"4.	c #9E8752",
"5.	c #2F2F2E",
"6.	c #B1985A",
"7.	c #F3CE77",
"8.	c #F0CD76",
"9.	c #E6C571",
"0.	c #DDBD6E",
"a.	c #DEBE6F",
"b.	c #ECCA74",
"c.	c #C2A662",
"d.	c #3B3731",
"e.	c #514936",
"f.	c #7F6E46",
"g.	c #827047",
"h.	c #DDBC6C",
"i.	c #DCBB6D",
"j.	c #E1C171",
"k.	c #EAC773",
"l.	c #DDBC6D",
"m.	c #A28B54",
"n.	c #736442",
"o.	c #403831",
"p.	c #7E6D45",
"q.	c #DCBC6D",
"r.	c #D3B469",
"s.	c #DEBD6D",
"t.	c #E1C06F",
"u.	c #E0BF6D",
"v.	c #D1B15E",
"w.	c #DCBD6E",
"x.	c #C1B05E",
"y.	c #06760D",
"z.	c #929847",
"A.	c #D6B663",
"B.	c #D7BC69",
"C.	c #8C9644",
"D.	c #6E8A35",
"E.	c #D4BA68",
"F.	c #DDBC6B",
"G.	c #C5B260",
"H.	c #0F760F",
"I.	c #BFAF5D",
"J.	c #D2B25F",
"K.	c #E3C370",
"L.	c #6C8934",
"M.	c #1C7712",
"N.	c #A3A14F",
"O.	c #ACA554",
"P.	c #508127",
"Q.	c #317A19",
"R.	c #E5C470",
"S.	c #DDBD6C",
"T.	c #DCBF6C",
"U.	c #3D7C1E",
"V.	c #387B1C",
"W.	c #D5BB69",
"X.	c #D2B967",
"Y.	c #889441",
"Z.	c #2E7A18",
"`.	c #D4BB68",
" +	c #D3B362",
".+	c #E1C16F",
"++	c #367B1B",
"@+	c #457E22",
"#+	c #D1B966",
"$+	c #7C8F3C",
"%+	c #D6BC69",
"&+	c #DEBD6C",
"*+	c #DDC06C",
"=+	c #437D21",
"-+	c #D2BA67",
";+	c #CFB865",
">+	c #E5C471",
",+	c #D5B563",
"'+	c #E0C06F",
")+	c #DBBB6D",
"!+	c #E4C470",
"~+	c #7F913D",
"{+	c #6F8B36",
"]+	c #DABA68",
"^+	c #DEBE6E",
"/+	c #E2C270",
"(+	c #DFC16D",
"_+	c #83923F",
":+	c #959A48",
"<+	c #E1C26E",
"[+	c #E1BF6D",
"}+	c #D9B96C",
"|+	c #B7AB59",
"1+	c #DABE6B",
"2+	c #D4B462",
"3+	c #E0BF6F",
"4+	c #DFBF6E",
"5+	c #207813",
"6+	c #969A49",
"7+	c #247815",
"8+	c #487F23",
"9+	c #DAB968",
"0+	c #CEB765",
"a+	c #D0B866",
"b+	c #879441",
"c+	c #BCAD5C",
"d+	c #D0B15E",
"e+	c #D8B96C",
"f+	c #CFB765",
"g+	c #A2A04F",
"h+	c #B9AC5A",
"i+	c #D4B463",
"j+	c #DDBF6C",
"k+	c #758D38",
"l+	c #D5BB68",
"m+	c #9D9E4C",
"n+	c #DDBC6A",
"o+	c #D9BA6C",
"p+	c #DFBF6F",
"q+	c #E0C26E",
"r+	c #5F852E",
"s+	c #CDB764",
"t+	c #7A8F3B",
"u+	c #C2B15F",
"v+	c #E2C16E",
"w+	c #D0B05E",
"x+	c #9E9E4D",
"y+	c #467E22",
"z+	c #6A8933",
"A+	c #81913E",
"B+	c #E3C16F",
"C+	c #D9B868",
"D+	c #B1A756",
"E+	c #A9A452",
"F+	c #D1B260",
"G+	c #D5B461",
"H+	c #D8B96B",
"I+	c #C7B361",
"J+	c #A5A150",
"K+	c #D3B463",
"L+	c #CCA953",
"M+	c #D5B361",
"N+	c #DEBF70",
"O+	c #DDC06D",
"P+	c #C4B260",
"Q+	c #D5B564",
"R+	c #CFAD58",
"S+	c #CDAB55",
"T+	c #CFAD57",
"U+	c #D9B762",
"V+	c #D3B462",
"W+	c #D0AF5D",
"X+	c #CFAE5C",
"Y+	c #CEAC58",
"Z+	c #CDAA54",
"`+	c #CEAB54",
" @	c #D8B561",
".@	c #E1BD69",
"+@	c #B99A4F",
"@@	c #C9A657",
"#@	c #D0AF5B",
"$@	c #CDAA55",
"%@	c #CBA852",
"&@	c #CCA952",
"*@	c #D5B35D",
"=@	c #E1BE6A",
"-@	c #E5C36E",
";@	c #E0BE6A",
">@	c #DCBB6B",
",@	c #B5984E",
"'@	c #B4974C",
")@	c #B7984E",
"!@	c #CAAA58",
"~@	c #CEAB56",
"{@	c #E4C16E",
"]@	c #E3C16E",
"^@	c #E7C470",
"/@	c #E5C36F",
"(@	c #DBB964",
"_@	c #DBB864",
":@	c #CDAA53",
"<@	c #C5A658",
"[@	c #B7994D",
"}@	c #BD9D50",
"|@	c #C3A353",
"1@	c #CBAA56",
"2@	c #CEAB55",
"3@	c #CEAC56",
"4@	c #CFAC57",
"5@	c #D0AD57",
"6@	c #D1AE59",
"7@	c #CFAC56",
"8@	c #CDAB54",
"9@	c #CBA853",
"0@	c #BB9D4E",
"a@	c #B5984D",
"b@	c #B49850",
"c@	c #B5974C",
"d@	c #BC9D4F",
"e@	c #C5A453",
"f@	c #C9A753",
"g@	c #CBA954",
"h@	c #CCA954",
"i@	c #CCAA54",
"j@	c #CAA853",
"k@	c #C6A552",
"l@	c #C0A051",
"m@	c #B6984D",
"n@	c #B4974D",
"o@	c #B89B50",
"p@	c #B89B4E",
"q@	c #B9994E",
"r@	c #B99B4E",
"s@	c #B89A4D",
"t@	c #B79A4D",
"u@	c #B89A4E",
"v@	c #BA9A4D",
"w@	c #BA9A4E",
"x@	c #BA9B4E",
"y@	c #BA9C4E",
"z@	c #B6994E",
"A@	c #B59953",
"                                                                                                                                                                                                                                                                                            ",
"                                              . + @ #                                                                                                                                                                                                                                       ",
"                                      $ % . . . + @ @ @ &                                                                                                                                                                                                                                   ",
"                                  * @ = - . . . ; @ @ @ > * ,                                                                                                                                                                                                                               ",
"                              . . ' ) ) ! ~ ~ { ] ^ / ( _ : < [ }                                                                                                                                                                                                                           ",
"                            . . . | ) 1 2 3 4 5 2 6 7 2 8 9 < [                                                                                                                                                                                                                             ",
"                            . . . . 0 a ! b c d 5 e f g . . h i                                                                                                                                                                                                                             ",
"                              . . . . . < < < j k 9 . . . . l                                                                                                                                                                                                                               ",
"                              . - . < < . . . . m < n o p q                                                                                                                                                                                                                                 ",
"                                  r s 9 . t < . u v w x y z                                                                                                                                                                                                                                 ",
"                                  A B C D E F | G H I J K L                                                                                                                                                                                                                                 ",
"                                  M N O P P Q R S T U V W X Y               Z Z Z             Z Z Z             Z Z Z             Z Z Z             Z Z Z               Z Z Z             Z Z Z             Z Z Z             Z Z Z             Z Z Z             Z Z Z             Z Z Z Z ",
"                              `  ...+.@.#.$.%.&.*.=. .-.;.>.,.Y Z Z Z Z Z Z Z Z Z Z Z Z Z Z Z Z Z Z Z Z Z Z Z Z Z Z Z Z Z Z Z Z Z Z Z Z Z Z Z Z Z Z Z Z Z Z Z Z Z Z Z Z Z Z Z Z Z Z Z Z Z Z Z Z Z Z Z Z Z Z Z Z Z Z Z Z Z Z Z Z Z Z Z Z Z Z Z Z Z Z Z Z Z Z Z Z Z Z Z Z Z Z Z Z Z Z Z Z Z Z ",
"                            '.).!.~.o {.].^./.(._.:.<.[.. [.}.|.Y Z Z Z Z Z Z Z Z Z Z Z Z Z Z Z Z Z Z Z Z Z Z Z Z Z Z Z Z Z Z Z Z Z Z Z Z Z Z Z Z Z Z Z Z Z Z Z Z Z Z Z Z Z Z Z Z Z Z Z Z Z Z Z Z Z Z Z Z Z Z Z Z Z Z Z Z Z Z Z Z Z Z Z Z Z Z Z Z Z Z Z Z Z Z Z Z Z Z Z Z Z Z Z Z Z Z Z Z Z ",
"                          1.2.. . . . < h . . 3.4.5.6.7.8.< . 9.0.Y Z Z Z Z Z Z Z Z Z Z Z Z Z Z Z Z Z Z Z Z Z Z Z Z Z Z Z Z Z Z Z Z Z Z Z Z Z Z Z Z Z Z Z Z Z Z Z Z Z Z Z Z Z Z Z Z Z Z Z Z Z Z Z Z Z Z Z Z Z Z Z Z Z Z Z Z Z Z Z Z Z Z Z Z Z Z Z Z Z Z Z Z Z Z Z Z Z Z Z Z Z Z Z Z Z Z Z Z ",
"                        a.<.. . . . . . . . . b.c.d.e.f.g.h.. . 2.i.Y                                                                                                                                                                                                               Z Z Z   ",
"                      j.2.. . . . . . . . . . k.l.m.n.o.p.).. . . - q.Y                                                                                                                                                                                                             Z Z Z   ",
"                    '.p . . . . . . . . . . . . . . >.r.s.h . . . . 0 t.Y                                                                                                                                                                                                           Z Z Z   ",
"                  <.'.o . . . . . . . . . . . . . . o [.. . . . . . . !.u.v.                                                                                                                                                                                                        Z Z Z   ",
"                  w.'.. . . . . . . . . . . x.y.z.. . . . . . . . . . . }.A.v.                                                                                                                                                                                                      Z Z Z   ",
"                }.|.<.. . . . . . . . . . B.C.y.D.E.. . . . . . . . . . 2.F.v.                                                                                                                                                                                                      Z Z Z Z ",
"              ; q.9.o . . . . . . . . . G.y.y.y.H.y.I.. . . . . . . . . o }.J.v.                                                                                                                                                                                                    Z Z Z Z ",
"              '.'.. . . . . . . . . . K.L.M.N.H.O.P.Q.R.. . . . . . . . . o S.v.                                                                                                                                                                                                    Z Z Z Z ",
"            <.>.9.. . . . . . . . . . T.U.V.W.y.X.Y.Z.`.. . . . . . . . . . [. +v.                                                                                                                                                                                                  Z Z Z   ",
"            .+>.. . . . . . . . . . . T.++@+W.y.#+O.$+%+. . . . . . . . . . . &+v.                                                                                                                                                                                                  Z Z Z   ",
"            ,.'.o . . . . . . . . . . *+=+U.-+y.;+. . . . . . . . . . . . . . >+,+v.                                                                                                                                                                                                Z Z Z   ",
"          '+)+[.. . . . . . . . . . . !+~+y.{+y.;+. . . . . . . . . . . . . . <.]+v.                                                                                                                                                                                                Z Z Z   ",
"          ^+/+. . . . . . . . . . . . . (+_+y.y.:+<+. . . . . . . . . . . . . . [+J.v.                                                                                                                                                                                              Z Z Z   ",
"          }+n . . . . . . . . . . . . . . 9.|+M.y.Q.1+. . . . . . . . . . . . . 2.2+v.                                                                                                                                                                                              Z Z Z   ",
"        3+4+. . . . . . . . . . . . . . . . ;+5+6+7+8+*+. . . . . . . . . . . . o 9+v.                                                                                                                                                                                              Z Z Z Z ",
"        ^+3+. . . . . . . . . . . . . . . . 0+y.a+b+H.c+. . . . . . . . . . . . . >+d+v.                                                                                                                                                                                            Z Z Z Z ",
"        e+3+. . . . . . . . . . . . . - T.(+f+y.X.g+y.h+. . . . . . . . . . . . . . i+v.                                                                                                                                                                                            Z Z Z Z ",
"        ,.3+. . . . . . . . . . . . . j+7+k+l+y.X.m+y.h+. . . . . . . . . . . . . . n+v.v.                                                                                                                                                                                          Z Z Z   ",
"        o+p+. . . . . . . . . . . . . q+r+V.s+y.s+t+5+u+. . . . . . . . . . . . . . v+w+v.                                                                                                                                                                                          Z Z Z   ",
"        )+p+. . . . . . . . . . . . . . x+y.y+y.z+y.A+. . . . . . . . . . . . . . . B+v.v.                                                                                                                                                                                          Z Z Z   ",
"        C+a.. . . . . . . . . . . . . . 9.D+y+y.7+E+R.. . . . . . . . . . . . . . . }.F+v.                                                                                                                                                                                          Z Z Z   ",
"        G+H+-.. . . . . . . . . . . . . . . I+y.J+. . . . . . . . . . . . . . . . . p K+v.v.                                                                                                                                                                                        Z Z Z   ",
"        L+M+N+m . . . . . . . . . . . . . . O+P+B.. . . . . . . . . . . . . . . . . 3.Q+v.Z Z Z Z Z Z Z Z Z Z Z Z Z Z Z Z Z Z Z Z Z Z Z Z Z Z Z Z Z Z Z Z Z Z Z Z Z Z Z Z Z Z Z Z Z Z Z Z Z Z Z Z Z Z Z Z Z Z Z Z Z Z Z Z Z Z Z Z Z Z Z Z Z Z Z Z Z Z Z Z Z Z Z Z Z Z Z Z Z Z Z Z Z Z Z Z Z ",
"        R+S+T+U+. . . . . . . . . . . . . . . . . . . . . . . . . . . . . . . . . . p V+W+Z Z Z Z Z Z Z Z Z Z Z Z Z Z Z Z Z Z Z Z Z Z Z Z Z Z Z Z Z Z Z Z Z Z Z Z Z Z Z Z Z Z Z Z Z Z Z Z Z Z Z Z Z Z Z Z Z Z Z Z Z Z Z Z Z Z Z Z Z Z Z Z Z Z Z Z Z Z Z Z Z Z Z Z Z Z Z Z Z Z Z Z Z Z Z Z Z ",
"        X+Y+Z+`+ @.@< . . . . . . . . . . . . . . . . . . . . . . . . . . . . . . . p d++@Z Z Z Z Z Z Z Z Z Z Z Z Z Z Z Z Z Z Z Z Z Z Z Z Z Z Z Z Z Z Z Z Z Z Z Z Z Z Z Z Z Z Z Z Z Z Z Z Z Z Z Z Z Z Z Z Z Z Z Z Z Z Z Z Z Z Z Z Z Z Z Z Z Z Z Z Z Z Z Z Z Z Z Z Z Z Z Z Z Z Z Z Z Z Z Z Z ",
"          @@#@$@%@&@*@=@{ . . . . . . . . . . . . . . h . . . . . . . . . . . . -@;@>@,@'@    Z Z Z             Z Z Z             Z Z Z             Z Z Z               Z Z Z             Z Z Z             Z Z Z             Z Z Z             Z Z Z             Z Z Z             Z Z Z Z ",
"            )@!@R+~@L+%@Z+ @U+) ~ ~ { {@{@{@{@{@{@{@{@]@{ ^@^@^@- /@~ ~ j b (@_@5 :@<@'@                                                                                                                                                                                                    ",
"              '@[@}@|@1@$@:@Z+2@3@4@5@5@5@5@5@5@5@5@5@T+1 5 e e 5 6@4@~@7@8@Z+Z+9@0@a@                                                                                                                                                                                                      ",
"              '@'@b@'@'@c@d@e@f@g@h@h@i@Z+Z+Z+Z+Z+Z+Z+Z+Z+Z+Z+i@i@h@g@9@j@j@k@l@m@                                                                                                                                                                                                          ",
"                      '@'@'@'@'@'@n@o@p@q@r@s@[@t@s@u@r@v@w@x@y@x@u@z@A@'@'@                                                                                                                                                                                                                ",
"                                                                                                                                                                                                                                                                                            "};
