/* XPM */
static const char *roundSp[] = {
"130 46 2 1",
" 	c None",
".	c #FFFFFF",
"                                                                                                                                  ",
"...............                   ..........            .....          .....     .....            .....      ...............      ",
".................               ..............          .....          .....     .....            .....      ..................   ",
"..................             ................         .....          .....     ......           .....      ...................  ",
"...................           ..................        .....          .....     ......           .....      ...................  ",
"....................         ....................       .....          .....     ......           .....      .................... ",
".....         .......        ......        ......       .....          .....     .......          .....      .....          ..... ",
".....          ......        .....          .....       .....          .....     .......          .....      .....          ......",
".....           .....       ......          ......      .....          .....     .......          .....      .....           .....",
".....           .....       .....            .....      .....          .....     ........         .....      .....           .....",
".....           .....       .....            .....      .....          .....     ........         .....      .....           .....",
".....           .....       .....            .....      .....          .....     ........         .....      .....           .....",
".....           .....       .....            .....      .....          .....     .........        .....      .....           .....",
".....           .....       .....            .....      .....          .....     .........        .....      .....           .....",
".....           .....       .....            .....      .....          .....     ..... ....       .....      .....           .....",
".....           .....       .....            .....      .....          .....     ..... ....       .....      .....           .....",
".....           .....       .....            .....      .....          .....     ..... ....       .....      .....           .....",
".....           .....       .....            .....      .....          .....     .....  ....      .....      .....           .....",
".....           .....       .....            .....      .....          .....     .....  ....      .....      .....           .....",
".....          ......       .....            .....      .....          .....     .....  ....      .....      .....           .....",
".....          ......       .....            .....      .....          .....     .....   ....     .....      .....           .....",
".....       ........        .....            .....      .....          .....     .....   ....     .....      .....           .....",
"....................        .....            .....      .....          .....     .....    ....    .....      .....           .....",
"...................         .....            .....      .....          .....     .....    ....    .....      .....           .....",
"..................          .....            .....      .....          .....     .....    ....    .....      .....           .....",
"................            .....            .....      .....          .....     .....     ....   .....      .....           .....",
".....      ......           .....            .....      .....          .....     .....     ....   .....      .....           .....",
".....       .....           .....            .....      .....          .....     .....     ....   .....      .....           .....",
".....       .....           .....            .....      .....          .....     .....      ....  .....      .....           .....",
".....       ......          .....            .....      .....          .....     .....      ....  .....      .....           .....",
".....        .....          .....            .....      .....          .....     .....       .... .....      .....           .....",
".....        .....          .....            .....      .....          .....     .....       .... .....      .....           .....",
".....        ......         .....            .....      .....          .....     .....       ..........      .....           .....",
".....         .....         .....            .....      .....          .....     .....        .........      .....           .....",
".....         .....         .....            .....      .....          .....     .....        .........      .....           .....",
".....         ......        .....            .....      .....          .....     .....        .........      .....           .....",
".....          .....        .....            .....      .....          .....     .....         ........      .....           .....",
".....          .....        ......          ......      .....         ......     .....         ........      .....           .....",
".....          ......        .....          .....       ......        .....      .....          .......      .....          ......",
".....          ......        ......        ......       ......       ......      .....          .......      .....          ..... ",
".....           .....        ....................        ..................      .....          .......      .................... ",
".....           ......        ..................         .................       .....           ......      ...................  ",
".....           ......         ................           ...............        .....           ......      ...................  ",
".....            .....          ..............             .............         .....           ......      .................    ",
".....            ......           ..........                 ..........          .....            .....      ...............      ",
"                                                                                                                                  "};
