/* XPM */
static const char *scoreSp[] = {
"129 46 2 1",
" 	c None",
".	c #FFFFFF",
"                                                                                                                                 ",
"      ...........                ..........                 ..........            ...............             ...................",
"    ..............              .............             ..............          .................           ...................",
"   ................            ...............           ................         ..................          ...................",
"  ..................          .................         ..................        ...................         ...................",
"  ........   ........        ......... ........        ....................       ....................        ...................",
" ......        ......        ......      .......       ......        ......       .....         .......       .....              ",
" ......         .....        .....        ......       .....          .....       .....          ......       .....              ",
" .....          ......      ......         .....      ......          ......      .....           .....       .....              ",
" .....           .....      .....          .....      .....            .....      .....           .....       .....              ",
" .....           .....      .....          .....      .....            .....      .....           .....       .....              ",
" .....           .....      .....          .....      .....            .....      .....           .....       .....              ",
" .....           .....      .....          ......     .....            .....      .....           .....       .....              ",
" .....                      .....           ....      .....            .....      .....           .....       .....              ",
" .....                      .....                     .....            .....      .....           .....       .....              ",
" .....                      .....                     .....            .....      .....           .....       .....              ",
" ......                     .....                     .....            .....      .....           .....       .....              ",
"  ......                    .....                     .....            .....      .....           .....       .....              ",
"  .......                   .....                     .....            .....      .....           .....       .....              ",
"   ........                 .....                     .....            .....      .....          ......       .....              ",
"    .........               .....                     .....            .....      .....          ......       .....              ",
"     ..........             .....                     .....            .....      .....       ........        .................  ",
"      ...........           .....                     .....            .....      ....................        .................  ",
"        ..........          .....                     .....            .....      ...................         .................  ",
"          .........         .....                     .....            .....      ..................          .................  ",
"            ........        .....                     .....            .....      ................            .................  ",
"              .......       .....                     .....            .....      .....      ......           .....              ",
"               ......       .....                     .....            .....      .....       .....           .....              ",
"                ......      .....                     .....            .....      .....       .....           .....              ",
"                 .....      .....                     .....            .....      .....       ......          .....              ",
"                 .....      .....                     .....            .....      .....        .....          .....              ",
"                 .....      .....                     .....            .....      .....        .....          .....              ",
"                 .....      .....           ....      .....            .....      .....        ......         .....              ",
" .....           .....      .....          ......     .....            .....      .....         .....         .....              ",
" .....           .....      .....          .....      .....            .....      .....         .....         .....              ",
" .....           .....      .....          .....      .....            .....      .....         ......        .....              ",
" .....           .....      .....          .....      .....            .....      .....          .....        .....              ",
" .....           .....      ......         .....      ......          ......      .....          .....        .....              ",
" ......         ......       .....        ......       .....          .....       .....          ......       .....              ",
" .......       ......        ......      .......       ......        ......       .....          ......       .....              ",
"  ........   ........        ......... ........        ....................       .....           .....       ...................",
"  ..................          .................         ..................        .....           ......      ...................",
"   .................           ...............           ................         .....           ......      ...................",
"    ..............              .............             ..............          .....            .....      ...................",
"      ...........                 .........                 ..........            .....            ......     ...................",
"                                                                                                                                 "};
